<mxfile host="57d81736-69ff-4f08-9be9-2350e9d7dc0c" modified="2020-08-16T16:50:25.575Z" agent="5.0 (Macintosh; Intel Mac OS X 10_15_5) AppleWebKit/537.36 (KHTML, like Gecko) Code/1.47.3 Chrome/78.0.3904.130 Electron/7.3.2 Safari/537.36" etag="SX_GjoS5jX0TtT1MZya-" version="13.1.3">
    <diagram id="6hGFLwfOUW9BJ-s0fimq" name="Page-1">
        <mxGraphModel dx="3714" dy="4997" grid="1" gridSize="10" guides="1" tooltips="1" connect="1" arrows="1" fold="1" page="1" pageScale="1" pageWidth="827" pageHeight="1169" background="none" math="0" shadow="0">
            <root>
                <mxCell id="0"/>
                <mxCell id="1" parent="0"/>
                <mxCell id="3" value="" style="shape=image;imageAspect=0;aspect=fixed;verticalLabelPosition=bottom;verticalAlign=top;image=data:image/png,iVBORw0KGgoAAAANSUhEUgAAAYoAAAMUCAYAAACijWAKAAABgGlDQ1BJQ0MgUHJvZmlsZQAAKJFjYGCqSCwoyGFhYGDIzSspCnJ3UoiIjFJgv8PAzcDDIMRgxSCemFxc4BgQ4MOAE3y7xsAIoi/rgsxqOqd2d+pGwehjat+yq+1cc3DrAwPulNTiZAYGRg4gOyWlODkXyAbp0UsuKCoBsucA2brlJQUg9hkgW6QI6EAg+wGInQ5hfwGxk8BsJg6wmpAgZyBbBsgWSIKwdUDsdAjbBsROzkhMAbJB/tKBuAEMuIJdFAzNDXx1HQk4nFSQm1MKswMUWjypeaHBQFoIiGUYghlcGBQYDBnMGQwYfBl0GYCWl6RWlIAUO+cXVBZlpmeUKDgCQzdVwTk/t6C0JLVIR8EzL1lPR8HIwNAApA4UbxDjPweBbWAUO48Qy5rMwGDxhoGBuQohlrKcgWGLPQODeDBCTH020EnvGRh2hBckFiXCHc/4jYUQvzjN2AjC5nFiYGC99///ZzUGBvZJDAx/J/7//3vR//9/FwPtv8PAcCAHALbUa30s2MP4AAAAVmVYSWZNTQAqAAAACAABh2kABAAAAAEAAAAaAAAAAAADkoYABwAAABIAAABEoAIABAAAAAEAAAGKoAMABAAAAAEAAAMUAAAAAEFTQ0lJAAAAU2NyZWVuc2hvdCmIaMsAAAHWaVRYdFhNTDpjb20uYWRvYmUueG1wAAAAAAA8eDp4bXBtZXRhIHhtbG5zOng9ImFkb2JlOm5zOm1ldGEvIiB4OnhtcHRrPSJYTVAgQ29yZSA1LjQuMCI+CiAgIDxyZGY6UkRGIHhtbG5zOnJkZj0iaHR0cDovL3d3dy53My5vcmcvMTk5OS8wMi8yMi1yZGYtc3ludGF4LW5zIyI+CiAgICAgIDxyZGY6RGVzY3JpcHRpb24gcmRmOmFib3V0PSIiCiAgICAgICAgICAgIHhtbG5zOmV4aWY9Imh0dHA6Ly9ucy5hZG9iZS5jb20vZXhpZi8xLjAvIj4KICAgICAgICAgPGV4aWY6UGl4ZWxYRGltZW5zaW9uPjM5NDwvZXhpZjpQaXhlbFhEaW1lbnNpb24+CiAgICAgICAgIDxleGlmOlVzZXJDb21tZW50PlNjcmVlbnNob3Q8L2V4aWY6VXNlckNvbW1lbnQ+CiAgICAgICAgIDxleGlmOlBpeGVsWURpbWVuc2lvbj43ODg8L2V4aWY6UGl4ZWxZRGltZW5zaW9uPgogICAgICA8L3JkZjpEZXNjcmlwdGlvbj4KICAgPC9yZGY6UkRGPgo8L3g6eG1wbWV0YT4KDCat+wAAQABJREFUeAHsnQe81MT2xw9F6b1fkN4vVUApUkWkSRGl2AAV0f8TBZ/l2Z/liYqKAioiNkBBESkCIoKIIFhQlAtIr3Jp0nuTf36Ds+bu3ZLdzbbkN3zC7iaTycx3cnMyZ86ck+W8kcQr/fnnn1K0aFGvveH/dFt5mzZtkooVK4YPzOtMt/Gzu73sD68bKsSf7I8QgXllt5uf3eVZ+fvI6tUm/iQBEiABEiCBDAQoKDLg4A8SIAESIAFvAhQU3kT4mwRIgARIIAMBCooMOPiDBEiABEjAmwAFhTcR/iYBEiABEshAgIIiAw7+IAESIAES8CZAQeFNhL9JgARIgAQyEKCgyICDP0iABEiABLwJUFB4E+FvEiABEiCBDAQoKDLg4A8SIAESIAFvAtm9d0T6u3nz5pEWwfNJgARIgAQCEFi0aFGAo/Yfsl1QoIpXXXWVrFmzRnbv3i1VqlSR6tWrS82aNaVWai1JKZ1ifytYIgmQAAk4iED6jnRZuWqlrF69Wj1L169fLyVKlFDP0q+++irmLY2KoHjiiSdUQ44cOSIrV66UVatWydy5c2XUqFGSNWtWqVq1qmpwamqq1K5VW3LnyR3zhvOCJEACJJAIBI4fOy5pK9PUcxIv2OvWrZO//vrL85zs27ev1KpVS/Lly6eq6xhBoeGjYU2aNFGb3rd9+3YFBMLjnXfeEUjKMmXKSLVq1aRGjRoKCL4zkQAJkIATCaxdu1a9QP/++++C73/88YdH89KmTRsZNGiQXHLJJQnV9KiMKAK1EACwtW/f3pNtZZox6li9StLS0mTy5Mmyb98+DzilsjKkacmSJT35+YUESIAEkoHArl27lFAwq5CKFCmiNCp4Me7WtZvUql0r4ZsSc0HhiwhAmWEdOnTIo7KaPXu2DB8+XHLkyKGGYoALlRWGYjlz5vRVHPeRAAmQQMwJnDx50vPcwmgBKqRTp04pbQnmaW+88Ub13CpQoEDM6xbpBbMjCIav5G+/r7x27wPIZs2aqU2XvXXrVo/KCjP+UFmVL18+g8oKE+dMJEACJBALAngGYQ5Wq5C2bNmiNCFQnbdo0ULuuusuKVeuXFSqYvfzOVh52X1FssNJvvZHpcUWCwVwbB07dlRnIDDfihUrZPWq1bJ8+XKZOHGiHDp4UKoanVS9GqysjPmO2rWlWLFiFq/AbCRAAiTgm8DevXtlpaEaX736d1mz1phwNuYWChQseEGFVL2GdOrUSerUqSNZsmTxXYDNe+18Ph8+fDjo8z4hVE/hMESH1K1bV236/AMHDqh5DugDp8+YIS8OGyZ5cucxhEdVNVGuVVYXX3yxPoWfJEACJJCBwOnTpzOqkNauk2PHj3lUSD179lQqpEKFCmU4z8k/klZQ+OoUdByGfNh02rx5s6xauUpNli9YsECprCpXrqw6XU+U2xnfWl+XnyRAAslBADGjoULCCyaskDZs2OBRITVt0lQGDBggFSpUSI7GRKmWjhIUvhihg7F1vqazOnzu7DlZkbZCzXf88MMPMm7cODl69KjnbaFmjZpS21BZFS5S2Fdx3EcCJJDEBPbv239B6/D7hYVsEAx58+b1zHVeffXVUqd2HcmWPVsSt9L+qjteUHgjww1Qv359teljmJOBiS7eKKZ8NkWeG/qc5M+fX+kfYa0AlRX0j1gsyEQCJJAcBLBoDfOYWLOlJ5yhj8dkM+Yxu3frrqwt7dT3JweZ0GvpOkHhCxFulFatW6lNH9+4YaNaLYkbDCshMTyFVRVustSaqZJaK1VZXen8/CQBEogvAVgdaTUzRgqwSoJaGX+zjRo1kv79+kulypXiW8kkvToFhZ+Oww2FrVu3bioH7KG1O5LF3y2Wd999V06cPHHh7eTvUQfWdhQ0LCGYSIAEokvgoGHhiAW6eiEbBEOunLk8hitXXnmlmnDG+iumyAlQUFhkiBuuQYMGatOn7Nmzx3OzwjwXbzCYUIe6qoZhMlcztaZSWen8/CQBEgiPgDaF/32NYZ5q+EOChaN2ONq5c2d5+OGHpXjx4uEVzrOCEqCgCIrIfwbcmHhzwaYTVmPqRTizv5gt27Zt+0dlZcx1YL6jbNmyOjs/SYAEvAjgbwbzCti0Cgl/M1AhwSQeK5zhWJQpdgQoKGxmjRvYfBOfOHFCTZTDl9U333wjY8aMkbNnz3o8Q+q1HZg8ZyIBtxHA5LJW6WrPqdmzZ/e462nZoqWacM6VK5fb0CRUeykootwduMEbXdZIbfpSO3fu9Nhtjx8/XqmssIJcqazgy+rvyXKdn58k4BQCerIZRiIQDFjxrFVIcBR6//33S6lSpZzSXMe0g4IiDl2JPwRsCPCkE/5otMpq+vTpAmGi/4CwMBAjD7hjZyKBZCEA99lQH+kJZ8zhpaSkXLAcNO7nXr16qZejZGmPm+tJQZEgvY/RBDadjhmLANP+Dvo0b948eeONN9ShjEGfakkeY7EQEwnEm4D5ftUqJNRJ36/9+/c3gpTxfo13P4V7fQqKcMlF+TwIgMaNG6tNX8r8hvbee+8plZV+Q9NBn8zCRp/HTxKwm4B5BIwJ5/T0dM8IuG3btnLvvfdyBGw39DiWR0ERR/ihXhqqJ2xwM6CT1vliiD9lypQMOl/ty4o6X02Ln+EQMM+pQUBAhWSeU+vRo4fhrblmOEXznCQhQEGRJB3lr5pYIY5NJ7MVyZw5c2TEiBFitiLBRDmCRNGKRBPjp5mAttJbuWqlmmyGubfZSu/mm29WC9lopWem5vzvFBQO62P8ATdt2lRtumlmu/Qxb49Rb4TaLl2rrMwmvfo8fjqfgHndD1RI5nU/rVq1kn/9619c9+P82yBoCykogiJK/gwQCtg6dOjgaYxe6frbb7/Jxx9/rFa6QlhgURPUCPCgy5WuHlyO+GL2JKBVSGZPAtdccw09CTiip+1vBAWF/UyTokR4w8Wmk9l3zsyZM+Xll1/O4DtHLwyk7xxNLLE/zb7JsGZhnRF8x+ybrE+fPkqFRN9kid2PiVK7hIyZnShw3FQPPDCaN2+uNt1uszfOhQsXKpWV9sapJspTa9Ebp4YV50+zt2OokMzejq9odoUMHDiQ3o7j3Ed2Xj5YjOtQrxWsvKSJmR1qw5k/cgLly5dXD5dOnTupwsz+/X/66SeZMGGCmP37K+FhTJTTv3/k7AOVYI6fgvjNEAzm+ClQMTJ+SiCCyX/Mzr8x/A0HK4+qp+S/Z2LWAgRuqlevntr0Rc0Rw6ZOmyrPv/C8ihimFxBqldVFF12kT+FnCATOnDnj8YWkg++YIzL2uLYHIzKGwJNZwyNAQREeN571NwGEjG3ZqqXaNBRzDOL58+fLRiMGcWWvoE9uj0GsWXl/mmO8Y6SwwVizUOnvGO+XX3653HbbbSoYj/d5/E0C0SRAQRFNui4tG/MY2Lp06aIInD592vNWvGTpEnn//ffl2PFjnqBP2soKFjhuSoip4B18J0/uPJ7gO/AFhmBYF198sZuwsK0JSICCIgE7xWlVwoPu0ksvVZtuG7yGrlQRyn6XTz75RP737LNSwJhQh8rKHPQpS5Ys+pSk/jx//ryK37x61WrRwXcOGVHaqhrmyIjf3NUQqrUMk2SseGYigUQjQEGRaD3ikvrggdi6TRu16SbDNYT2oDvnyzkCqytPnHLD2yjmO8qVK6ezJ/Tn1q1bMwXfgXEA1qlAaGKFM9rGRALJQICCIhl6ySV1xIMTW/fu3VWLT5486VFZffvttzJ27FiBGkt7JNUT5QUKFIgroUOHDnnqiYVsmFvAehPUEyvfW7durVRIOXPmjGs9eXESCJcABUW45Hhe1AngwdqwYUO16Yvt2rVLPZQR4+DDDz9UazuKFCmSIegTfFlFM61MWymIWKiD7+zbt8/jObVjx47y0EMPSYkSJaJZBZZNAjElQEERU9y8WKQESpYsKdjgylonvMFrlRVWlcMdO0YmmO/ARDlGHpdcconOHtLn9u3bM6mQ4MEXKiS4OcEKZ3xnIgEnE6CgcHLvuqRteFCbH9bHjx03gj6lqQf8119/LaNHjxYsFvRWWeXLly8DoSNHjmRQIcFhHtaOaBUSTFNr16otufPkznAef5CA0wlQUDi9h13YPjzIseYAm07pO9IFrrOhsvrggw+UygrmuNokF6aq2PRIpF27dnLfkPskpXSKLoKfJOBaAlld23I2nARIgARIwBIBjigsYWKmZCJgVj3BCgkqJLPqqW/fvsoKKZDqae7cuTJq1KgMqie1MJCqp2S6FVhXmwhQUNgEksXEj4B5MhvfzZPZbYy1GoMGDbI0mQ3B0aRJE7Xp1pgns9955x2lstKT2Trok3l+RJ/HTxJwEgEKCif1pgvaYjaP1cF3zOax3bp2U6Fe7UIBayls7du39xSpzWPhfmPy5MliNo/V7khoHuvBxS8OIEBB4YBOdGoTzAvuVPAdQ4VkXnB34403KhVSrBfcYZ2Gea2GecHd7NmzZfjw4RkW3OmFgVxw59Q71fntoqBwfh8nTQvNLjygQjK78GjRooXcddddCenCA4KqWbNmatOwzS48Fi1apFRW2oWHXtsBCysmEkgGAhQUydBLDqyj2SkgnOStN0YLZqeAnTp1UsF3ktUpIHxSYcNKbSSzU8BffvlFPvroIzE7BaxZswadAjrwPndKkygonNKTCdwOs5txHb/Z7Ga8Z8+eapWzXtOQwE0Ju2oQeHXr1lWbLsTsZnz6jBny4rBhYnYzrlVWdDOuifEzXgQYMzte5B18XXPgIqiQzIGLmjZpKgMGDBAGLhK12A8qNWw6mQMXLViwIEPgIqisEJ8CsT6Y3E0gWIzrUOkEKy+LMSQ+710oTgoWQ9X7HP27efPmAp0skzsImEOhas+pefPmVX6W4GtJvxUzFGp490OwUKg1a9RkKNTw0CbtWXY/Y/FiF+zlg6qnpL1dYl9xLFpbsWKF8qGk4zcjMDvWESD4Tvdu3ZU1ULgvGXa26MSJE4LY0qEGAoKlFayYQjVvxQMdZrI4z855FQjY+vXrq03zwYscTHThjmTKZ1PkuaHPSf78+TMI5zp16qjFgvocfpJAJAQoKCKh5/BzYXW0auUq5VIbKiRYJeHNA4KhUaNG0r9ffyOec6WoURg5cqSKfjdu3DhLqio84HEOJov/NCLoYaiMNRZYGNe4cWPp2rWrz7pC2GEV9rJlyzznYVRU2YhVjXkFrOT2NSKC4ITfKKzi3rlzp5w7d05y586t+OBBfdNNN0k0TGIhiFu1bqU23aCNGzYqR4gQ4F999ZXgLRFWVeir1JpG0KdaqQKrKyYSCIcABUU41Bx4zkEjLKd3/OZcOXN54jdfeeWVSj+OgDyJmDDSeeSRR+SwISzad+igosgVKVxEhR2dNWuWLF68WH799Vd58sknM1Qfb+WIHwELJJyHt/fChQsrFkuWLFGCAGW/9tprGUYKEEr33HOPeiAjYt3111+vrJwgXL/55ht13sKFC+WNN94Qb1chGSpg0w8IbGzdunVTJZ46dcrjCXfxd4vl3XfflRMnT1wY/ZlUggWN8LNMJBCMAAVFMEIOPY6Hnzl+Myxw4E4bb6CdO3eWhx9+WIoXL54Urcc028svv6xUTU8//UyGN+1GlzVSEfMefPBBmTdvnlrrYI5lgcVxcC/+5H//KxCGOsHzLEYSWLuxfPly+fLLLzOszoY7D7y1w2Lr7rvv9giRBg0ayLXXXqsW3U2dOlXefPNNwbVjnSDQURdsOu3Zs8fzMjBx4kSPB13vOOU6Pz9JQBOgoNAkHPy5bdu2TMF3ypYtq4QCVCtY4QwhkawJqh88tLt06ZJBSOj24I3+iSeeUEGGpkyZ4gl6tPCbhYIJeLjnMAsJfR7UTUOHDlWjEbPLcrgR+fzzz5Uqxywk9HmYoxgyZIj89NNP8sUXX6jvvlRXOn+sPiH40U5zW+EwUQd9mv3FbMG94lFZ/R2nHPcKk7sJUFA4rP+hb8cf/qpVq9RDEA+C7Nmze4LvtGzRUk0458qVyzEtx9wC0s033+y3TaVKlVJmqN9//71a/IaH+c+//Kzy33DDDX7Pw2S4juGtM2GEcfbsWenVs5dnJKGP6U+Uj9HGK6+8ImvXrM3g8kPnSYRPvCCYXxJgBICJcsTugAptzJgxqq3IY7Ziw+Q5k3sIUFAkeV/ryWZMYuLtGCuedfAdvCnff//9goekk9OOHTsEgg8hUgMlrN3A2oRNGzcpfT7OQwS7speE9sYMj7JIFSsFXs9QqdKFiX7E1zb7hgpUx3gfA0eo67DphIl6vHxgPmf8+PFKZQUBqlRWhqEA1nZgjQeTcwlQUCRR38J9NkYK+IPVnlNTUlIuWLYYaoJevXqpP94kapItVYVwtLKqu3ixC3MuGzZuUIICZqaYzM2WPVuGeoCzHqXoA7Be0h5koetHCjaHo01soRZL5oQXDWxXXXWVpxm4/7TKaoaxqjw9Pd3zgqJ9WcEdO5MzCFBQJGg/HjPWAKR5qZBQVa0C6N+/vxG/uZbkMcw43Z7wQILwDJb2H9ivsmidO86D8z6YuWJkoRMegJgcNycIFC0o4HYcCesmAq0Z2b//wvWc+MDEaAKbTub7FUYDsPZC0vcrFl7yftW0ku+TgiJB+sz8hobvGO5rFRKsdO69915x4gPHDvx4YGEEAMutQCMLqJrgN6lqlQsT91hf8e2336pAR1p4oD6Y7DVPXr/wwgtqJKfrioceEoQMrMT8Ja2igmrG6QkvLFirgk0n8wj4vffeUyorPQLWQZ/Mwkafx8/EI0BBEYc+Met8tQrJrPO9tvu1aoFUHKqWlJfEQwdp0qRJypzVVyPwxot1DVgwqFVN+oGP88wmrLBQMgscb4ulGoZgymJcBBZU7dq183U5tQ+WURip6Pr5zejQA3ixwXb11Vd7Wqjn1KBCBT/znJr2ZeX0OTUPjCT6QkER5c7SViSY0FSeUw0rJFjM6CE5LHXwxkkrkvA7Am//eDP97LPPVBjTevXqZSjs3Nlz8oqxXgJ9ccstt3iO1aldRy2wQ7Ah73gSOhOEOhz1mRPenrt17y5YJzFp4iTp3ae3+bD6Pn36dLXAr3ev3lFZnZ3pgkmyAyvEselkttKbM2eOjBgxIoOVHlaVwxDASVZ6uu3J9EmngDb3ltkuHW4vaJcePmDtwgPzMXDF4Z3gJkN7ocUDB4vjoF665pprVCwLrLDeuHGj4AG0wXA/8h9jEaGOD6HLgm8nrLBeY1iNXWWMDrBADW+0UBuh/3Au3HIMHjw4w/oDLPL773//K19//bUSThA0UF/hvB9++EGptDoYK72xWpwpNAKB1v1olRVetNya4uEUkIIigrvNvNJVq5CgssDbbY3qNaRmak31wIrgEq4+VQsKfxAGDRqk1iro41BjICAQJqM3bNigRm5Q6WHE1qZ1G5+L8XAu1FLjDLNPnAdBD+EBdRMmrXHuwIEDfY74MFIZP2G8GjlgtHj8+HHJkyePMhWFwMH6DDsdBOp2uvHTlycBPYcHlVXt2rWDWqE5hRsFRQL3pNl3jlIhrV1H3zkJ3F8IlgR/TBAUoSRYQO3auUtKliqZwRIqWBkYYezevdt277HBruvW48F8k2n39onqmyySfouHoOAchZ8eM3vjhArC7I3zimZXqLfM8vTG6Yde/HfDuilUIYFaY/I5pXRKyA3AyCHYgr+QC+UJfgnAXBkPTGw6mb0dw3DB7O1YTZSn1oqqt2NdDyd+UlAYvWr2779m7Rqlmzb794eumf79nXj7s01OIoAXN2ydOndSzTLHT4HfrQkTJgjmsmDSjPgpSngYE+WB1sI4iU8kbXGdoIBeeUVaxuA7CHCjbh5jbqHHtT0YMSySO4rnkkCCEMDoEBZwZis4c0TGqdOmyvMvPC+IPYK/f0yUQ2UFazhtQp0gTYl7NRwfM9scg1gH30FAGtwYMKu87bbbgoYBjHsvsQIkQAK2EChcpLC0bNVSbbpAqJVhyIDV/fPnz1eGEB4Pun8HfdLWdfqceH9CC2JnClaeo6yesDLXO/hOntx5PMF39AQX9NdMJEACJOCLAAwhIDiwKFAbrhw7fsyjddDPEfOiTF/lRGsfJ7NDIAsrE2+TOUQpq/q3/rGrEZuglmEyF86EZgjVYFYSIAGHEcCLJKIWYtMJptcr09KMUcfvKjzvs888IwWMCXVvU3inmkMnzRwF/OpAwmPTKiRMXEGFhPCVWOGM4SITCZAACdhNAC+crdu0UZsuG1ZVGHlg1DHnyzkCqyuPysqY68DIo1y5cjp7Un8mpKCA/bse+mEhGwQD7KGxGhMTTq1bt1YLoaIRuD6pe5OVJwESiBkBCAVsOrAVFmrq5xacTY4dO1aw/kobymiVVYECBWJWR7sulBCCAhG1tC8kCAa4b0YHYFgHlwtw2EYbdbu6nOWQAAlEgwBeXBs2bKg2XT7C5kJ4YKL8ww8/VGs74I5GqaxgZfW3LyudP1E/Yy4o4AvHW4UED5OQuliG36dPH/U9UYGxXiRAAiRglQBecLEhVIBO0JBoldXMmTOVm3v9Yoy1HRh56Jgn+px4f0ZVUBw5csQzFMNIAX50YNusPafCNLV2rdqSO0/ueHPg9UmABEggJgTwUoxNp+PHjhtBytLUCzScTI4ePVoF09LPSa2yypcvnz4l5p9RMY9FyEQIBvi+MUvKWsYS+nDcI8ScCi9IAiRAAnEkkL4jXVauuqCywrMUE+cIrQuV1VdffSWLFi2yrXZYR4I4LYFSVARFoAvyGAmQAAmQQGQEYi0obFc9+WoAVv3Z6U8l0cuzIqFDuU0Svb2JXj/2Ryh3W+a8dvcv+yMz41D2oD9inf6JKB/rK/N6JEACJEACSUGAgiIpuomVJAESIIH4EaCgiB97XpkESIAEkoIABUVSdBMrSQIkQALxI0BBET/2vDIJkAAJJAUBCoqk6CZWkgRIgATiR4CCIn7seWUSIAESSAoCFBRJ0U2sJAmQAAnEjwAFRfzY88okQAIkkBQEsmzcuPG8nTXt27evncWxLBIgARIgAS8CH3zwgdee8H/mzJFTTp46GbCA7L6cQUW6ZN+XG4+AteBBEogTAbvjD8epGbysiwjgnvX13A4XgRWXKlQ9hUuX55EACZCASwhQULiko9lMEiABEgiXAAVFuOR4HgmQAAm4hAAFhVdHLzAiTD3//PNy5swZryOx/4kYuwjQzkQCJEAC8SRgezyKWDfmueeeky+++CLoZTt16iT/+c9/guZbkZYms2bNknvvvVcuuuiioPmjmQFGAYcPH5bbb7/dtsts3rxZcuXKpeL42lYoCyIBEnA0gaQXFB07dlTByHUvrV69WmbPni0QDDVq1NC7pUKFCp7vbv4ybNgwufzyy4VmzG6+C9h2EgiNQNILinr16gk2nXLkyKEERYMGDQSxu5kyEjDWzShBkXEvf5EACZCAfwJJLyj8Ny3zEQQpnzlzpvz222+yc+dOFay8e/fuct1112XObNqzbds2efLJJ9UI5cEHH1RHzp09J2PfGauCnO/atUuKFy8uTZo0kTvvvDOoygoqsPz588v1118vb775pqBe+fLlU4LttttukyxZsniunjVrVkGg9REjR0iaoRbD72bNmsngwYMlZ86cnny7d++WESNGyJrf18jhI4clJSVFlXfjjTeq8tauXStPPfWUHD9+XD799FMVoB1tqlKliirjs88+U2z++OMPyZMnj1SuXFkGDRokZcuW9VzD35dff/1VzaVArXX+/Hm55JJL1IiladOmnlPGjRsnCxculCeeeEIwqtm6dat8/vnnnuP8QgIkkLgEXDOZffr0aXnsscfkl19+kU4dO8mQwUOkSJEi8tprr8mMGTP89tDBgwfl3//+t5rcvuuuuzz5HnzoQZk4caKUL19eHn74YSVEpk2bJg888IAnj78vECwrVqyQZ555RipXqiz33HOPUo1hteW7776b4bSzZ8/Kk/99UmrWrKmEQ506ddQcCq6t04EDB6Rfv37y+++/yy19b1ECAaOsMW+9pR7KyAdB1q5dO3VK7dq1lZDSccwhrIYPH66EBoTHgAEDZPv27QKhBSEVKC1ZskTV/6+//pIhQ4bIQw8+pATNfx56SAkjfe6hQ4dk/bp1MmrUKMmdO7e0v7q9PsRPEiCBBCfgmhHF8uXLpXDhwuqN/9JLL1Xd0qpVS+nUubN6oHXp0iVTV506dUo9+P8695d6kOKtH+mnH3+SH3/8UW644QbRwuPKK68UPIBffvllwbXq16+fqTy9A6OCHTt2qLL1da+++mrB2z+E1q233uoZVXjna9u2rXQ26gyB179/f1Uk3taPHj0qo0aOkkqVK6l9eJs/cuSIUsNhPqJEiRLS7qp28s4770j16tWla9euKh+EzJQpU+SKK65QAk/XsV7detK7dy8ZN35cQCMAWGUVKlRICVw9+d+iZQsliN577z2P+i979uwCXzFgiFEFEwmQQPIQcM2IAhO4Y8aMES0k0EV58uaVSpUqyZ49ezL12F/nzil1U3p6ugx/dbgUK1bMk2fJ0iXqO4SDOenfS5csNe/2+R3qJYxsdMLvRo0ayf79+2Xv3r16t1I1tWzZ0vMb+fDQ37dvn2cfhAbUPVpI6AMtmreQc0Y7oLLyl1b8tkIgEFu3bp0hS0rpFClvGAAEOveYIZzWr1+vVG5aSKAQ1BFqOIxKMJLQ+/Bpnk9SB/gfCZBAwhNwzYgCPYE1EjMMvTje0vEAw0P0tPGQLFGyZKaOGjFypHz33Xdy9913Z9LTY34DswgwzfVO2L9nb2bB450Po5ts2bNl2A1VGBJ8bUFVhFSqVCkpUKCA+q7/w4T9sWPH9E8lWDCn4J20cMP8hb+0a/cudQjCxzuhPrAi85fSDQ5Iuq7mfFqtBTWbuf6pNVPN2fidBEggCQi4RlB8/PHHSj8Oa6i+t/QVvDHjgYuJVahtvNP8+fPVQ3r8+PGCkYJ+8CEfBAxSixYtPCoitcP4D2//ZcqU0T/9fmLC2Dtly3ZBcGBeQieoqYIl5IdqxztlzXbhXHN53nkwd4NkHhHoPLi2bqveZ/7U5fq89t/1Pnvmn7bg3MJFCpuL4PcEJrBxw0aZ/Olk6dGjh8foIZGqi0WxUPViJK5H84lUPyfVJfPTxUmtM7UFVj14a8akLVQjOmGy2teD7pVXXlGWSVjs9vTTTysdvD6vpDECgb4d6hXzWg1dppVPrZIx58XiOiRfb+jmfN7fIcSgsvJOeh9GJf4S2oKEUYx3Ahs9KvE+ht+6XLMaTOfD3AcSBDJTZgIjjRHrJ598ou5JWKH5SzfddJOyEOvdq7f86+5/+csWlf07d+1UhhNNGjcJKCiguly5cqXgJSyWCS8xWByLFz4KiuiSD/66Gt3rx6z0kydPqtXI+mGPC//888/qAYnJau8Es9Hy5cvLv/71LzU5jQljnVJTL6hPfvrpJ71LfeJBD8snX0IgQ0bjB/Lgjc2c8MeW15g3KVb0n/kQ83F/3yGsYJrq/bD/4YcflIoMk9fmpEcC2AdVEJgsXZpxXgVCAmsutPms+Xz9vWDBgupB580Bx8EWAgwT3Uy+CWAECbUgzIt9Jcz/wIxYjzR95UmEfbhvHzKs3JicS8A1ggJWQLihFy9erHT6cPuBtzqsSfhz35/KDBRrALwT1lnAIggWPKtWrlKHYaEE9dLkyZNVeRAQeDDCTBYmrjAVDZawjuKll19SwgKTwnirTDNMZlG299xFsLJuueUWlQXrJLDmA9ZOs2bOUm9bLVu18syxFCteTLnvWLZsmZqExls/3vjbtGkjX375pToHddmyZYuayEc7tGWVvzrcfPPNatIaZsb7912YiAdX+LjHMSb/BPAmjPUu/lzQzJkzR0qXLi05Lr7YfyEJcATrgJicTcA1qqeePXsqAYG1FHgAwtoJKiU8LHGjwxT05Zdf8dnbEABYp4D1DB+8/76ylsLD8IUXXlBrMzAExuK3qlWrytChQy29RUO9BN3vff++T6mNMB+Ah/r//d//+axDoJ3lypWTV199VdUHJrZIeAi1b99eLZrT52Ie4pprrhGo4WCCi3bBBQo+4f/pleGvyPMvPK9GIWUMKyqo6YK5PoGZLUYoMLvVKhQIQfjKuvbaa/Wl+emDAO5DWON99dVXcv/992eYJ8JLy4IFCwQvOHBJ452CLbDU+a3mw0LLF198UbAwE0YMVzS7QmrXqa2L8fsJgw68fMEoBGqyWrVqKXPqRx99VKluG1/eWN4e+7Z6sYKzTSSrC18xf4Z1NxgZ4+XnsssuU2uBzAs5fVUMf5t4GXrkkUekWrVqKguELszAMULLlzef1KhZQ61LMs89Bqqzr+u4aV8W44bM9BodSYS7RI8YhhsuW9ZskjtPbk8/AwH0rOaVzp6DQb5ghTb+GEuWKqlMWYNkV4fxkMZD4n1D6CDBPBcP13Curwow/YcRwWGjjZh7MKvZTFkEebIaag8IB3MCh53pOwUqJTMfc55A32HWC7bJNGEdr/sVD7OpU6eqyVgsuHzaGA22NkZ2OmEtDvZjtf29xmcv0xwFXm6whgf9hzUymEfCw3Sq8QLQ2XgR0N4DrObDAxleAiDw77jjDiUoILxg3YdFnM8+86zxEvOPibauIz6x4BKj7Q0bNqgHL16AMHeHuT2ozHBPYO4C6lG8OOBaqPvFxiipyzVd1LqaL+d+qdS7WKyq1xWhbKh9oX7r06ePWgOFOmGhKtbu4KUM6mS46UG5WOyJNPGjifLGm2+oRbLdunVT+2CQAtN4LFrFPoyYMYrD/f7RRx+pOiCjvzqrQhLoP7vvWSsR7rJ767U1D3/79fFk/dSL5sz1xwM13Ic01ESRTtiGOnltrrv3d6wNwRYo+TsODpG0JdDEd6D6uPUYHlRYmAkjizmG6s8sKPAGXKJ4CZ/rTqwusLSa76u5X6lR7eOPP+5ZvQ91K9zRBEt4u587d656+OpFnDgHQgJC5r777lMPZ12O1YWvmDODUPjPQ/8xFsV2Uqd36NBBjcK1JwFdpv6E+fubhpDAi5gWElALT5gwQQmJtwxPBTphJA2VLawhtXdmf3XW5yTSp93P52DlZTcPvTQInORrvz7OTxIgAfsIYF4Kb7Z4qGFkCbPPb7/9Vq2e9zUqDLTAEm/dWCQJ4WM1X9rKCwsymxkPfXPCm+uqVRfm5cz7rXxHvSEIoVozJ/z23udr4StGSEjwnqATRiFQb0Kt6p0gVJ793/+kqzFiMM+rwa8b/Ju1atkqwylQ12KDhwUtKPzVOcOJCfLDzucz7rtg5blmjiJB+ldVA8NmJhLQBLBCf7xhVYeHPOatlny3RK3twVuvrwR1jpUFllbzwbwZD2HvkWakI0QIPW1CbW6HlYWvUOf6qpMvIQEVGebZ4ENs8L2DzZcSeFZAmjZ9mkDFZU64hvd6Jn91Np/nxu8UFHHodSsBlOJQLV4yTgSg7qtl+AmDCgeCYu5Xc5U/Ln+eezGX4Gvtj/cCS6v5MILxZYLrazQTCiLzinx9ntWFr6i71etDTQWjC5iIw6PzwIED9eXUvAt+1K1b16fQ8uboq86ewlz8hYLCxZ3PpicOAViovWR4CYB/rO+//97jbNJXDaEm0Ispzcf1Pv0WbzUf3MmcOHFCqbzMK/R1eeZrRPrd6sJXzNvBwOT4seNBDSuwMvull15SLnUQPrhhw4aexX+lU0qrKsMXGs21w+8916yjCB8RzySB6BOA9U4Ow8T69ddfV7p97RLe15WtLrC0mg8PUSTMaZgTBJbVBBNxzEkES1YXvtasUVMVtfi7xRmKhJm6twk56g/zcpgYQ0jCfb9e9Fq9RnU1WsIkujmhrtOnT1frjsz7+d03AdcICsSfhh033pyYYk8A6g3whw8tpswEYOqKxZ9LDEeUmOyFrtxfsrrA0mo+uK3HgxZrFmCphBgkb7/9tke/768eej8e1OhfqM6g/gmUrC58xQireLHiSnDCOSdMOGFSDG8BvXr28nkJWC5i0Sm8Cjz77LMqD8zEIXQhBKH2gskw1opgBIJ1QsGsfXxeyIU7XaN6gvUG/MJAf+m9fsCF/R7zJmPdCPhjgpJ+eXzjx6Q2BCnMQAMlqwssrebDpPXTTz0tL7z4glpHgfkKuOOHWw4snDx95oLjSH91QowUCAk8nPFGDx9W/pLVha+NLmsko14fpUYHmKjGCADzCZjD8bemA9eEuxpYMcEUFvXA9bA+A5PWWBQKYQihWLFiRdU+c9gBf3XmfoOA0QGZkmEtkWmf1R2G/bXVrDHNZ9hen0fdDL1rTK/Li10gYKgcFH/D22dCIUnU+9UqpKNHjpw3LHvOG4I44ClW8xkWROfRV+EkPDeC1UOXa5hknj929Jj+qT5xrjHiz7APP1AfwzXNeWOxXqZjoe5A+3xdI9Ry4pnf7nvWGKUFbY5rRhR8KyABJxKASau3WauvdlrNp70J+yoj2L5gtvjm80NZ+AqTWD2PYi4jnO+RtC+c6znlHMcICkxWQa8KXSYcrWGxEFZnensvxaQbfDTB4ynceWBZ/wP3P5BhRbJV/zhwR4BVolgchHMwhEcEt0FGsCPzHy/0vhj2ws0Bro/hMSwzevXKqGuF7hTlIZ8h4tXweOAdAw3TyVoB7zdYekBlgYlQ+N6BPhZuOOAOAddAeFW4i0DAJgy54QPHbHpptR2oBKxWZs6cKfANhOE87PkHDRqUoTxMWCLOB/ztwMQRIWLhjoKJBEggOQk4YjIbD+rBgwcr/feguwcptwiYuIJA8E4IdAJdJ2JdQ5D8bDzMoJvVCZNdsKzAw/2WvreoyTE8/McYOk88/MwJD0hYTmCy7H9YFdqlq3xtuBEYaLg+wIMeCeXBDw0WBWESDhHzIFCgK4VeVye4mobLBDyAb7zhRuXDB5Nydw+6O5M1ij5Hf2Jl5QbDJw6ERHnDNTp0tGgjBAf8ScGVAyYHYVkDYQQG5mSlHcivXSfA9fiTTz4pAwYMUOact912m5oA1WXiGBaPQVBBzw2hhH1MJEACyUnAESMKOAmD3bU5KFHRIkWV35eVaSszvJHDMuLf//636i1Mqm4xHIRB0ODBjrdfq/5xYEWFMKF4yGLCDKlx48bKwRgEDx6UECCISY2wpfBMiVEOElw2wH20NuHDvtGjR6tJNjgw05PtcHEOh2jvvvtuhljfyG9OqDfEEkZPeGgjwYcQ7MbhsG22MYmsRzgQXHBboJPVduA8eN809KNqFaw+v17desrz7rjx45TXUAjEpYajuI6dOnnqAidxaF+g+Nu6PH6SAAkkHoGkH1HA3BVui/GQNq/k7N2nt8w33u691TYtW7TM0AtQU0EdhLd3pED+cZBPP+x0sB68pZtT69at1E8djAZeZZEwesCbv05wBw6PnUhQ1cAqC142tZDAfix+wkN2heGvBuaHwRIWHukEQYSEt38tJPAbOlosZNJmwlbbAYGH81q3bo1iPAmrissbq2I1F3xCaCEqmjl5n2c+xu8kQAKJTSDpRxR4g0XC6lJzgtAwrzLVx+rUqaO/qk/tNRZCAMmqfxy4Bod6x3sOBA9lTL6hHCT4w7/uuutkiuHMDG/vmJ/AyAKjDe1LZ8cfO1ReqIWg9jInCDA8ePfu2ZthHsWcR39HLACddNu9I9Tp/X/93V6r7di1e5cqGs7mvBPiF2B0haTbXahwxsh2dnrI9b4+f5MACUSXQNILCv2mDdtoKylL1n/iZfvKH4p/HAgKXwl1QTk6wRYd6imsI4D//rcMNQzUSdDfQ2CcPXchL3T5/uy6L7r4Il2c309fDHztMxcAflbagQlvJC1ozGXgGlrQ6v7wLtM82jOfy+8kQAKJT8D3ky7x6+2pofZrAw+YdiSr/nHwhgyVEVQ4ZnWRVut4v3mjnphkxoaRAyLtvfLKK2qCuczfaiIsRjO7SLajPcHKsNoObVboayUrRj16dIS5ISStytPX1yMN/ZufJEACyUPA2mt4ArcHrg7wUIYppjnBlTFWjOINPpRk1T9OrdQLah6EgTSn75de8I+jQzDCbBcWWOaEY5h7OG5Mcp84fkLNIWCuZKWh38cKZnNCXAJvPzXm45F+t9qO1Jqpag4InjrNCQIBbhW0iqtsubLqMOIAmFOo/WA+l99JgATiSyDpBQXwYWIYXjcR8xdWTAu/WShjjDUVmNDFAzmUZNU/DsxNIaBgMooHOUYW+IQ/Gviogf8cJDz4XzdMYbF/3bp1SoePuQqY0VYy1iDokKOYmzhulIGY2/C1g7mXyZMnC6KO6YnxUNphNa/VdmDSuo0RqvNLIxLbrJmzVDhVsIbZK9qoR0KYA8LiqGnTpql+wEgCE/mI/xxY6We1xsxHAiQQawJJr3oCMJiRQocOU9DPP/9cMYSfG8wBhKobx3mvvvqqWoMBAYSEyWk8UGEKqxNCoGKdAvzbYA0HHpbQ1WPNBeJNaF0+LJluNUxWJ06c6PGBgwfmpcb+Bx94UBen/Pv8de4veWvMW4IwmEhQV2EiXD+EPZlt/GK1HbgkfO5AzfbK8Ffk+ReeVw/+MoZQgFky4gHohPUcMAd+7PHHPHngEBCmu3oOQ+flJwmQQOITyGK88cGoxraEhzbemOOVdGQsb2ukcOpz7OhROWys3oZ+PpDAwcNv165dKp8WEN7XO3f2nPy5709lYop5AW1t5Z0Pv5Wlk7Guw442+Crf3z4r7cC5WHOyM32nWv2tR0S+ysTaCwjPRA4GAwu0eN6vvrhxHwkEIoB7Fp4W7Eow2w/krRjXcVzMbO9J5EhgwtTVvAbBX1kQDsF80eDN3Wrd4H4jHslKO1AvCE2oooKlWAu6YPXhcRJwCoFQ/GoFazMERbDyHDFHEQwEj5MACZAACYRPgIIifHY8kwRIgARcQYCCwhXdzEaSAAmQQPgEomL1pJ3fhV8tnkkCsSPA+zV2rHml5CRgu6DwZUGC1bzBJktCwZfo5SEmBuI+2JUSvb2JXj/2R2R3ot39y/6IvD8iKyH0s6l6Cp0ZzyABEiABVxGgoHBVd7OxJEACJBA6AQqK0JnxDBIgARJwFQEKCld1NxtLAiRAAqEToKAInRnPIAESIAFXEaCgcFV3s7EkQAIkEDoBCorQmfEMEiABEnAVAQoKV3U3G0sCJEACoROgoAidGc8gARIgAVcRoKBwVXezsSRAAiQQOgEKitCZ8QwSIAEScBUBCgpXdTcbSwIkQAKhE6CgCJ0ZzyABEiABVxGwPWa2q+j5aayVGLR+TuXuCAkcP35ctm/fLjt37pQ9u/fIvv37xIgLL9iPfjl58qTaTp8+LX+dOycIGJ/F2LJmyyYXX3yximWOeOb58uVTsb4RlrZI4SJSomQJKVWqlAp5mzt37ghr6e7T+feRWP1vpT9iEjPbbjfFiV4ewLvJrXq8+mP/vv2SlpYmq39fLevXr5ctW7YoYZCSkiLYSpYsKZUrVZbGjRtL4cKFpWCBgpI3X17Bgz5HjhyCGOGI/33+/Hk5c+aMnDp1SgmUo0eOysFDB2X//v3y594/Zfee3bJs2TJJT09XG4QI3MhXrlxZataoKbVr15bCRQqH/dcfL35WK2x3/fj3YZW873zx6A/b41H4bhr3kkDkBI4cOSLff/+9/Pzzz7JixQrZt2+fVKtWTapXqy4dO3aUqlWrStmyZUO+EIQFRhPYIARKlCgRsIxt27bJunXrZN3adfLZ1M/kuaHPSZEiRaROnTrSoEEDJZhQDhMJOIUABYVTetKh7UjfkS4LFy6UJUuXKOFQv3599TDu0qWL1KxZMy6thjDC1rZtW8/1V69erUYds2bNkmeffVaNMpo0aSKtW7WWlNIpnnz8QgLJSICCIhl7zeF1xnzC5MmTZcGCBYJoaM2aNZNru3eXV155RamLAjU/FmFNfUVxhNDCdssttyg11uJFi2TR4sUyfvx4paZq3bq1dOzQQfLkzRuo+jxGAglJgIIiIbvFnZWCSmnmzJny9ddfK+HQo0cPufLKK0OG4etBHnIhfk6wIogw99G6TRu1oZj58+erbdSoUdLG2N+5c2c1KvJzCe4mgYQjQEGRcF3ivgrNmjlLps+YriaiOxhv3dOmTZNChQo5BgSEHbYDBw7IjBkzZNiwYZI/f37p2qWrdOrcyTHtZEOcS4CCwrl9m/Atg3ppypQpykKsZ8+eGXT+CV/5MCoI4de3b1+1zZs3TwnE8RPGq4l4qKyYSCBRCVBQJGrPOLheGDFMnDhRSpcuLUOGDJHLL7/cwa313TRMhGP74YcfZNKkSYJJ8N69e0t3Yy6GiQQSjQAFRaL1iIPrg7mD999/Xy1qGzx4sMAqyO0JQhLb0qVLZcKECWqOpl+/fmJlLsTt7Nj+2BGgoIgda9deCSaub7z5hloU179/f2nfvr1rWfhrOIQmti+++EIw6T137ly56867aFrrDxj3x5QAfT3FFLf7Loa35BtuvEG5vvj4448pJILcApjMB6cyZcoobuDHRALxJsARRbx7wKHX37x5swwfPly1bsyYMWrVtEObGpVmDRw4ULD2AqOLH3/8Uc3lVKhQISrXYqEkEIwARxTBCPF4yARgyQQVU8OGDWXEiBEUEiETvHACXJKAHziCJ7gykUA8CHBEEQ/qDr0mnOvBfQVWU78+6nVJrZXq0JbGtlkwnW1waQN56eWXBK5CHnvsMeXMUNdiyZIl8tNPPyn/Uzt27JCDBw/KX3/9JVmzZhV4v4V1GXxiQeA0bdpUn8ZPErBMgILCMipmDEQA3lufe+45qVKlirz33nuBsvJYGAQgdMEVjG+99VYZNGiQMq2dPXu2cn8OIXDDDTcodyHwXIzV4fCIC0+jENwrV65UFmdDhw5V6zb69OmjhEgYVeEpLiRAQeHCTre7yXijfd3Qpffr11/63NDH7uJZnonAI488Io8//rjcd999ah3Gq8NflUqVK5ly/PMVwgIxNLDBXxbSxg0bZfKnk+X666+XW/vfyv76Bxe/BSBAQREADg8FJ4DV1WPHjpXHjIcXbf+D84okB9RJTzzxhIqTMXr0aKlevXrIxUGo/Oc//5Fu3bqp+Y9Vq1fJ008/rdRUIRfGE1xDgJPZrulq+xsKAfHpp5+qBw6FhP18zSVCSNx7772S1/A++8Ybb4QlJMzlQcigHJSHclE+Ewn4I0BB4Y8M9wckAGscrCYeOXKkmigNmJkHIyaAkQQmpTEasDOhPJSL8plIwB8Bxsz2RyaC/VZi0EZQfNxPfffdd2Xjxo3y0ksvqYhwca+QqQIY2UTbzXg0yzc1xfMV6j24Xn/zzTc9++z+cuedd6rIfHCBHu3k9L+PaPOzu3wr/cGY2Qb1eMSgDaWz7a5fJOXB7BVWNK+++qrkypUrlGYwbxgEYHKM4EfPPPNMGGdbP+Wuu+5SZrfwbovQsOYUyf1iLkd/Z8xsTSK8z3j0B1VP4fWVK8/CSGLZz8tUPAUKidjcAtOnT1eqvbp160b1gigf8xa4HhMJeBOgoPAmwt8+CXz22WfKYR3s8PPly+czD3faTwCmx61atrK/YB8l4jq4HhMJeBOgoPAmwt+ZCCw2Yj/DHBNmlCVLlsx0nDuiR2DdunVSt150RxO69rgOrsdEAt4EuI7Cmwh/ZyCwbds2tRr4YcM6pkaNGhmOJeoPJ5nq7t+3T1klxYI1rJ9wPSYS8CZAQeFNhL8zEPjf//4nvXr1ktZt2mTYn6g/Ym2RlKgcWC8SsJMAVU920nRYWcOGDVOqJljCMMWHQOEiRQSO/mKRcB1cj4kEvAlQUHgT4W9FYM6cObJs2TKBbyGm+BGAq/Hffv0tJhXAdXA9JhLwJkBB4U2Ev+XAgQMqYA7iWufIkYNE4kgAbsG/WfhNTGqA69ANeUxQJ91FKCiSrsuiX2FEpmvXrp2K4Rz9q/EKgQh07dpV1q5dK7/9Ft1RBcpfs2aN4HpMJOBNgILCm4jLf8+dO1e557jnnntcTiIxmo9V0jfffLMyT45mjWD+jABJ3quyo3lNlp08BCgokqevYlJTeIRFvGamxCGA2BFFjEnm559/PiqVQrkoH9dhIgFfBCgofFFx6b63335buYto0aKFSwkkbrOx2BFWSXYLC5SHclE+Ewn4I0BB4Y+My/bv2bNHPvzwQ7n99ttd1vLkaC7iX7/22mty9OhR+b//+z81nxBJzTEfgXJQHspF+Uwk4I8AF9z5I+Oy/e+//76ayCxXrpzLWp48zcXD/Nlnn5VJEyepmNlXXnmlXH/d9X5DofpqGUKhTvhwgixcuFAG3D6AoVB9QeK+TAQoKDIhcd+OP/74Qzn8g+M/psQn0LtPb2nfob1MnDhRBg8ZrGJiN2zYUFJTU6VixYpStGhRQbzsM2fOKBf6cAu/atUqtS5m586dAgED9+XNWzRP/MayhglBgIIiIbohvpWYNGmSiqFcqFCh+FaEV7dMoGDBgoIYEti+++47JQQ++ugjNd9w8OBBFdoUIxDkgw8nLKTDCvtmzZqpa8C6Cf1+//33W74mM7qXAAWFe/tetfzQoUPy+eefyyeffOJyEsnbfDz8tQDQrUAM7EDzDr1795aePXvKgAEDpECBAvo0fpKATwKcwfKJxT07p0yZIm3btpUSJUq4p9EuaGkgIYHmo7+hgkL/M5FAMAJZjNjH54Nl4vHQCOTMkVNOnjoZ2klxyv3A/Q/IE08+IdGOoBan5vGyAQhgNfbTTz0tw14aFiCX/YeS6e/D/tYnXolW+iM7Jr+8k90xWd1WHiYPfXH15mz1d7T4wSV3ocKFKCSsdoTD8uHloHCRwmpeI1AMD7vvv2T5+7Cru+3mZ3d5VvqDqie77oYkLAfuOtpe2TYJa84q20UAakfcB0wkEIgABUUgOg4+dvr0acGI4ur2Vzu4lWxaMAJw/oj7APcDEwn4I0BB4Y+Mw/cvWLBA6tevLzSJdXhHB2ke+r9evXqC+4GJBPwRoKDwR8bh+2F7z9gDDu9ki82Dae2SJUss5mY2NxKgoHBjrxtt/vnnn6VZ0wuLr1yKgM3+mwDuA0QzZCIBfwQoKPyRcfB+OISDyiGldIqDW8mmWSWA+wD3w4oVK6yewnwuI0BB4bIOR3NXrlwpderUcWHL2WR/BGrXri3Lly/3d5j7XU6AgsKFN8C6desoKFzY74GajDUVcBzIRAK+CFBQ+KLi8H3GanzladThzWTzQiAAz7N4gWAiAV8EKCh8UXHwvr179yqb+UsuucTBrWTTQiWA+wFrKXB/MJGANwEKCm8iDv+9YcMGKV++vMNbyeaFQwD3Be4PJhLwJkBB4U3E4b+3btkqHE04vJPDbF6ZMmUE9wcTCXgToKDwJuLw3zvSd6hANg5vJpsXBgEEOErfmR7GmTzF6QQoKJzew17t27Nnjwqd6bWbP0lA3Re7d+8mCRLIRICCIhMSZ+/Yt2+fFCtWzNmNZOvCIoD7Yv/+/WGdy5OcTYCCwtn9m6l1hw8fpiPATFS4AwSwOhvxtplIwJsABYU3EYf/Pnr0KGMkO7yPw20eYmcfO3Ys3NN5noMJUFA4uHN9Ne3UqVOSK1cuX4e4z+UEcF/g/mAiAW8C2RFWz1fyt99XXiv7WJ4VSv7z2MXvjLGoKkeOHP4vxCOuJYD7AveHr3vN175IQLG8SOiJzz6KpMRg/ZG9aNGimcrHSb72Z8pocYfbysM8QKLyO2/0WZYsWSz2HLO5iQDuC9wf3veu3X+/ifz3gf62u72JXp6V/qDqyU1PAqOtEBHnz+NxwEQCGQngvuArREYm/HWBAAWFy+6Eiy6+mHpol/W51eZifgL3BxMJeBOgoPAm4vDf0EOfOHHC4a1k88IhgPuC81fhkHP+ORQUzu/jDC3MmzevHDp0KMM+/iABEMB9gfuDiQS8CVBQeBNx+G/Yyh84cMDhrWTzwiGA+0I8/54AAEAASURBVAL3BxMJeBOgoPAm4vDfhQsXZswBh/dxuM1DLIoiRYqEezrPczABCgoHd66vppUoUUJ27tzp6xD3uZwA7ovixYu7nAKb74sABYUvKg7el1IqRf744w8Ht5BNC5fAjh07BPcHEwl4E6Cg8Cbi8N/lypeT7du3O7yVbF44BHBf4P5gIgFvAhQU3kQc/rty5cqydSujmDm8m8NqHu4L3B9MJOBNgILCm4jDfyPmwMXGoiqOKhze0SE2D/cD7gvGKgkRnEuyU1C4pKPNzaxUqZKsWrXKvIvfXU4A90PVqlVdToHN90eAgsIfGQfvxwPht99+c3AL2bRQCaxYsUJSU1NDPY35XUKAgsIlHW1uZq1atSQtLc28i99dTgCCon79+i6nwOb7I0BB4Y+Mg/dXr15drc5O35Hu4FayaVYJ4D7Aquw6depYPYX5XEaAgsJlHa6b26BBA1n83WL9k58uJvDdku8E9wMTCfgjQEHhj4zD9zdr1kyWLl3q8FayeVYILFmyRHA/MJGAPwIUFP7IOHx/69atZfny5XQQ6PB+DtY8qJxwH+B+YCIBfwSyGI7AGO7MH50w9yO0YP78+cM8O3anvfzyy1KvXj3p1atX7C7KKyUUgUkTJ8mvv/0q999/f8zqlSx/HzEDEucLWekPxsw2OsnumLZWYtCGcm/YXT9dXseOHeWDDz6goAilMxyWd978edK3b99McbLNzdT3i3lfJN+T5e8jkjaaz7Wbn93lWekPqp7MPeqy782bN1fBarimwmUd/3dz0e8IVoT7gIkEAhGgoAhExwXHOnToINOnT3dBS9lEbwIzZswQ9D8TCQQjQEERjJDDj/fo0UPmz58vu3fvdnhL2TwzAfT3vHnzBP3PRALBCFBQBCPk8OMIfXnNNdfIpEmTHN5SNs9MAP2NfmfoUzMVfvdHgILCHxkX7e/du7dMmzaNprIu6XOYxKK/0e9MJGCFAAWFFUoOz1OmTBmBBdT777/v8JayeSCAfsbcBPqdiQSsEKCgsELJBXlgIolJbQY1cnZno3/Rz/369XN2Q9k6WwlQUNiKM3kLK168uNxwww0yduzY5G0Eax6UAPr3xhtvFPQ3EwlYJUBBYZWUC/LdcccdsnbtWvn2229d0Fr3NRH9iv4dMGCA+xrPFkdEgIIiInzOOxkPkbfeest5DWOLVL/efvvtJEECIROgoAgZmbNPuOqqqwShUkeMGOHshrqsdehP9Gu7du1c1nI21w4CFBR2UHRYGUOGDJG5c+fSDblD+hXu5NGf6FcmEgiHAAVFONQcfk6hQoVk0KBB8uqrr8qpU6cc3lpnNw/9h368++67Bf3KRALhEKCgCIeaC865+uqrpVGjRvK///3PBa11bhPRfw0bNpT27ds7t5FsWdQJUFBEHXHyXgAxCuATCK7ImZKPAPoN/ffAAw8kX+VZ44QiQEGRUN2ReJV59NFH5eOPP5YFX3+deJVjjfwSQH+h39B/TCQQKQEKikgJOvz8smXLyiOPPCJDn39efv/9d4e31hnNQz+hv9Bv6D8mEoiUAAVFpARdcP4VV1whAwcOlCeeeEJ27drlghYnbxPRP48//rjceeedgn5jIgE7CDBmth0UvcqwEoPW65Sk+PnxpI/lp2U/yciRIyVfvnxJUWc3VfLIkSNyzz33SKOGjaRnr54J23Sn/n0kLPAgFbPSH1nOG8m7HLtjsrqtvE2bNknFihW9sYb9O5H4QUisWrVKhg8fLrly5Qq7TTzRXgInTpxQ6yRq16otvXr3ChgDO9Qr233/Ofnvwxdbu/nZXZ6V/qDqyVfPcp9fAlhfUb16dfVQwhssU/wJoB+wmA798q+7/xX/CrEGjiNAQeG4Lo1+gwYPHiypqamCzz179kT/gryCXwLgj36oWbOm+vSbkQdIIAICFBQRwHPzqRhZNG7cWK3ghkdSptgTAHf0Q5MmTdTcROxrwCu6hQAFhVt6OgrthKfZ6667Tj2kFi1aFIUrsEh/BMD73nvvVfzpEdYfJe63i0B2uwpiOe4kcP3110uunLnk2Weekf79b5XefRiHOdp3wsSPJhrhTN+Thx9+RFq1bhXty7F8EhAKCt4EERNo3KSxVKteTZ577jnZtHmTWugVcaEswCcBMF6/fr2Mev11qVKlis883EkCdhOg6sluoi4tDw+td999V86dO2eMLPrLqpWrXEoiOs0GT3AFX3CmkIgOZ5bqmwAFhW8u3BsGgSxZsqhVwZ07d1ZmmuPGjQujFJ7iTQAcYfbaqVMnxRecmUgglgSoeoolbZdcq0ePHnLppZeqRXnLli1TsRCqVq3qktbb18x169bJqFGjVIHvvfeeVKhQwb7CWRIJhECAI4oQYDGrdQJ4qCH85mWXXSZ33HEH43BbR6dyIm45uIEfOFJIhAiQ2W0lQEFhK04W5k3gpptuko8+/Ej++OMP6dWrl3zxxRfeWfjbRGDOnDmK0/bt2xU38GMigXgToOop3j3gguunlE6RZwzzWdj+Q4Uyc+ZMwQMQC8WYLhBAXOsPP/xQ4LMJYUubN29ONCSQMAQoKBKmK5xfETz8sE2dOlXFcf7000+lZ8+ecvnllzu/8X5a+MMPP8ikSZMkPT1d+vTpI926dfOTk7tJIH4EKCjix961V+7evbtgmzx5sprwLlq0qHpAtm3b1jVM5s2bJ9OmTRN4AkU8a3jjZSKBRCVAQZGoPeOCemFVN7bZs2fLJ598ImPHjpUOHTpIly5dpFChQo4jcODAAZkxY4aap8mfP7907dJVOnXupISF4xrLBjmKAAWFo7ozORvTsWNHwfbzzz/LrFmz1OgC0dnatGkjV155ZXI2ylTr+fPnC7bvvvtOtemBBx6QBg0amHLwKwkkNgEKisTuH1fVDg9PbP369ZMff/xRpkyZIsOGDZOmTZtKc0NwXGHMb1x00UUJz+TMmTOy2Ji4X2wIBggHBLFq3bq1PGrEsM6TN2/C158VJAFvAhQU3kT4O+4EcufOrbyiwjNt+o50WfDNAvnMmAD/71NPqYV8WMwHgYIYDImSVq9eLVhc+Msvv8jy5culTp06yg37bbfeJrD6YiKBZCbAmNlR6D0rMWijcFnHF3ns2DH1IE5LSxM8mKHzr1atmlSramyGU0Ks/i5btmzUOWzbtk2wanrtmrWydp2xGXEhMKcCwVW7dm0lzPLkyRP1eiTrBfj3kVg9Z6U/GDPb6LN4xKAN5Vaxu35OKW//vv2ihMbvq5VH1S1btghu+pSUFCldurSUKFFCShQvIUWLFZXChQtLwQIFJW++vIIRS44cOZQaC36TEDYe6qJTp07J8ePH5eiRo3Lw0EHZv3+//Ln3T9m9Z7fs2rVLdu7cKTt27JB8+fKpldJwzFezxgXhULhI4VC6NENep/RHhkYF+GElRnOA0zMdchs/u9trpT+oesp023FHshDAw7llq5Zq03U+dvSobNmyVbb/sV092Ldu2ypLv18qJ0+eVEIEC9pOGtup06flL8MT63njRLjYy5otm+S4+GLJmSuX5DI2WCUVLFhQihQpIsWKFVPxqC8pc4mUL19OThhlwaSXiQTcQoCCwi097ZJ2YrI4tVaq2nSTA70xYTQRqjdWCAomEnATAfp6clNvs62ZCIQqJDIVwB0k4AICFBQu6GQ2kQRIgAQiIUBBEQk9nksCJEACLiBAQeGCTmYTSYAESCASAhQUkdDjuSRAAiTgAgIUFC7oZDaRBEiABCIhQEERCT2eSwIkQAIuIEBB4YJOZhNJgARIIBICFBSR0OO5JEACJOACAhQULuhkNpEESIAEIiFAQREJPZ5LAiRAAi4gQEHhgk5mE0mABEggEgIUFJHQ47kkQAIk4AICFBQu6GQ2kQRIgAQiIUBBEQk9nksCJEACLiBAQeGCTmYTSYAESCASAlk2btyIIF9MNhLImSOnnDzF4DY2Io2oKPZHRPhsP5n9YTvSiAq00h+MmW0gjkcM2lB61u76ua28QBHuQukHnddt/OxuL/tD30nhfcajP6h6Cq+veBYJkAAJuIYABYVrupoNJQESIIHwCFBQhMeNZ5EACZCAawhQULimq+1vaN++faVDhw72FxzHEp3YJo3TyW3TbeRndAhkj06xLNUNBPLnzy/YnJSc2CbdP05um24jP6NDgCOK6HBlqSRAAiTgGAIUFI7pSjaEBEiABKJDgIIiOlxZKgmQAAk4hgAFhWO6kg0hARIggegQoKCIDleWSgIkQAKOIUBB4ZiuZENIgARIIDoEKCiiw5WlkgAJkIBjCFBQOKYr2RASIAESiA4BCorocGWpJEACJOAYAhQUjulKNoQESIAEokOAgiI6XFkqCZAACTiGAAWFY7qSDSEBEiCB6BCgU8DocGWpCUigefPmlmsVLO+iRYssl8WMJJDsBLIjrJ6v5G+/r7xW9rE8K5T85yE//2ysHNH87HjAQ4jo8qxc20qeWJYXzrXCOSdQu1leIDrBj8WaX/aiRYtmqhUq4Wt/powWd7itvMOHD7uKH26DRL5f7O6PRG9vsL+3UPsqWHkWHwOebHb3h931c1t5VvqDcxSe25dfSIAESIAEfBGgoPBFhftIgARIgAQ8BCgoPCj4hQRIgARIwBcBCgpfVLiPBEiABEjAQ4CCwoOCX0iABEiABHwRoKDwRYX7SIAESIAEPAQoKDwo+IUESIAESMAXAQoKX1S4jwRIgARIwEOAgsKDgl9IgARIgAR8EaCg8EWF+0iABEiABDwEKCg8KPiFBEiABEjAFwEKCl9UuI8ESIAESMBDgILCg4JfSIAESIAEfBGgoPBFhftIgARIgAQ8BCgoPCj4hQRIgARIwBcBCgpfVLiPBEiABEjAQ4CCwoOCX0iABEiABHwRoKDwRYX7SIAESIAEPAQYM/tvFAh/aGdieZHRjBY/xLu2I0WrfnbUDWUEql+gY/6uH845/soKVr9A5/k7xvr5I2NtfzB+jJltcASkUOMIB8JvJQZtoPO9j9ldP7vLQ33t5Gd3/XR/LFq0yBttpt+DBg1S+0aOHJnpmN5hd/1iXV6ofWV3/XR/aJ6RftpdP7eVZ6U/qHqK9C7l+SRAAiTgcAIUFA7vYDaPBEiABCIlQEERKUGeTwIkQAIOJ0BB4fAOZvNIgARIIFICFBSREuT5JEACJOBwAhQUDu9gNo8ESIAEIiVAQREpQZ5PAiRAAg4nQEHh8A5m80iABEggUgIUFJES5PkkQAIk4HACFBQO72A2jwRIgAQiJUBBESlBnk8CJEACDidAQeHwDmbzSIAESCBSAhQUkRLk+SRAAiTgcAIUFA7vYDaPBEiABCIlQEERKUGeTwIkQAIOJ0BB4fAOZvNIgARIIFICFBSREuT5JEACJOBwAhQUDu9gNo8ESIAEIiXAmNl/E0T4QzsTy4uMZrz5Bbt+sOOhtj6W5YVzrXDOCcSA5QWiE/xYrPkxZrbRJ4AeahzhQF1pJQZtoPO9j9ldP7vLQ33t5Gd3/cLpj0Dtsbt+sS4vUNu87z38trt+4fSHr3rpfXbXz23lWemP7Bo2P0nATKB58+bmnwG/d+/ePeDxRYsWBTzOgyRAAolNgIIisfsnrrWz4wEfisCJa2N5cRIgAb8EOJntFw0PkAAJkAAJgAAFBe8DEiABEiCBgAQoKALi4UESIAESIAEKCt4DJEACJEACAQlQUATEw4MkQAIkQAIUFLwHSIAESIAEAhKgoAiIhwdJgARIgAQoKHgPkAAJkAAJBCRAQREQDw+SAAmQAAlQUPAeIAESIAESCEiAgiIgHh4kARIgARKgoOA9QAIkQAIkEJAABUVAPDxIAiRAAiRAQcF7gARIgARIICABCoqAeHiQBEiABEiAgoL3AAmQAAmQQEACjJn9Nx6EP7Qzua28QOzCYRHOOXbWIdj1gx0PVBdfx2JZXjjXCuccX+3U+1ieJhHeZ6z5MWa20U+AHmoc4UDdayUGbaDzvY/ZXT+7y/Our/fvUNnaXb9w+iNQne2uX6zLC9Q2777Db7vrF05/+KqX3md3/dxWnpX+oOpJ3238JAESIAES8EmAMbN9YuFOEGC8a94HJEACIEBBwfvAJ4FFixb53G/eOWjQIPXzySeftFV1Z74Gv5MACcSfAFVP8e8D1oAESIAEEpoABUVCdw8rRwIkQALxJ0BBEf8+YA1IgARIIKEJUFAkdPewciRAAiQQfwIUFPHvA9aABEiABBKaAK2eErp7WDkSsEYgFFPmYHmtWLxZqxVzOYUABYVTepLtcD0BOx7wwYSI6yG7FABVTy7teDabBEiABKwSoKCwSor5SIAESMClBCgoXNrxbDYJkAAJWCVAQWGVFPORAAmQgEsJUFC4tOPZbBIgARKwSoCCwiop5iMBEiABlxKgoHBpx7PZJEACJGCVAAWFVVLMRwIkQAIuJZB906ZNPpuO8Hh2JjeVlzNHTvHHNVymicwPdUvk+oXTH8H6L5HbG+49ps/z1XY72xtOf+i6+fu0s364hpvKs9If2StWrJiJvdtixtrdXvyh+eKaCbTFHXbXz+7y8ufPb2vgIrvrF05/BOo/u+tnd3kWbyu/2bzbbnf9wukPv5U1DthdP7eVZ6U/qHoKdAfyGAmQAAmQgFBQ8CYgARIgARIISICCIiAeHiQBEiABEqCg4D1AAiRAAiQQkAAFRUA8PEgCJEACJEBBwXuABEiABEggIAEKioB4eJAESIAESICCgvcACZAACZBAQAIUFAHx8CAJkAAJkABjZvMeIAGHEGC8a4d0ZAI2g4IiATuFVSKBUAksWrTIc4o/FxSDBg1SeUaOHOnJyy8kYIUAVU9WKDEPCZAACbiYAAWFizufTScBEiABKwQoKKxQYh4SIAEScDEBCgoXdz6bTgIkQAJWCFBQWKHEPCRAAiTgYgK0enJx50fadEQB27NnT6TFJNT5TmyTBuzktuk28jM6BCgoosPVFaV+8MEHqp0wx3RK0m1ySnvM7XBy28zt5Hf7CWTZu3fvefuLdXeJeHNDeFCmxCDA/kiMftC1YH9oEonxaaU/shctWjRTbf0t2MmU0eIOt5UH8L64WsSVKZvb+NndXvZHplsqpB3sj5BwZcpsNz+7y7Py98HJ7Ezdyh0kQAIkQAJmAhQUZhr8TgIkQAIkkIkABUUmJNxBAiRAAiRgJkBBYabB7yRAAiRAApkIUFBkQsIdJEACJEACZgIUFGYa/E4CJEACJJCJAAVFJiTcQQIkQAIkYCZAQWGmwe8kQAIkQAKZCFBQZELCHSRAAiRAAmYCFBRmGvxOAiRAAiSQiQAFRSYk3EECJEACJGAmQEFhpsHvJEACJEACmQhQUGRCwh0kQAIkQAJmAhQUZhr8TgIkQAIkkIkABUUmJNxBAiRAAiRgJkBBYabB7yRAAiRAApkIUFBkQsIdJEACJEACZgIUFGYa/E4CJEACJJCJAGNmZ0IS+Q4rMWgjvwpLsEqA/WGVVGzysT9iw9nqVaz0B2NmGzTjEYPWaicin931c1t5+ENgDPNQ7riMee2+X9gfGfmG+ise/UHVU6i9xPwkQAIk4DICFBQu63A2lwRIgARCJUBBESox5icBEiABlxGgoHBZh7O5JEACJBAqAQqKUIkxPwmQAAm4jAAFhcs6nM0lARIggVAJUFCESoz5SYAESMBlBCgoXNbhbC4JkAAJhEoge6gnMD8JJCKB9B3pkr4zXfbs2aO2ffv2yaFDh9R24MABOXXqlJw8eVJ9njlzRs6ePSt//fWXZDEac97YsmbNKtmzZ5eLLrpIcuTIITlz5pS8efNKvnz51FaoUCEpUqSIFCtWTB2vUb2GpJROSUQUrBMJ2E6AgsJ2pCwwmgQ2btgo69avk00bN8nWbVtl+/btkp6eLkWLFJVixYupFdhYhV28eHGpXq26FChYQPLnz68e9rlz55ZcuXLJxRdfrDYIB50gNE6fPq22EydOyPHjx+XIkSOCVcSHDh6S/Qf2C4TPhg0blCD6c++f8ue+P6VUqVJStmxZKVe2nFSsVFGqVqkqlSpX0sXykwQcQYCCwhHd6MxG4CG9/JflsiJthfz++++ybt069UZfsWJFwXb11VdLhQoV1EM6W/ZsEUGA0MAoAhsEi5V07uw5Jaw2b94s2BYvXizjx49XgqRq1apSvXp1qVunrtS/tL7lMq1cl3lIINYEKChiTZzXC0jgl19+kYULF8rKlStlx44dkpqaKrVq1ZL+/fpLrdq11IggYAExPAjhpIWW+bIYkaxMWylpK9Nk+ozpMvT5oVK6dGlpcGkDadyksVx66aXm7PxOAglPgIIi4bvI+RX87rvv5JtvvpGlS5dKSkqKNGzYUO655x6pW7duUjYe6q1GlzVSm27Ab7/9Jj/++KOMHj1aqcqaNm0qLVu2lGbNmuks/CSBhCVAQZGwXePsikGNNHv2bFmwYIGUK1dOWrRoIXfccYdSLTmx5RB62AYMGCB79+5VgvHjjz+WF198UQmLbt26CdRVTCSQiAQoKBKxVxxcp3nz5snnn3+u9PhXXXWVesPGhLCbEiynrr/+erXt3LlTCcwnn3xSCckuXbpI27Zt3YSDbU0CAhQUSdBJTqji9OnTZfLkycoa6dru10rLVi2d0KyI2wAhedttt6lt4TcL1ZzG+++/L9ddd51glMFEAolAgIIiEXrBwXWYO3euTJgwQU3mPvjgg1KnTh0HtzaypkF4YluxYoVMnDhRPvvsM7n55psFIy8mEognAQqKeNJ38LWx3uHN0W+qRW733nuvNGjQwMGttbdpEKbYfv75Z3nvvffkyy+/lLvuvIvrM+zFzNJCIMCY2SHAspoV9v9WbfGtlplM+aZOnSrYMHHbvXt3S1UHM1gGNW/ePEN+rKjGGgesmHZrwshi7NixiqVVnonMyu1/H4nWN1b6I8t5I3lX3O6YrG4rb9OmTcq+3ptruL+ThR9WMj/77LPqwf7A/Q9I4SKFLTf5mWeekcqVKkufG/qoc2Z+PlM+GPeBnDt3Tm1woYG1FIkytwFTXiz2K1mypOU2RpJx/779MuylYcrtyGOPPaZWmvsrL9HvF7f+ffjrr1D3292/VvrjHx8GodaW+UnARGDt2rXKvBWrkYcOHRqSkPj1118F5/fq3UuViHmN1994XR555BGlp582bZr0veUWeW7oc7JlyxbTVeP3FXXavXt3zCoAoQuu4AszYvBiIoFYEeAcRaxIO/g6q1evlueff14tkmvfvn3ILX3nnXfkFkMQaN9L48aNUyai9evXV2VlyZJFWrdpI0UMH07FjE0n6O9hags/TZdddpncf//9yofTc889p1xnzJw1U3bt2iVNmjQRTKQjHT92XF4c9qJAOGXLmk2ZqPbu01sdu/HGG9XvMWPGyJQpU+T8X+fVqmq4DylYsKD06NFDOnToIKjvTz/9JOvXr5c777xT2rVrp+YSfNVFFWzjf/3791eLEocMGSJoZ7169WwsnUWRgG8CHFH45sK9FgngzRYPrIcefEjCERK4DIa+eFNGgmfXbdu2qYe72mH6DxO8eQyPrkiLFi2SWbNmyWuvvSYQLHAMOGnSJHUMOtdJH09SwgHWQ99//71nJDLm7TFy7Ngx5ZNp+KvDZcKHE2TVylXqvP379ysB8MYbbyifT1OnTZVs2bLJJ598Ig899JCMHDlS1Q/mrCVKlJD//ve/SkgEqosq2Ob/4OMKvB9++GGOLGxmy+J8E6Cg8M2Fey0QOHb0qHpYwt1GuHMHcAWOB3eZMmXUFeESHNNmejSBnbNmzlLCAALhmwXfqHxw+QH3F/ASC7fgMCGFKxCdYGWFOQQ4+cMnTE6R4LivU8dOauSBhz1GIt8u+lYdUyOX1q2lfPnygu8YYUAYHDXaqT3OYnThnYLVxTu/Hb/Be9CgQap+6AcmEogmAaqeoknX4WW/YLifgOuNjh07ht3SrVu3qoe9Vjth1TJ8JR08eNDjAHD3nt1qJTecBKalpUmr1q2Uy+8ffvhBlixZ4rk2Hvw6wfW3TrCYQvwJJAiiESNHqDkQfRxt0KlSpX9chMM8FYvfMKEOKza4Htfl6Pz4hPvxQHUx57XzO7hj9PXisGHy1FNP2Vk0yyKBDAQoKDLg4A+rBOCKA+qep59+2uopPvMhjgRGFTrhTR4jgG+//VZ69bowuX3rrbeqw3PmzJH58+er7wUKFFBuxvFW7SuhHF8JD3zMZcApn6+E4EU6YS6i5/U9lWDCvmuuuUYfyvAZrC4ZMtv8A3Mkt99+u6A/6PrDZrgszkOAqicPCn4JhcCHH34offv2DeUUn3lLpZRSb+ww+dMJ6y8++ugjWbZsmd6lRhRwIqjXp0A1hQllTE4jwVJKCxHPST6+YJ4DqiJtFY71CZgj8ZX27N6jAiHhGB7EGFEgSh4S5i7gThwp3Lqok234D/2A/mAigWgR+Of1KVpXYLmOI4A1BFAVeS+OC6ehePNHrIbNmzZ7HspwM37fkPvkrbfeUtZUiFWaNVtWNVner18/dZlOnTopy6Xre17vmd8Y+tzQoFW466675PHHH1ejFYQ6xdwIRjC+Esp+5tlnlLM+xJDo2bOnjBo1Sq2RueKKK1TdYK3VuXPnsOri65rh7EM/QEWGfoGFFxMJ2E2AC+4MovFYwBJKR9pdv0jLg2tszAfYMaIAhxkzZqhgRS+//HImLAhPCvNXTEr7Sjr+NeY1QkmYAM6ZM5cEi4yH60OY6ZXhiGqnz8GIwnzdcOsSSr395f3ggw/Uug6YAUfav97XsLs8Kwu8vOsQ6Lfd9XNbeVb6g6qnQHcgj/kkgOhzDRs09HksnJ1wrY0Hsi/VEayN/AkJXAsPcPPD2ur1YWarH/iBzsH1tZBAPvM53tcNty6Brm/1GPoD/cJEAtEgQEERDaoOLxOT2P7UNeE2HauwYYbKFB4B9Af6hYkEokGAgiIaVB1cJiaB4agvd57ctrYScRm6du1qa5luKgz9gX5hIoFoEKCgiAZVB5cJfT0WuGlro2g2dfPmzZ6FcuFcx3w+1kSk77D+xo3V1ljhnSwJ/YF+YSKBaBCgoIgGVYeXibd/PISjnbDSGpHxwk3m87cYzgQPHjoYsCgsXvvll19UHnwfMWJEwPyJdBD9kZKSkkhVYl0cRICCwkGdGaum1KpVS5b9/M8ah1hdN5LrwKFfzZo1Axax5LslyswVmXr36i1w14EYGcmQ0B/oFyYSiAYBCopoUHV4mXB5gZXTdqQ1a9YIIuC9++67cu2116q1Cvqt3rv8N998U/lfuuGGGwTfkeDC47777suQFQ78zH6fcBDxLhZ8/bXKByeAOOe6HtfJ//3f/wm832INwvsfvC+ffvqpvPrqq8q6Cea/WJCXDAn9Yce6lmRoK+sYewIUFLFnnvRXxKIurG2AHj/ShMlxOOyDGerHH3+s3FBgnYZ3wsMc18ODe/To0fK18dDHGz8W561atUq2b9+uToEvJ7gQ9w69iv3Hj19YSf322LcFC/Y+nfKp3HTTTYLYEmhTq1atlJvxwYMHq7KqVasWExWbd1tD/Q0u6A8utguVHPNbJUBBYZUU82UgAM+qWA0cacLkOJzu9endR61XwFs8nP+Z/T/hGlAbwa0HXGfAYWDFihWV+3AIGIxw4MIDaeHChXL55ZcHXHsBb7VYcwDhAZ9PMM31lcqULqNMdhN9Uhv9gP5gIoFoEciOVYi+kr/9vvJa2cfyrFDynyfR+CFgDt7qoQKCW4xIEpzq6YVssNzBBmFgTnv37pUXXnhBPbjh7wmrSStXrqyywIvqMMODKuJE4O0aKqxACS48EHPiuuuuk9TUVBl4x0BJrZWa6RTUCd5st23dJrVqJ6b+/43X31Ded9Ef5nvE/D1Tw8LYwfLCgGY6Jdn5ZS9qihim24VG+dqvj4f66bby8AbqBn6PGm/itxsO/Mob8RsQ+S3chNEDnO1hBTZUUaeN9QDa+Z8uc+rUqQJrq3//+99q16OPPqoPKad8WNkN9RSsf4KpYOCCHBH54MbjIyOw0UP/eUhFyvMUaPpy2KhbkaJFTHsS5+sXX3whixYb6ri33/YEdELtEv3vzS1/H/pOcUJ/UPWke5OfIROAGwwE9kGUuUgmtyEcfvj+B3V9TEIXK1ZchR41VwghTYsUufDAhukqVEfakyvyIXDRSy+9JI0bN/aEVDWfr7/DHxNco0NIoP5Y5AfX4qgD1FrmMjGK+cvYX7JkSX16wnwu/GahMt8Ffx31L2Eqx4o4jkB2x7WIDYopAUz4QsePN3S44Q4nHGpxQzDMmz9Pxo0fJ38Yk9KPPPKocsRnbghiQWCSG67FITDgXfbV114VeHVFpDuonyZMmCB6Itp8rvk7/DFVqVxF7jKsnfLly6d8TA24fYASLhiJoB1444XlFNRb8GyLeZRESl9++aUSzkOHDhXwZyKBqBMw3qQyJeNNKtO+SHa4rbyNGzdGgivTucnAzzBzPd+nT5/zhplrpvoH2mFYLp031jioLIagOW9MbPvNblj2nEcenc6eOau/njdWXp83JsI9v618OXrkSKZsxojiPK6DNGTIkPOfz/g8U5547gDf3r17nwdvfynR7xc3/n3466tw9tvdv1b6g6qnqItid1wAb7aIH7F27Vp5+OGHZf++/SE3HN5YdUhUXyfjzd7ssRWTzVAVffLJJ4K3a0R7CyX5UtlgIh3XgSdbhD3tfE3nUIqMWl7wBFfwHTNmDEcSUSPNgn0RoKDwRYX7wiIAVQ5UNzBlvfmWmwUT0MESJv2x8C3cZLyRqUhzTz7xpJqfCLcc7/PgyRYP5kRI4Aie4Aq+4MxEArEkwDmKWNJ2ybVuvvlmadqkqbw5+k1lQouodN4L4DQKCIrefXrrnyF/YoSBtRd2p0TwZAtHhlgjgVHOiNdGSKXKlexuJssjAUsEKCgsYWKmUAngoQYrpK+++kq5xEDIUWMOQxCzmikwAaxUn2iY7f7xxx8CoduuXbvAJ/AoCUSZAAVFlAG7vXiYrWKDF1gsisMCtq5dukrLVi3djiZT+2HyOn3GdDEmKwVODDHvwkQCiUCAgiIResEFdYAqBxtGGFM+myKj3xqtBAgW6mEhnVvTzp07Zfbs2TJv3jwlRBEWtm3btm7FwXYnKAEKigTtGKdWS48w1q1bpx6QcP9xySWXSMuWLdWGEYfTE0YM33zzjVqkiMWD8Df11FNPSdWqVZ3edLYvSQlQUCRpxyV7tfFQxIYFcliNjQcnJm6xwA0T33DsV7du3WRvpqf+iGvx448/yrJly5TTQwgHYz2EWixot4sHz0X5hQRsIkBBYRNIFhM+AaysxoaEWBTwADty5Eg1mQuTUATkqV2rtnLMZ15HEf4Vo3vmiRMnZGXaSklbmaZcjcAHFSbzIQAHDhyoVpNHtwYsnQTsJUBBYS9PlhYhAbjkgNM+mM3ClcbyX5bLirQV8t7778n69euVHh8uxssbjggrVKigtnJly3m8z0Z4+ZBOP3f2nGzdtlU5ItxihFqFQ0K4/YBqqUqVKlK9enU1cQ9/TN5ODkO6EDOTQJwJUFDEuQN4ef8E8HCFdZTZQmrjho2ybv062bRxk8yZM0eNOtLT05X/J8xvYIOQgT+owoUKS4GCBdRDGovUcufOrVZ2I4YFNvMqcAT+gQdabBgRwG/VkSNHlLA6dPCQ7D+wX/bt26c8s0IQYMNvxKnGHAuEFUZF/fv153oH/13KI0lKgIIiSTvOrdXG+gxfC8/Sd6RL+s502bNnj2fDCAQuzBGg6JThuhwbXH7Agyzcc0A4wN3feWOD0IAXWTgNhLtzLHLLa3iXxYZ4GQULFpTChQureRUcq1G9hqSUTnFrN7DdLiNAQeGyDndqc/HQ9vfghjoI6ipfCS5AQvUOy8lnXyS5z8kE6OvJyb3LtgUlEKqQCFogM5CAAwlQUDiwU9kkEiABErCTQBb4IrezQJYlkjNHTjl56iRRJAgB9keCdMTf1WB/JF9/ZEHgDO9q262DdVt5gXTi3qyt/HYbP7vby/6wcpf5z8P+8M/GyhG7+dldnpW/D6qerPQ085AACZCAiwlQULi489l0EiABErBCgILCCiXmIQESIAEXE6CgcHHns+kkQAIkYIUABYUVSsxDAiRAAi4mQEHh4s5n00mABEjACgEKCiuUmIcESIAEXEyAgsLFnc+mkwAJkIAVAhQUVigxDwmQAAm4mAAFhYs7n00nARIgASsEKCisUGIeEiABEnAxAQoKF3c+m04CJEACVghQUFihxDwkQAIk4GICFBQu7nw2nQRIgASsEKCgsEKJeUiABEjAxQQoKFzc+Ww6CZAACVghQEFhhRLzkAAJkICLCVBQuLjz2XQSIAESsEIgy969ezOFQrVyIvP4J3D48GHJnz+//ww8ElMC7I+Y4g56MfZHUEQxzWClP7IXLVo0U6XsjsnqtvIA3hfXTKAt7nAbP7vby/6weKP5ycb+8APG4m67+dldnpW/D6qeLHY2s5EACZCAWwlQULi159luEiABErBIgILCIihmIwESIAG3EsierA1v3rx5slad9SYBEiABSwQWLVpkKV+0MyWtoACYq6++WjZt2iSbN2+WEiVKSKVKldRWtWpVqVatmhQrViza/Fg+CZAACYRFwLA4lbVr18q6detk48aNatu9e7dUqFBBKlasKF9++WVY5UbjpKQWFI899piHCWCvW2ts69fJpEmTlAC56KKLFHBA18KjfPnynnP4hQRIgARiQWDLli0eoYCXW2xnzpzxPJ+aNG4iffv2Vc8pXR8KCk3Cxk8IAmzmlL4j3eicNYbwWC/z58+Xt8e8LYePHPZI7CpVqki1qtWkevXqki17NvOp/E4CJEACIRM4d/acrFmzRtauWyvrjeeO1njkz5dfKlaqqDQeXa65xtB4VJeU0ikhlx+vE5J6RBEMGjoCW+s2bTxZDx06pDoSI5AVK1bI1KlTBdIeIw2MPCpXrqwEDoRHgQIFPOfxCwmQAAmYCZifJRs2bFBCQT9LtBq8VatW6kU02Z8ljhYU5k7V39Fhl19+udr0PvNbADp88eLFat4DbwEVKla4IDww+kiytwDdPn6SAAlERsCsncAzYvOmzR7tBIRC3bp1pef1PR2rnXCdoPB1u0DtlForVW3m43g7wGTThvUbZMbnn8um115TekVMNuHmqFrFUHdVy6zyMpfB7yRAAslFwDzfiUlmGMvo+c7KlSpL27ZtlbGMm+Y7KSgC3MO4EbDBukonbakA/ePS75fKhA8nCCwVkA/CA/MeauK8ajXJnSe3Po2fJEACCUbg+LHjai4BggF/zxAKeDnUFpRQQ/fp04cWlEa/UVCEePPC5BbbFVdc4TnzxIkTat4DNxs2WCvghkM+CA897wEBUrx4cc95/EICJBAbAnv27FFmqBAKUB1BKOClT7/g4W+zU6dOSnWUK1eu2FQqia5CQWFDZ+HGql+/vtrMxUFomE12MYTNli2bmjRXqqu/LbWgymIiARKwhwD+zpT6yBAKEAiwPDp37pyydsTfXbOmzaRfv36ZrCTtubozS6GgiGK/Qg2FrZPxT6edO3fK2jXGIhtjvYcy2X37bYH1hJ73wOgDJrvVqldTelF9Hj9JgAQyEsA6BPwtwRRVjxIgJGCwoi0Yu3Xtpv6WSpUqlfFk/gqJAAVFSLgiz4wbFlur1q08hcHNr77h09LSZPr06bLFuOHLliunVFd69AGT3YIFC3rO+//2zjzIjqre4+cmEVIsAwTD07DfQKIQqICCYQkIFDwIEBkWmXIhU4CUIpQ+LC3/sIQC/kMfpSEKstQMj2I3YV+FJF4SgQouaPmAkFFWlakEGAgV8EFef09ymp47997ue6fvvae7P6eq05NeTp/z+fXt71l+5xz+gEBRCLz11luhW7tqCdpefukls0dQG3eicPRRR1tRYC2Y9N8KhCJ9pk3HqBf7oIMPspu7+aOPPto0cCfwulIT1sqVKwOXvCGzzTbbhgN37IDBYKqSXXbZxd3GHgKZJ/Dqq69ab0O997bpaM2QeffddwJX9bIVhdmzZ5szzzzT9idMmMC8pp0wOELRCcotPEM/gH322cdu0dtfCkpRctld/cJqc//995uFCxea999/3/6AVLJy4qG5rggQ8J2A3mX7Pgei4Ka22HLLLe37PL083Rx77LFm5gUzze5B7ZrQPQIIRffYt/Rk/WC0HXfcceH9WvFKPzZ14D399NPmlltuMeoLcZOL7b1X4LIbjPf4TDBgEJfdEBt/dJCAXFGf03Q6wXxsq1/8eGoLNcOqaVXbnDlzrCtqmqtDdjCLuX7UJH1kaoV6x2tdm+RY2vEleWZRrtEPS9thhx0WZnnDhg1hm646+h79zaN24JBcdl2brh3vEdQ8cNkNsfFHCgTkiuoKLnr3VFOQK6pz2FBt9+RgviP1uU2ePDmFJ+Y3inrfzXrHWyURF19m18xuFUhR7tMPUG252qLBueyqVHf77bfbH7Fcdt2P2ImH/k+AQBwBeRk5UVB/gv4vV1QVRlRLOPyww83ZZ59tm0Tj4uL8WAK1alf6qNc6PvbuZEeSrJlN01Mylrm5yrnsRjPkXHYlHkuXLjXXXXedddl1g5Fsv0fgsqvmqy222CJ6K38XhMAHH3xgm43crKgShb8Hg0rliipBkFt37ym9uKLm9H1AKHJq2Gay1chlV+M9/vKXv4Quu7vutlv4YXC1jx122KGZx3Gt5wTefPPNsJbgxie88vLL1hXVicIxRx+DK6rndkwzeQhFmjRzFFcjl103N45z2d16m23Cfg/VPiQgu+66a45o5Dcrr7zyinWCUJOk609Y/+671hVVonDggQeavr4+XFHz+wokyhlCkQgTF4lAI5ddKx4Rl111prt2aice6rwkdI+AFtRxIm/HJwSdzOrLss4NwayomvxSIo8ravds5OuTEQpfLZOhdDmXXfm8u6AON32UtDmX3ddffz3sNJfL7t4z9g5cdmca1UgI6RFQjeC5zWNt1O/kOpmnTZsWNhsecsghVhTS7BRNLwfE5BsBhMI3i+QkPfoAaTv00EPDHKmW4Txk1NTxm8d+Y71kdtxxx/ADZjvOA/HQVM+EeAKa4l5MXdORRGHt2rXhrKiqxc2fP9+OT8AVNZ4nV9QmgFDU5sLRNhDQh0orgWmLhjUvrgnXBbjzzjuty26pVLJNImoWcZ3m+rvIQeMRnCi4pqONGzeGnObOnWvOPedcM32v6UXGRN7bQAChaANUomyOgD5s2ubNmxfe+M9//jOcZXf58uXmhhtuMPLGCUebb+40V4k5by67ckV1/QnO60jjE+Rdpg5mbaf2nmq9jj71qU+FzPgDAu0igFC0iyzxjouAPoDajvzikWE877zzji1Rq1T917/+1dwbLE+rD6g8rGyHbODLr9qHxCMrLrsSv6goqNYgTyQ3AFKi4Jbe3HbbbUMW/AGBThJAKDpJm2eNi4A+lJ///Oft5iJS04s+tBIPlb6ffPJJ23S19dZb24+tBoK5fo9uu+xKAFzTkdIqkVu/fr0VOQnC5z73OfOVr3zFCp2a3ggQ8IUAQuGLJUhHSwT0Qf3sZz9rt2gELwcDxJx4PPjgg2bRokVGS9a6kroTD807lPZHWeKlZztRcF5HWgnR1XyOP/5428G8WzCAkQAB3wkgFL5biPS1REAfYG1Rl911a9fZGUzlIbRq1Spz2223mddeey30EHKz7Kr5Kmkzj5rDrBvw5llRJQqa2mLnnXcOPbnk+aWZe6fsOKWlvHATBLpNAKHotgV4fscI6EOtj3bUZVdreajpSuKh7bHHH7NNQlOmTAk/9BIObQpubIjrZF63bl1YS9H6IV/60pds05HWVCBAIC8EEIq8WJJ8tERAH/RaLrvLli4zTz39lF1ZcPHixcEKa+/a+NX3obmx1GT17fO/PWpJ25YSwE0QyAABhCIDRiKJ7SNQXaNw/QmuRqHaR70axaJfLDKXXX5ZWKNQv4c2eV1Ro2ifzYi58wQQis4z54ldIhDto3BNR9V9FFo5sFEfhVx2jzjiiDAH0T4K57Jb3UdhxYM+ipAZf2SPAEKRPZuR4gQEol5PEgWNT4h6PcnN9qtf/aptQhqP15M6veXWqs2Faq8nuezKFTbq9SS3XTVf4fXkqLH3mQBC4bN1SFssgepxFG5qi+g4ihNOOMF+lDs1jkLCo+YnbdEQHUfx0EMPmV/+8pejxlE48dB94xGv6DP5GwJpEGDN7DQoEkdHCERHZksQXH9CdGS21g3Xh9bHkdlKpzaNtHYhOjL7mWeeMXfccceYkdmqeWhL6rLr4maffQL11rKud7zVHMfFx5rZrZLlvrYSiM715EQhOteTXFFPOeUUKwpZnutJgqYpv7W5UD3X07Jly2zTVXSupxl7z2CuJwcsx/ta08Dro17reKsYWDO7VXLc11EC0dlj1ZegTU0vGsWs7cgjjzTnnXee/bujCevSwyR8+++/v92iSRAXN9p78ZLFlpOa3hwndcLPnDGT2WOj0Pg7FQL0UaSCkUiSEKhej0IfPnXyRtejOP30020zC+tRjCXqBEF9Li5E16OoVCpmYGBg1HoU8riyAhI0XbEehaPGvlkCCEWzxLg+EQFVj6tHMVevcKelN1nhLhHOuhdJULVFXXajK9xp1Pn9999vBTm6wp0bG5JmE0bdRHIi8wQQisybsPsZeOmll6worA7WzH5xzSZX1Oia2QcffLD52te+NsYLqPspz2cKtLRstcuucuqmM9dUJTfddJNtuoquma2laSUgrJmdz/diPLlCKMZDr2D3fvTRR6M+NtbrKGg+0odJzSJy7zzxxBPtx6ZTrqj1TLD08ceDKTieNt/73vfMJz7xiXqXFep4PZdd1fwkHg8//PAml91gupI9A3tq6nPXdKV7J0yYUCheZPZjAgjFxyz4K0JAnhDPP/e8eWH1C3adB4nC37VIUDAjqz4gEgUtvSm3zU64oi5cuNDcfvvtkRQaoxUbdggm79tjjz3MWWedNWrQ27N//rNtcvnOd77TMaGolUYNslPzjlhpgF9PT8+oPHT7P85l95hjjgmTIu8ydZpLQH7/+99vctkNpm3fY889Q9s7ryvf8hNmgj9SJYBQpIozm5H94x//sKKw+sWg6SgYxSxRePvtt+0HWKIwa9Ysc9qpp5kZM2d0fdnRb3zjG2bq1KkWtJq3nnrqKaPxB//13e+aK37yE/OFL3yh60aIplFThCh9N998s/njH/9oS+y+l8wl/HPmzLGbgymX3ReCqdSff+F5W/uQy66mKtluu+1C8dA07TM/M9NOmujuY58PAghFPuyYOBdqYtAPXqIgQZDn0cSJE8OJ7Y466ijzzW9+0/4/caQdvFAlcy0+5EJvb69tDtPH+Ve/+pUXQlGdxnPPPddo01xQ4q9aWNaCXHZn7TfLbtG0y2vN1T6W3LXEdpp/+OGHtinSNl0F4qEChpqwCNklgFBk13YNU67Stuu8dLUE/ahVGnf9CV/+8pftR2unnXZqGJfvJ9V+roWCVMLVuIJ601+Ix3333Wf+9Kc/GdWi5C0koZFLroJK/ldeeaU55+yzzVFHHz0q2ytWrLC1gQsvvLAlMZJ46IM68vbIqHg1nfmy5cvMs88+a6fzUDOaRE9zUblw4403muXLl5sf//jH5oorrjByHtB64T4EibY2rdjnwhtvvBGKxxMrnjA3/s+NZnh4OCyMqNlSneayGy67jprfe4TCb/skSp1cUV2pTrUEbfoQ6gcsUVCTgH7IWmVtq623ShRn1i7aaqutrEjUEwo1nfzoRz+yTWfzT55vp8N4+JGHzc9+9rNNx+bPtwPc1q5da+66++4xQqG5mYaDD+Ds2bNbQvO73/3OKI2zD/j4fgn3xZdcbA488MBAnM4x6he69757zQ9+8ANzww032KY/PUzNgKuD/oKrrrrKxnH8f378UW4pMW2+SQUPbRJHF95b/55dXdA2XwWCqeVplX+t7aGahzY33gOXXUfNnz1C4Y8tEqVEpUmJglxR1wxtajrSmgpuMJZcUb/+9a9nsnkjEYAaF4mJmnTUvFGv/f8Pf/iD0RoTalbTh1nhi1880px40knm0UcfNfMDoZB3lDp177nnHlsCdn0hEhn1hWiEeJJ1JlT7UEewwquvvmo7hNVXUe2B9cQTT9hS9eWXXWY9x3T9brvvZn74wx+axx57zJxzzjk6ZCZNmmQ2BnvN9aRaRRaDCiji7ti7POhdtu9zYD/146gpVIz1Pk8vB15Xgcuumupw2XXEurNHKLrDPfapzhXV/YjsKObgR7TNNtua8vRNrotyRdWPaJdddomNLy8XrFy50oqC8vPB+x+YVc+sMk8HbrDygLrgggvqZlOd3NUd3XLrVUlWTSUuSDDuDmoUKvHKk0ph5YqVdoryefPmucsa7q+55pox59XEddBBB406LkHXFg2uyUkjrl1wTWmt1mZcPD7u9f5W99lIXN17LxG/5uprghUG37Euu7aGHBQIdA8uu52zKELROdZ1n+RcUeVR4tZOkCvqbrvvHlbLNfJWP4ztt9++bjxFOHH11VePyqaac/SxV01B8yM1ChpbcU/Qtq/SvZpz1On6QVAb+49gMSIX1PyhNvRHHnkkFIrHlz5utGDRAQcc4C5ruI82G2kJVfV9KD71hVxyySVhk4xqgnfeeafR1BsShvXr19s0KXIVFKrDvvvsW30ol/9XwUdb1GX3rbfeCvvc5D3261//2rwc1CT32Ny8Kptpnit5XeGym/5rgVCkz7RhjM4V1Y1PUE1BHy31J+iDt99++5nTTwvmOwpeeAaKjUUpzyZ1+CqopJ20M/S2226zbfwasbzgrAVm2s7TbBOHOofdetg20uAf1Rx+/vOf21KtSrBPBQsPnX7GGe507F5NRc52cjXVtOKHBO6mvaeeaj9wru3+4osvDmorK8xJJ59sTjvtNNu5Lu+i84LO7Fphyo5Tah0uxDEVkKpddv/9739bt25XwPrtb39r+z3ksiu72U7zzbPsqi+E0DoBhKJ1drF3OldUiYI6mNV5J1dU2/4aiIJKTN/61resSMRGxgWWgIRBg9iaDYsXL7YfYnk1uaYcxaGSqj7s0TAvmHRPNRfVAvbfb3/b7HRS0JcxnqBmLhUGVBpWbWHdunVGfRlaelWd1y6o2UX9EYR4AhLjei67bp6xu+6+ywxdOWRraq4wpsGCbrqS+KdwhQiM/oXApCUCWmJTrpcSBm0SBblqqjNUtQSVbPr6+qxXR9ZdUVsC5MFNchfWKOSoSKhJSB5jO00d7R6sj7oWQFIJVf0Xs4Ja3nhLpK+/9rr532AcxaenTbMd7u+9956lUh3vAw88YI+rWYzQGgEJgjZNOumC7OjEY8XKFaHLrmqn+o3KEUKbmndbKYi45+R1j1A0aVn5g7uONjc+Qe3L0RdOTRdqL82rK2qTyLy4/NBDD7Ud1PI0UkfoqlWrjJqjJAhyXdWH/NPTPh0KiTq1ly5dar2fLrrooqbyoD4HFRwUPvy/D82/3viXkXutgsZIKGitbAnX40G/yeGHH27dXtVxq4KGZnnVu6VZYCVahPETcC67Yu2CXHbVbOUERA4MKuBpfI0r4Ek89L44Dzh3b9H2CEUDi+ulkSi8uPrFcFZUtYu6Kuwhcw4xCxYssDWFBtFwygMCGlwokddYCjX96ENw6aWXGrcUaV/fmeanP/1vc9DBmzyT1JehD4b6j4499timcnDttdeG16sGo/U29M7I7VXxuqBmx8HBQSse6puQx9Pll19uva6uu+46c0JQ4NBAO0J7CKggJweFaicFKxzB7AVqMr7llltsk7GauWy/x/S9zF57Bx3ngXiocFiUUAp+PJlsEpW7oUpuaQSV+lQCdJ1irj+hZ9uewCVvz81PEXMHAAAP50lEQVSdYipZfMZ2gqbxTOLoDgGtuz1xwsRRtT0N0pMHUrRjXKXNMwPxkLfZ97///bYmVs1fO2y/g5k4aWL4HBVIJpQmjDoWnuSPjhNQjfP5558LxGPTfGh/G/qbGXlnJCw0Oq8rNV1F7TiehMrpYcmSJeOJItG98rqM8xQr3JrZKiFKFFRqkCC4/gSVDpynhAZWyeDyniDki4AGrVUHlfqjIqHzi36xyEhU3FiK6nvS/H+tkcjOayrN5xBX6wTkJactOrVL9FuiaWH0UVcrhL4lqrFqc1OVtPotqfVuqGBR63iruZNQxMWX66anaClAgjC0ZigsBUgU5Hd/xulnWFFIqxTQqrG4zw8C119/vXkycIdVYUL9CWp+IkCgFgF9/KsHckZbJ9TfpD4xeTuqdcINlJ1h+z2y1TqRG6GItitqbII2164oUZAr6vnnn2/VvpbROQYBEZB7qsThjGDchFxXCRBohoAKnPvO2tdu0ftcf6e+Uxr0ORTMMabmRX2btMllV7PsqgbiYygF7bNj+ijSrtq0Iz71Ucj9zU5tESi281Rw1T08FXx83UgTBCDgCDgPymgzuDwo5fgg8dCKg7X6YdP+nuobquc1CpmuUQikC5qWQZt83wkQgAAEskrAjcfyKf2ZFYpaStsq2G4odDNpTTt9RYsvSYkJe9QnkPb7gj3qs/b1DKul+2oZ0gUBCEDAEwIIhSeGIBkQgAAEfCWAUPhqGdIFAQhAwBMCCIUnhiAZEIAABHwlgFD4ahnSBQEIQMATAgiFJ4YgGRCAAAR8JYBQ+GoZ0gUBCEDAEwIIhSeGIBkQgAAEfCWAUPhqGdIFAQhAwBMCCIUnhiAZEIAABHwlgFD4ahnSBQEIQMATAgiFJ4YgGRCAAAR8JYBQ+GoZ0gUBCEDAEwKlYOW3MetReJK2zCZj8paTzYb3N2Q2/XlLOPbwy6LYI3v2yOzCRXFrvDZjCqZRbobW2GvT5pd2fExrPdZmzRzBHs3QGntt2vzSji/J74Omp7F25QgEIAABCEQIIBQRGPwJAQhAAAJjCSAUY5lwBAIQgAAEIgQQiggM/oQABCAAgbEEEIqxTDgCAQhAAAIRApMif/NnSgQWLFiQUkxEAwEI+EKgUqn4kpSOp4MaRceR80AIQAAC2SKAUGTLXqQWAhCAQMcJIBQdR84DIQABCGSLAEKRLXuRWghAAAIdJ4BQxCDv7+83pVLJaE+AAAQgUEQCCEWM1QcHB+0Vbh9zOachAAEI5I4AQhFjUufq6vYxl3MaAhCAQO4IMI4ixqQDAwNGGwECEIBAUQlQoyiq5ck3BCAAgYQEEIqEoLgMAhCAQFEJ0PTUBsur47tcLqcWc9oLlRQtviQLszRjrKLxSzu/RbNHM++Wr9dSo/DVMqQLAhCAgCcESsPDw6yZnbIxRkZGTE9PT8qxEl2rBLBHq+Tacx/2aA/XVmNNYo9JtdaeTruqWbT4BL4W11YNWTR+aecXe7T65m26D3v4xa8b9qDpaXzvAHdDAAIQyD0BhCL3JiaDEIAABMZHAKEYHz/uhgAEIJB7AghF7k1MBiEAAQiMjwBCMT5+3A0BCEAg9wQQitybmAxCAAIQGB8BRmaPj1/Nu5lptiYWDo6TQKVSGWcM3A6B1ghQo2iNG3dBAAIQKAwBhKIwpiajEIAABFojgFC0xo27IAABCBSGAEJRGFOTUQhAAAKtEUAoYrj19/ebUqlktCdAAAIQKCIBhCLG6lpbQsHtYy7nNAQgAIHcEUAoYkzqXF3dPuZyTkMAAhDIHQHGUcSYdGBgwGgjQAACECgqAWoURbU8+YYABCCQkABCkRAUl0EAAhAoKgGantpgeXV8l8vl1GJOe0WrosU3NDRUKHuk9uIREQQ2E2DN7Da8CknWoG3DY4myDgHsUQdMlw5jjy6Br/PYJPZgzewAXtolbIFnzew6b2WCw9gjAaQGl6TNL+34+H00MF6CU92wB30UCQzDJRCAAASKTAChKLL1yTsEIACBBAQQigSQuAQCEIBAkQkgFEW2PnmHAAQgkIAAQpEAEpdAAAIQKDIBhKLI1ifvEIAABBIQQCgSQOISCEAAAkUmwMjsNlifmWbbAJUoLYFKpQIJCHScADWKjiPngRCAAASyRQChyJa9SC0EIACBjhNAKDqOnAdCAAIQyBYBhCJb9iK1EIAABDpOAKGIQd7f329KpZLRngABCECgiAQQihira20JBbePuZzTEIAABHJHAKGIMalzdXX7mMs5DQEIQCB3BBhHEWPSgYEBo40AAQhAoKgEqFEU1fLkGwIQgEBCAghFQlBcBgEIQKCoBFgzuw2WT7IGbRseS5R1CGCPOmC6dBh7dAl8nccmsQdrZgfwurEGbR2b1TycdvqKFp9+CKxhXvPVSnQw7fcFeyTCXveibtiDpqe65uAEBCAAAQiIAELBewABCEAAAg0JIBQN8XASAhCAAAQQCt4BCEAAAhBoSAChaIiHkxCAAAQggFDwDkAAAhCAQEMCCEVDPJyEAAQgAAGEgncAAhCAAAQaEmBSwIZ4WjvJTLOtceMuCHSKQKVS6dSjcvEcahS5MCOZgAAEINA+AghF+9gSMwQgAIFcEEAocmFGMgEBCECgfQQQivaxJWYIQAACuSCAUMSYsb+/35RKJaM9AQIQgEARCSAUMVYfHBy0V7h9zOWchgAEIJA7AghFjEmdq6vbx1zOaQhAAAK5I8A4ihiTDgwMGG0ECEAAAkUlQI2iqJYn3xCAAAQSEpikZfVqhXrHa12b5FjR4kvChGsgAIHuEIj7HsWdbzbVWY+vtDEI1ZlWplhjuJpK8v8PDQ2Zcrmc/IaYK7FHDKCY09gjBlDM6bTfP+wRAzzmdDfsQdNTjFE4DQEIQKDoBBCKor8B5B8CEIBADAGEIgYQpyEAAQgUnQBCUfQ3gPxDAAIQiCGAUMQA4jQEIACBohNAKIr+BpB/CEAAAjEEEIoYQJyGAAQgUHQCCEXR3wDyDwEIQCCGAEIRA4jTEIAABIpOgEkB2/AGMNNsG6ASpalUKlCAQFcIUKPoCnYeCgEIQCA7BBCK7NiKlEIAAhDoCgGEoivYeSgEIACB7BBAKLJjK1IKAQhAoCsEEIoY7P39/aZUKhntCRCAAASKSAChiLH64OCgvcLtYy7nNAQgAIHcEUAoYkzqXF3dPuZyTkMAAhDIHQHGUcSYdGBgwGgjQAACECgqgdKaNWvGLIVaVBhp5ZvaR1okiSdKIC/Nn5O3nGw2vL8hmjX+7iKBJPaYVGtt57TXZC1afF20OY/OMYFav9Va2fX998aa2bWslvxY2vZNYg+anpLbJ/GVKvkl/VEniTTtF6No8SX5ISSxg7vGd34unewhkBYBOrPTIkk8EIAABHJKAKHIqWHJFgQgAIG0CCAUaZEkHghAAAI5JYBQ5NSwZAsCEIBAWgQQirRIEg8EIACBnBJAKHJqWLIFAQhAIC0CCEVaJIkHAhCAQE4JIBQ5NSzZggAEIJAWAYQiLZLEAwEIQCCnBBiZ3QbDMtdTG6ASpSVQqVQgAYGOE6BG0XHkPBACEIBAtgggFNmyF6mFAAQg0HECCEXHkfNACEAAAtkigFBky16kFgIQgEDHCSAUMcj7+/tNqVQy2hMgAAEIFJEAQhFjdbeqmNvHXM5pCEAAArkjgFDEmNS5urp9zOWchgAEIJA7AqXh4WHWzE7ZrL29vSnHSHQQ2ERgyZIlmUcxMjJienp6Mp+PvGQgiT0mffKTnxyTX9+XevQ9fWOAcgACKRGo9Xutjtr334c+TEnyUZ2vev/3Pb++py+JPWh6qvf2cRwCEIAABCwBpvBow4ugju9yuZxazL6XSHxP39DQUKHskdqLR0QQ2EyAGgWvAgQgAAEINCSAUDTEw0kIQAACEEAoeAcgAAEIQKAhAYSiIR5OQgACEIAAQsE7AAEIQAACDQkgFA3xcBICEIAABBAK3gEIQAACEGhIAKFoiIeTEIAABCCAUPAOQAACEIBAQwKMzG6Ip7WTzDTbGjfugkBWCFQqlawkNZV0UqNIBSORQAACEMgvAYQiv7YlZxCAAARSIYBQpIKRSCAAAQjklwBCkV/bkjMIQAACqRBAKGIw9vf3m1KpZLQnQAACECgiAYQixupaW0LB7WMu5zQEIACB3BGYpEVnaoV6x2tdm+RYVuPr6+szt956q9E+7Twk4cY1EICAfwSa/RY0e31cjjsdX2ljEKoTpUSwpm01leT/nzt3bvKLuRICEMgcgWbGUfj+PU2yAiRNT5l7RUkwBCAAgc4SQCg6y5unQQACEMgcAabwaIPJ1PFdLpdTi9n3qqvv6UtStW7GWL7n1/f0Fc0ezbxbvl5LjcJXy5AuCEAAAp4QQCg8MQTJgAAEIOArAYTCV8uQLghAAAKeEEAoPDEEyYAABCDgKwGEwlfLkC4IQAACnhBAKDwxBMmAAAQg4CsBhMJXy5AuCEAAAp4QQCg8MQTJgAAEIOArAYTCV8uQLghAAAKeEGBkdhsMsWDBgjbESpRFJ9DMRHRFZ0X+0yVAjSJdnsQGAQhAIHcEEIrcmZQMQQACEEiXAEKRLk9igwAEIJA7AghF7kxKhiAAAQikSwChiOHZ399vSqWS0Z4AAQhAoIgESsPDw2OWQi0iiHp5njp1angqYBX+3eiP3t7eRqc5B4GWCCxZsqSl+3y7aWRkxPT09PiWrMKmJ4k9JtVaG9v3hU86mT65umohIu1rsSrs20XGO04g6fvXyd9HKxD0YUqalyTx+55f39OXxB6Mo4h5EwcGBow2AgQgAIGiEqCPoqiWJ98QgAAEEhJAKBKC4jIIQAACRSVA01MbLK8+jXK5nFrMvrdx+p6+oaGhQtkjtRePiCCwmQA1Cl4FCEAAAhBoSAChaIiHkxCAAAQggFDwDkAAAhCAQEMCCEVDPJyEAAQgAAGEgncAAhCAAAQaEkAoGuLhJAQgAAEIIBS8AxCAAAQg0JAAQtEQDychAAEIQACh4B2AAAQgAIGGBBiZ3RBPayc10ywh2wQqlUq2M0DqIZAiAWoUKcIkKghAAAJ5JIBQ5NGq5AkCEIBAigQQihRhEhUEIACBPBJAKPJoVfIEAQhAIEUCrJkdA/PCCy80t956q+nr6zMLFy6MuXrTadbMToTJ64vysj61j5CTrNHsY7rzmqYk9ihtDEI1AN/XF+hk+kqlUoinBqrwXPSPuXPnRv/L3xkk0MjrqZPvXyvofE9f0dYHyYM9aHqK+SU6V1e3j7mc0xCAAARyR4BxFDEmHRgYMNoIEIAABIpKgBpFUS1PviEAAQgkJIBQJATFZRCAAASKSoCmpzZYfnBw0JTL5dRi9r0zzPf0pd15mpphiQgCGSFAjSIjhiKZEIAABLpFAKHoFnmeCwEIQCAjBBCKjBiKZEIAAhDoFgGEolvkeS4EIACBjBD4f9eNMoARtLaPAAAAAElFTkSuQmCC;" parent="1" vertex="1">
                    <mxGeometry x="-130" y="-3203" width="260" height="520" as="geometry"/>
                </mxCell>
                <mxCell id="11" value="&lt;p style=&quot;margin: 0px ; margin-top: 6px ; text-align: center&quot;&gt;&lt;b&gt;Logo&lt;/b&gt;&lt;/p&gt;&lt;hr&gt;&lt;p style=&quot;margin: 0px ; margin-left: 8px&quot;&gt;+ Attribute1: Type&lt;br&gt;+ Attribute2: Type&lt;/p&gt;" style="align=left;overflow=fill;html=1;dropTarget=0;" parent="1" vertex="1">
                    <mxGeometry x="630" y="-2280" width="180" height="90" as="geometry"/>
                </mxCell>
                <mxCell id="12" value="" style="shape=component;jettyWidth=8;jettyHeight=4;" parent="11" vertex="1">
                    <mxGeometry x="1" width="20" height="20" relative="1" as="geometry">
                        <mxPoint x="-24" y="4" as="offset"/>
                    </mxGeometry>
                </mxCell>
                <mxCell id="13" value="&lt;p style=&quot;margin: 0px ; margin-top: 6px ; text-align: center&quot;&gt;&lt;b&gt;Mood Selector&lt;/b&gt;&lt;/p&gt;&lt;hr&gt;&lt;p style=&quot;margin: 0px ; margin-left: 8px&quot;&gt;+ Attribute1: Type&lt;br&gt;+ Attribute2: Type&lt;/p&gt;" style="align=left;overflow=fill;html=1;dropTarget=0;" parent="1" vertex="1">
                    <mxGeometry x="260" y="-2280" width="180" height="90" as="geometry"/>
                </mxCell>
                <mxCell id="14" value="" style="shape=component;jettyWidth=8;jettyHeight=4;" parent="13" vertex="1">
                    <mxGeometry x="1" width="20" height="20" relative="1" as="geometry">
                        <mxPoint x="-24" y="4" as="offset"/>
                    </mxGeometry>
                </mxCell>
                <mxCell id="15" value="&lt;p style=&quot;margin: 0px ; margin-top: 6px ; text-align: center&quot;&gt;&lt;b&gt;PlayBar&lt;/b&gt;&lt;/p&gt;&lt;hr&gt;&lt;p style=&quot;margin: 0px ; margin-left: 8px&quot;&gt;+ Attribute1: Type&lt;br&gt;+ Attribute2: Type&lt;/p&gt;" style="align=left;overflow=fill;html=1;dropTarget=0;" parent="1" vertex="1">
                    <mxGeometry x="-90" y="-2290" width="180" height="90" as="geometry"/>
                </mxCell>
                <mxCell id="16" value="" style="shape=component;jettyWidth=8;jettyHeight=4;" parent="15" vertex="1">
                    <mxGeometry x="1" width="20" height="20" relative="1" as="geometry">
                        <mxPoint x="-24" y="4" as="offset"/>
                    </mxGeometry>
                </mxCell>
                <mxCell id="17" value="&lt;p style=&quot;margin: 0px ; margin-top: 6px ; text-align: center&quot;&gt;&lt;b&gt;PlayList&lt;/b&gt;&lt;/p&gt;&lt;hr&gt;&lt;p style=&quot;margin: 0px ; margin-left: 8px&quot;&gt;+ Attribute1: Type&lt;br&gt;+ Attribute2: Type&lt;/p&gt;" style="align=left;overflow=fill;html=1;dropTarget=0;" parent="1" vertex="1">
                    <mxGeometry x="-440" y="-2280" width="180" height="90" as="geometry"/>
                </mxCell>
                <mxCell id="18" value="" style="shape=component;jettyWidth=8;jettyHeight=4;" parent="17" vertex="1">
                    <mxGeometry x="1" width="20" height="20" relative="1" as="geometry">
                        <mxPoint x="-24" y="4" as="offset"/>
                    </mxGeometry>
                </mxCell>
                <mxCell id="21" value="&lt;p style=&quot;margin: 0px ; margin-top: 6px ; text-align: center&quot;&gt;&lt;b&gt;MoodTracker&lt;/b&gt;&lt;/p&gt;&lt;hr&gt;&lt;p style=&quot;margin: 0px ; margin-left: 8px&quot;&gt;+ Attribute1: Type&lt;br&gt;+ Attribute2: Type&lt;/p&gt;" style="align=left;overflow=fill;html=1;dropTarget=0;" parent="1" vertex="1">
                    <mxGeometry x="-790" y="-2280" width="180" height="90" as="geometry"/>
                </mxCell>
                <mxCell id="22" value="" style="shape=component;jettyWidth=8;jettyHeight=4;" parent="21" vertex="1">
                    <mxGeometry x="1" width="20" height="20" relative="1" as="geometry">
                        <mxPoint x="-24" y="4" as="offset"/>
                    </mxGeometry>
                </mxCell>
                <mxCell id="23" value="&lt;p style=&quot;margin: 0px ; margin-top: 6px ; text-align: center&quot;&gt;&lt;b&gt;SpicifyContainer&lt;/b&gt;&lt;/p&gt;&lt;hr&gt;&lt;p style=&quot;margin: 0px ; margin-left: 8px&quot;&gt;+ Attribute1: Type&lt;br&gt;+ Attribute2: Type&lt;/p&gt;" style="align=left;overflow=fill;html=1;dropTarget=0;" parent="1" vertex="1">
                    <mxGeometry x="-100" y="-2530" width="180" height="90" as="geometry"/>
                </mxCell>
                <mxCell id="24" value="" style="shape=component;jettyWidth=8;jettyHeight=4;" parent="23" vertex="1">
                    <mxGeometry x="1" width="20" height="20" relative="1" as="geometry">
                        <mxPoint x="-24" y="4" as="offset"/>
                    </mxGeometry>
                </mxCell>
                <mxCell id="25" value="&lt;p style=&quot;margin: 0px ; margin-top: 6px ; text-align: center&quot;&gt;&lt;b&gt;Webcam/photo window&lt;/b&gt;&lt;/p&gt;&lt;hr&gt;&lt;p style=&quot;margin: 0px ; margin-left: 8px&quot;&gt;+ Attribute1: Type&lt;br&gt;+ Attribute2: Type&lt;/p&gt;" style="align=left;overflow=fill;html=1;dropTarget=0;" parent="1" vertex="1">
                    <mxGeometry x="260" y="-2070" width="180" height="90" as="geometry"/>
                </mxCell>
                <mxCell id="26" value="" style="shape=component;jettyWidth=8;jettyHeight=4;" parent="25" vertex="1">
                    <mxGeometry x="1" width="20" height="20" relative="1" as="geometry">
                        <mxPoint x="-24" y="4" as="offset"/>
                    </mxGeometry>
                </mxCell>
                <mxCell id="27" value="" style="shape=image;verticalLabelPosition=bottom;labelBackgroundColor=#ffffff;verticalAlign=top;aspect=fixed;imageAspect=0;image=data:image/png,iVBORw0KGgoAAAANSUhEUgAAAgEAAAGGCAYAAADiu1KcAAAgAElEQVR4Ae3dB3gU1drA8TcIAektSJcWFaIoKorSQRFBitK9dCx0FVBB/PRerwVR9F4FEaRIUUBA6YpSpIk06UVCkY703km+5z3cDSkb2CSzuzM7//M8ebKZnT1zzu/Mybw7c+ZMWGxsbKyQEEAAAQQQQMB1AulcV2MqjAACCCCAAAJGgCCAHQEBBBBAAAGXChAEuLThqTYCCCCAAAIEAewDCCCAAAIIuFSAIMClDU+1EUAAAQQQIAhgH0AAAQQQQMClAgQBLm14qo0AAggggABBAPsAAggggAACLhUgCHBpw1NtBBBAAAEECALYBxBAAAEEEHCpAEGASxueaiOAAAIIIEAQwD6AAAIIIICASwUIAlza8FQbAQQQQAABggD2AQQQQAABBFwqQBDg0oan2ggggAACCBAEsA8ggAACCCDgUgGCAJc2PNVGAAEEEECAIIB9AAEEEEAAAZcKEAS4tOGpNgIIIIAAAgQB7AMIIIAAAgi4VIAgwKUNT7URQAABBBAgCGAfQAABBBBAwKUCBAEubXiqjQACCCCAAEEA+wACCCCAAAIuFSAIcGnDU20EEEAAAQQIAtgHEEAAAQQQcKkAQYBLG55qI4AAAgggQBDAPoAAAggggIBLBQgCXNrwVBsBBBBAAAGCAPYBBBBAAAEEXCpAEODShqfaCCCAAAIIEASwDyCAAAIIIOBSAYIAlzY81UYAAQQQQIAggH0AAQQQQAABlwoQBLi04ak2AggggAACBAHsAwgggAACCLhUgCDApQ1PtRFAAAEEECAIYB9AAAEEEEDApQIEAS5teKqNAAIIIIAAQQD7AAIIIIAAAi4VIAhwacNTbQQQQAABBAgC2AcQQAABBBBwqQBBgEsbnmojgAACCCBAEMA+gAACCCCAgEsFCAJc2vBUGwEEEEAAAYIA9gEEEEAAAQRcKkAQ4NKGp9oIIIAAAggQBLAPIIAAAggg4FIBggCXNjzVRgABBBBAgCCAfQABBBBAAAGXChAEuLThqTYCCCCAAAIEAewDCCCAAAIIuFSAIMClDU+1EUAAAQQQIAhgH0AAAQQQQMClAgQBLm14qo0AAggggABBAPsAAggggAACLhVI79J6U20HCpw9c0YOHvxbDh85LEcOH5Fjx4/JiRMn5PTp03Lq1Ck5e/as+Tl//rxcvHjR/Fy+fFmuXLkiMTEx5sdT7XTp0on+pE+fXjJkyCAZM2Y0P7feeqtkyZLF/GTLlk2yZ88uOXPmlNy5ckveiLwSkTdC8ue/TbJkzerJit8IIICAYwXCYmNjYx1begoecgIHDx6Uv/76S/bs2WN+Dhw4ILrs0KFDortqrly5JE+ePOZHD876kyNHDnOw1oN2tqzZJHOWzKIH80yZMkl4hgySITzcHOz1oO9JGhRocHD50iW5dPmyXLhwQTR4OHf2nJw+czousNDg4vjx4ybYOHr0qOiP/h0WFib58uWT/PnzS8GCBaVw4cJSpEgRKVasmFnm2Q6/EUAAATsLEATYuXVCuGz6TX3z5s2ydetW2bZtmznw79q1S8LDw80BtVChQgl+64FWD/Z2SSdPnpT9+/fL3r17437ra/25dOmS3H777SYgKFWqlNxxxx1SunRpc6bBLuWnHAgggIAKEASwHwREIDo6WtavXy+bNm0yB3494JcoUUJKliwppUqWklKRpcxr/abv9KRnCrZv3y7borfJtu3bzOsdO3aYwEADgjJlysg999wjkZGRTq8q5UcAAYcLEAQ4vAHtWnz9lr9q1SpZt26dbNy4UTJnzmwOfnoAjCoTJVF3R5lT6nYtv9Xl0ksZGzdslI2bNppASIOhc+fOSVRUlJQtW1YeeOABc7bA6u2SHwIIIHAjAYKAG+nwns8Chw8flt9++01Wrlwpa9asMQPr7r33XrnvvvukXLlyXCf3IqljHVavXm1+NFjSgY3q9eCDD8qjjz4qERERXj7FIgQQQMA6AYIA6yxdl5N+21+8eLEsW7ZM9uzeLfc/8IA5gD388MPmer7rQNJYYR1PoJYaSP2xapUUKVpU1LJSpUqcJUijLR9HAAHvAgQB3l1YmoyAfmOdP3++LF26VK5evSoVKlQw31ofeeSRZD7B4tQKqLGeXfn999/llltuMc7VqlUzlw9SmyefQwABBOILEATE1+C1VwEd1DdnzhxZsGCBuY5fuVJlqVq1qrmu7/UDLLRcQMcTqP+ixYvMrZLq/9hjjzG40HJpMkTAXQIEAe5qb59rqxPwzJo1yxz8jxw5IlWqVJGaNWvyLdRnQf+tqGdjNChbtGiRGTeg7VKnTh3ReRJICCCAQEoECAJSouWCdVcsXyEzZ82UefPmmQN/rVq1zG8XVN2RVVy4cKH8/PPPor9r1KghdevUlfIPlXdkXSg0AggEXoAgIPDmttuiTq37ww8/yMyZM811fj3w169f38zGZ7vCUiCvAjp98rRp02T27NlmdsS6devK008/baZE9voBFiKAAAJMFuTufUBHo0+ePNmc9tfb+OrVqycVK1Z0N0oI1H7JkiUyffp0c+uhXiZo1KgRd2uEQLtSBQT8IcCZAH+o2jxPnahm4sSJ5pqyfmN85plnzGx2Ni82xUuhgM7K+P3335szPHqbYdOmTc2ETSnMhtURQCCEBQgCQrhxE1dNZ/D77rvvZMuWLdKgQQNp3qy5edhO4vX4O7QE9KFI4yeMl6lTp8pdd91lggGdoZCEAAIIEAS4YB/Qg/+4cePMQ3oaN2oszVs0d0GtqaI3gfHjxsukyZPMw41atGhhpiv2th7LEEDAHQIEASHcznpv+ZixYyR6a7Q0bdZUmjVrFsK1pWopEZgwYYJ8N+E7ibwjUlq1bMWcDynBY10EQkiAICCEGtNTFR3wN3LkSDMFrR74W7Vq5XmL3wgkEBgzZoxoQKDTE7dr144BhAl0+AOB0BcgCAihNtZb/b4a+pWMHz9OmjdvIR2e68Az7EOoff1VlYsXL8rwYcPj9pvnX3ieWwv9hU2+CNhMgCDAZg2S2uJMmTJFRo0aZZ7Y91yH56RgoYKpzYrPuVRg/779Mmz4MHNrYZs2baRhw4YulaDaCLhHgCDA4W2tU8gOHTpUrly5Is8995x5ip/Dq0TxgyygTzEcNmyYORvw/PPPM1V0kNuDzSPgTwGCAH/q+jHv2NhY+eyzz8xEPx06dDC3fflxc2TtQgEdKzBixAjzXILu3bubh0e5kIEqIxDSAgQBDmzeX+f/KoO/HCxRUVHStUtXyZ0ntwNrQZGdIHDs6DEZOGigbNy4UTp17CTVqldzQrEpIwII+ChAEOAjlB1Wu3Dhgnz66afyxx9/SOdOnaR6jRp2KBZlcIHA/Hnz5IvBg+X++++XV155RTJlyuSCWlNFBEJfIF3oVzE0aqhPiWvZsqWkS5dOvv32WwKA0GhWx9RCA07d73T/0/1Q90cSAgg4X4AzAQ5oQ/32r/90u3frxsHfAe0V6kXUswKfDxwolStXNmcFQr2+1A+BUBYgCLBx6+oc/x9//LEUKFBAXnvtNcmWLZuNS0vR3CRw+vRp6d+/vxw4cEB69eplnkngpvpTVwRCRYAgwKYtqY/4/e9//iNdu3Vj5L9N24hiiXkg1cDPP5eXX3nFPI0SEwQQcJYAQYAN26tfv36ij/t9/bXXmdPdhu1DkRIK6DMq+n/UX0qXLi29e/dO+CZ/IYCArQUYGGij5tm9e7e8+OKLotO46ux/UXdH2ah0FAUB7wK6n3799ddmv9X9V/djEgIIOEOAIMAm7aQD/zp27CgVK1aUt99+m4lZbNIuFMM3gbCwMLPf6v6r+zF3D/jmxloIBFsgfbALwPZFxn07TkaNHiVvvPGGVKlSBRIEHCvQunVrKVasmLz//vuyb+8+afFsC8fWhYIj4AYBxgQEuZX19r+1a9fKW2+9JSVKlAhyadg8AtYI7NixQ9555x3z3IEePXpYkym5IICA5QIEAZaT+p5h3759zXXUd999lxnYfGdjTYcI6AyXb775ptm3dR8nIYCA/QQYExCENjl16pR06dJFsmTJYuYBYArWIDQCm/S7gO7XOs9F5syZzf6u+z0JAQTsJUAQEOD22Lt3r3Tt2lXKlC5jxgAEePNsDoGAC+hYF93fdb/X/Z+EAAL2ESAICGBbREdHy8svvyw1a9aULl27BHDLbAqB4Aro/q77ve7/2g9ICCBgDwGCgAC1g07+07NnTzP7X5s2bQK0VTaDgH0EdL9v2rSp6QfaH0gIIBB8AYKAALTBunXr5NVXX5X27dszBXAAvNmEfQU0CGjXrp3pD9ovSAggEFwB7g7ws79Oqfra66+ZmQDr16/v562RPQLOEJg6daoMHTpU+n/Yn5kxndFklDJEBQgC/Niwf/75p3nCWocOHaRhw4Z+3BJZI+A8gSlTpsjw4cPNHQR33nmn8ypAiREIAQGCAD81os6f3uOVHtK8RXNp3Lixn7ZCtgg4W2DSpEkyftx4+eTTT6Ro0aLOrgylR8CBAgQBfmi048ePS7du3eSJJ56QVq1a+WELZIlA6AiMGTNGZs+eLZ9//rnkypUrdCpGTRBwgABBgMWNFBsbK507d5Z7773XPEjF4uzJDoGQFBg8eLDoQMEvvviCh2eFZAtTKbsKEARY3DJ9+vSRHDly8Fx1i13JLvQF+vXrJydPnpQPPvgg9CtLDRGwiQC3CFrYEAMGDJCYmBgCAAtNyco9Ar1795arV6+K9iMSAggERoAgwCLnb775RjZs2CD//ve/LcqRbBBwn4A+aEj70dixY91XeWqMQBAECAIsQF/w6wLRIODtt9+W8PBwC3IkCwTcKaD9R/vRt99+K9qvSAgg4F8BgoA0+u7atUv6fdhPdCxAsWLF0pgbH0cAAe1H2p+0X2n/IiGAgP8EGBiYRtsXX3xRKlasKK1bt05jTnwcAQTiC4wePVqWLFkiQ4YMib+Y1wggYKEAZwLSgNm/f38pUKAAAUAaDPkoAskJaGCt/evDDz9MbhWWI4BAGgUIAlIJqHOf633Nffv2TWUOfAwBBG4moP1r/fr1ov2NhAAC1gsQBKTCdOfOnfLZZ5+Z5wJkyJAhFTnwEQQQ8EVA+1evXr1Mf9N+R0IAAWsFGBOQCs+uXbvKQw89xGWAVNjxEQRSI6DjA5YvXy4DBw5Mzcf5DAIIJCPAmYBkYJJbPGzYMMmYMSMBQHJALEfADwI6PiBTpkyi/Y+EAALWCRAEpMBSxwBMmDBBevbomYJPsSoCCFghoE/l1P6n/ZCEAALWCBAEpMBRn3LWsWNHKVioYAo+xaoIIGCFgPY77X/aD0kIIGCNAEGAj47Dhw+XnDlzSqNGjXz8BKshgIDVAtr/tB9qfyQhgEDaBQgCfDDUUcmjRo0SHRBIQgCB4ApoP9T+yN0CwW0Hth4aAgQBPrSjPuu8Xbt2cvvtt/uwNqsggIA/BbQfan/UfklCAIG0CRAE3MRv9uzZcujQIfNP5yar8jYCCARIQIMA7ZfaP0kIIJB6AYKAm9iNGDFC2rdvf5O1eBsBBAItoP1S+ycJAQRSL0AQcAM7/QdTsmRJqVKlyg3W4i0EEAiGgPZL7Z8jR44MxubZJgIhIUAQkEwzHj9+3DzTvEP7DsmswWIEEAi2gPbPb775RrS/khBAIOUCBAHJmOm3i9q1a0vJUiWTWYPFCCAQbAHtn9pPORsQ7JZg+04VIAjw0nJ79uyRadOmSdu2bb28yyIEELCTgPZT7a/ab0kIIJAyAYIAL15jx441kwLlzZvXy7ssQgABOwloP9VJhLTfkhBAIGUCBAGJvHbv3i1z5szhAUGJXPgTATsL6AOGtN9q/yUhgIDvAgQBiazGjx8vDRs2lBw5ciR6hz8RQMCuAtpftd9q/yUhgIDvAgQB8awOHz4s06dPlxYtWsRbyksEEHCCgPZb7b/aj0kIIOCbAEFAPKdJkyZJ3bp1hbEA8VB4iYBDBLTfPvXUU6L9mIQAAr4JEATEc5oxYwZPCYznwUsEnCbwzDPPiPZjEgII+CZAEPA/p8mTJ0vp0qUlMjLSNznWQgAB2wlo/y1Tpox8//33tisbBULAjgIEAf9rlVmzZkn9+vXt2EaUCQEEUiBQr149mTlzZgo+waoIuFeAIEBEVq9eLWfPnuUZAe7tB9Q8hAT0mQLan7VfkxBA4MYCBAEi8tNPP0mtWrVuLMW7CCDgGIHHH39cfvzxR8eUl4IiECwB1wcBMTExMn/+fKlTp06w2oDtIoCAxQJ6l8+vv/4q2r9JCCCQvIDrg4AfZ/0od999t+TPnz95Jd5BAAFHCWh/1n6t/ZuEAALJC7g+CJj/63ypUb1G8kK8gwACjhTQfq39m4QAAskLuDoIOHnypKxYsUIee/yx5IV4BwEEHCmg/Vr7t/ZzEgIIeBdwdRAwb948eeSRRyRTpkzedViKAAKOFdB+rf1b+zkJAQS8C7g6CFiyZIlUrlTZuwxLEUDA8QLav3/77TfH14MKIOAvAdcGAZcvXzanCqtUreIvW/JFAIEgC2j/Xr58uWh/JyGAQFIB1wYBSxYvkXvuuUeyZcuWVIUlCCAQEgLav7Wfa38nIYBAUgHXBgHLVyyX8uXLJxVhCQIIhJTAgw8+KNrfSQggkFTAtUHAqlWr5KGHHkoqwhIEEAgpgYcffli0v5MQQCCpgCuDgL1795q5xfWpgSQEEAhtAe3n+iwB7fckBBBIKODKIGDN6jVmNrGEFPyFAAKhKqDjArTfkxBAIKGAK4OAdevXmcFCCSnc/dexo8fk3Nlz7kZwSO1HjRolI0eOdEhp7VFMnUJY+z0JAQQSCrgyCNi8ebPcW/behBIu/Gvnzp3y8ssvm4cnNWjYQGo/WVtatWol/fr1k02bNvldRLd/8OBBv2/H1w3obWSVK1c2PzOmz0j2Y3Pnzo1b7+qVq8mu5683FixYYB6O46/8QzFf7e/a70kIIJBQwHVBgH7b1WuDd99zd0IJl/01bdo0ad++vTnY16tXT95//33p06ePFCtWTPQg161bN1m2bJlfVT766COZPXu2X7eRmsxvueUWmf1z8uX65ZdfRNchOUdA+7v2e852OafNKGlgBFwXBGzesllKlSoVGF2bbkXnUh80aJBkyZJFPv/8c+nUqZP5Zvvkk0/Kv//9b3mz75ty6dIl+c9//iOxsbF+q8X27dv9lndaMtb9Y+3atXL48OEk2Zw9c8ZMPlOyZMkk77HA3gLartr/SQggcF0g/fWX7ni19c+t4vZ/4F9//bWcO3dOevbsKXfeeWeShq9arao5SxAeHi4XL16Me7bCli1bZMaMGeYAeeDAAbntttvk6aeflsaNG8flodeq9XT1oIED5aOPP5Z169bJ1atXpVy5cvJqr16SJWtW+fPPP+Vf//qXKcOkSZNEv1m//fbbJr/OnTuLnplo1qxZXJ564H2xY8cEy/v27SvZs2eXCg9XkK+GfSWFCxc2lzH0Q5r/4MGDZdu2bSaIKVGihLz4wos+n/259957JTo6Wn788Udp3bp1XDn0xZy5c+XKlStmYOnWrVsTvKd/fP/998ZIv3VqkKUHHj2rUrRo0QTr+rqeXv+fNWuWeQiOtpUGbKTUCeh+oP3/gQceSF0GfAqBEBRw3ZmAbdu3uT4IWLNmjTmA1q9fP9ldul27dvKPf/wjLgDQMwNvvvmm/PHHH1K3Tl155eVXJE+ePPLf//5X9NKCJ504cUL0G37fN98UDSKef/55qVmzpsybO1d69+ljVsuXL5/UqlXLvNZR202aNJG8efOaYGHXrl1y7NgxT3bm99WYGNHlR48cjVv+999/y44dO+S/n/1X9BYwz5wPWreOHTuaU7//ePYf0qZNG9Eyde3W1ZQ9LoMbvMiaNauULVvWBCeJV9OARd/TA3zipIHHp59+KpGRkSao0brv2bNHOnToIPv37Y9b3df1xo8bL8OGDZO77rpL3nrrLalataq5bHPq5Km4vHjhu4AGZNr/SQggcF3AdWcC9GBSt27d6wIufLV//35z7T9dOt9jwNWrV0vu3LnNAfb+++83atWqVZW6Tz1lDpaegMKTZ65cueSNN94w6+llBr1PW7/R6mDA4sWLS63Ha8nw4cPNAa5BgwZmvePHj/vcGnpNXgd69ejRQxo2bBj3uS+//FK0DGPGjJFbb73VLNezFS1atJARI0aIp+xxH/DyQi+B1H6itvT7sJ85I6AHdU16eWDd2rXS69VXkwxo1LJPnjxZKlWqZMZWeLK97977pHnzZjJ6zGjp3bu3+Lqefn7S5ElSpEgRc9bEk1+RwkWkR88eUiJrCc8ifvsooGcAf/rpJx/XZjUE3CHg+1EgRDz0NK0ehNyazp8/b07D6zfvlCSddW3o0KEJDqJ6al//sR46dChJVrVr106wrGLFiuZvq0Zoh4WFmVP9Wi5PunDhgmzcuNGc7vUEAPpehgwZzCNl9QDu64Nkaj5W0wQRGrh4kh5AwjNmlMcff9yzKO73urXrzKWT6tWrxy3TFwULFZRixYvL+vXrzXJf19NgQc926JS38VP5h8p7PQsRfx1eexfQfr9v3z7vb7IUAZcKuOpMwJEjR8y3RP2W6takB0etf+JT7r54zJ83T6ZNn27+kergQr3Wf+niRbktf/4kHy9YsGCCZZ6gQ9vAqqRjAgoUKBCX3b691/7B65iAtm3bxi3XF3pJQIc4Hj502ByYE7zp5Q99Fr1+q58/f750795dNOiYM2eOPProo3FnGOJ/7ODf12511HESiZNeNvHccunrep7Aytu+qmdkSCkXUEs9S6T7oGd/THkufAKB0BJwVRCgZwHyezlghVaT3rw2em1UB77paW89uPmSJkyYIAMHDjTfstu0bmMOpBkzZhS9ze/MmTNJstADdPzkuaVOA4eUpuTuUMiRI0eCrK5cvWL+1kF4yZ32zxCeIcFnbvSHXjbSMQD6KFodx6BjEHS8gbekYyY06VmHxEkPPJ56+7re5UvXHn3rcUucJ3+nTkD7v/4fIAhInR+fCj0BVwUBOjGNt29qodesN66RDjRbsWKFuT6q1+u9pZkzZsr6DetFR+vrAV1Hs6udDnyLHzjoN+z06ZPuRnqmIf5BWtfTFJE3wtvmzDJPvolP2esof19S4UKFzGo6IFEHNqY1aSBxW77bzLwJ+m1efypUqOA1W09w6e1Mh9Y9IuJavX1dL2/Etcs1esYlcYqfX+L3+PvGAupvpwmqblxa3kXA/wKuGhOgnV+/0bk96S14empUr/HrQL3EacP6DTLgkwGycuVKM8Jf39fr7foP1HOg1mX6ZDY96MVcjUmchQky4i/UWwU1lYpMOEeD3m7nSRps6LfmxPfnL1682LPKDX/rGAW9DLFh/XqJiUlYpoULF4oObkxJ0ro+Xutx47B06VLR6/3x6x8/r6gyUeY9XS9+0gO23i3hGVzo63oacOilmw0bNsTPTjZu2CinT59OsIw/fBfQMwAEAb57sWboC7gqCOBa4LUdWq+jDxgwwAwQfOGFF2TQwEGi1/t14JveitazZw9za+A/3/5n3C2Cei1cD0h6QNaDtN5DrxMN6YC/I0ePmFvg4p+217z0gKgDETWY+OGHH8w983oWQlNEvghzkNP39NKEDoTTAEAHb/3++++yZMkSsx29Dq9nAvSiRfz8k+uaOhbg3Pnz8sEHH5gy6XwGEydOlP/7v/8TvX0wpUkvCRw5fFh2bN8uT9V9KtmP6wDAGjVqmBkQ9SyKzm3w119/mVsFNSDxnJnwdT29rKD5bd60SUaPHm0GX2oQ89HHH5kzEskWhDduKKBnZLydrbnhh3gTgRAWSHoeN4QrqweaqKioEK6h71XTb6Z6an/q1Kmy5LclMmHCeDNwTk+lV6lSxdzbrhPweFLTpk3NQVnnCtCDmt4V8M4775iDt04ipLfBDRjwiWd1ef311837e3bvNvnq+npg9iQ9yOkZCb3MoNMX65TFderUkVdeecUcOPV2Oj3wR95xh3z44Ydm8qDLV65dJ/fk4e23Xt7QMxNDhg6Jux1Mgx6d0MhzIPb2ueSWqUGZqChzJqRkqRvPEqh10G/vn3z6ibm9UMtfuEgR4xz/jhRf1+vWtascPXpUhn31lXz11VeSM2dO6fHKKzJ9xgy+zSbXYDdZrmcCdH8lIYDANYGwWF++XoWIVpcuXaRly5bmdrEQqZJl1dBrz3rKXy+XJHfKWzemp6JvSXeLZM6SOW7bugt5ZhbUyYN0FsCff/7ZHBBPnTplggY9gHlL+o053S23mHU972t+entctqxZzQyDnuUp/a2n4jUvbyPsU5pXStbXbR7Yf8ActOM7Jc7D1/W0XbR9GM+SWDDlf+vZqW+++cYMck35p/kEAqEn4KozATqKPf5gtdBrztTXSF18scmWLVuSjWjQoLfUeUuJ7xJIvI5ex0+cND/PALrE76Xk7+QCj5TkkZp1tfx62v9mydf11DY535ttg/cTCug+zpiKhCb85W4BV40J0FnrdEpYEgIIuFNA+7/+HyAhgMA1AVcFATpILWsWggB/7vx6DV3n1tdBfiQE7Cag/V//D5AQQOCagKsuB+hELZxW9e+u36hRI9EfEgJ2FND+75mwyY7lo0wIBFrAVV/XdBKalMwYF+jGYHsIIOBfAe3/iSej8u8WyR0Bewu4KgiIuXrV6+x29m4iSocAAlYJ6OyW+n+AhAAC1wRcFQToA2R0RDYJAQTcKaD9X/8PkBBA4JqAq4IAPfzrvdkkBBBwp4D2f74GuLPtqbV3AVcFATopTfy56r2TsBQBBEJVQPu//h8gIYDANQFXBQE6Va3nEa3sAAgg4D4B7f/eHvfsPglqjMA1AVcFATovvk7BSkIAAXcKaP/X/wMkBBC4JuCqIEAf7nLm7BnaHgEEXCqg/V//D5AQQOCagKuCgCxZsog+P4CEAALuFND+r/8HSAggcOwkQRQAAB0DSURBVE3AVUGAzhuuT2MjIYCAOwW0//P8EHe2PbX2LuCqIECfIKaPlyUhgIA7BbT/+/K0THfqUGs3CrgqCMidO7ccOXLEje1MnRFAQMT0f/0/QEIAgWsCrgoC8ubNSxDAno+AiwX0S4D+HyAhgMA1AVcFAfnz55fDhw/T9ggg4FKBQ4cOif4fICGAwDUB1wUBBw8epO0RQMClAn///TdBgEvbnmp7F3BVEFC4cGEhCPC+I7AUATcIaP/X/wMkBBC4JuCqIECvBcbExMjx48dpfwQQcJmA9nvt/4wJcFnDU90bCrgqCFCJQoUKyc6dO2+IwpsIIBB6Atrvtf+TEEDguoDrgoBixYrJ9u3brwvwCgEEXCGg/V77PwkBBK4LuC4IKFGiBEHA9fbnFQKuEdAgQPs/CQEErgu4Lgi46667ZNu2bdcFeIUAAq4Q0H6v/Z+EAALXBVwXBJS+qzRnAq63P68QcI2AngnQ/k9CAIHrAq4LAjJnyWxuEdqwfsN1BV4hgEBIC2h/11sDtf+TEEDguoDrggCteunSpWXturXXFXiFAAIhLaD9Xfs9CQEEEgq4Mggoe09ZWb9+fUIJ/kIAgZAV0P6u/Z6EAAIJBVwZBNxX7j7ZsIHLAQl3Bf5CIHQFtL9rvychgEBCAVcGAXptMGvWrLJ58+aEGvyFAAIhJ6D9PEuWLEwXHHItS4WsEHBlEKBw5cqVk2XLlllhSB4IIGBjgeXLl8v9999v4xJSNASCJ+DaIODhhx6WlStXBk+eLSOAQEAEVqxYIdrfSQggkFTAtUFAxUoVzeDA06dPJ1VhCQIIhISA9m8dFKj9nYQAAkkFXBsEZMiQQR566CFZuGBhUhWWIIBASAho/9Z+rv2dhAACSQVcGwQoRcWKFWXR4kVJVViCAAIhIbB4yWLTz0OiMlQCAT8IuDoIqF69uixdulQuXLjgB1qyRACBYApov/7tt99E+zkJAQS8C7g6CMiRI4eUL19e5vwyx7sOSxFAwLEC2q+1f2s/JyGAgHcBVwcBSlKjRg2ZN3+edx2WIoCAYwW0X2v/JiGAQPICrg8CateubWYPPHjwYPJKvIMAAo4S0P6sswRq/yYhgEDyAq4PAtKlSyfVqlWTmTNnJq/EOwgg4CiBWbNmmX6t/ZuEAALJC9BDROTJJ5+UX375JXkl3kEAAUcJ/Pzzz6ZfO6rQFBaBIAgQBPxvCmGdW3zhQuYMCMI+yCYRsFRA+7H2Z50anIQAAjcWIAj4n0/dunVl2rRpN9biXQQQsL2A9mPtzyQEELi5AEHA/4yeeeYZ81TB6Ojom6uxBgII2FJA+68+NVD7MwkBBG4uQBAQz+ipp56S77//Pt4SXiKAgJMEtP9qPyYhgIBvAgQB8ZwaN24sM2bMkCNHjsRbyksEEHCCgPZb7b/aj0kIIOCbAEFAPKeIiAipV6+ejBs3Lt5SXiKAgBMEtN9q/9V+TEIAAd8ECAISOTVv3lymTJkiJ0+eTPQOfyKAgF0FtL9qv9X+S0IAAd8FCAISWRUtWlQee+wxGT16dKJ3+BMBBOwqMHbMWNNvtf+SEEDAdwGCAC9WLVu2lMmTJzM2wIsNixCwm4COBZg4aaJovyUhgEDKBAgCvHgVKVJE6tevLyNHjvTyLosQQMBOAtpPtb9qvyUhgEDKBAgCkvFq166dzJ49W7Zv257MGixGAIFgC2j/1H6q/ZWEAAIpFyAISMYsV65c8uyzz8rwEcOTWYPFCCAQbAHtn9pPtb+SEEAg5QIEATcwa9++vWzfvp1nCtzAiLcQCJaAPiNA+6f2UxICCKROgCDgJm76D2bEiBE3WYu3EUAg0ALaLwkAAq3O9kJNgCDgJi36xBNPSL58+RgkeBMn3kYgkAI6GFD7pfZPEgIIpF6AIMAHu06dOpkgYNeuXT6szSoIIOBPAe2HGgRovyQhgEDaBAgCfPArXry4tG3bVgYOHOjD2qyCAAL+FNB+2KZNG9F+SUIAgbQJEAT46KfXHnVqUp1EiIQAAsER0P534sQJ6dChQ3AKwFYRCDEBgoAUNGjXrl1lyJAhsn/f/hR8ilURQMAKAe13X375pXTr1s2K7MgDAQREhCAgBbtB2bJlpUmTJjLgkwEp+BSrIoCAFQLa75o2bSraD0kIIGCNAEFACh2ff/55uXjxIg8YSqEbqyOQFgF9oJf2O+1/JAQQsE6AICAVlj179pRRo0bJmjVrUvFpPoIAAikR0H6m/U37HQkBBKwVIAhIhaeOSn7ppZfk448/lsuXL6ciBz6CAAK+CGj/0n7WvXt37gbwBYx1EEihAEFACsE8q+tTy/Ta5HvvvedZxG8EELBYQPuX9rMGDRpYnDPZIYCAChAEpGE/eO211+TAgQOMD0iDIR9FIDkBHQeg/Uv7GQkBBPwjQBCQRtc33nhDxo0bJ4sWLUpjTnwcAQQ8AtqftF9p/yIhgID/BAgC0mh7++23y+uvvS4ffPCB/PXXX2nMjY8jgID2I+1P2q+0f5EQQMB/AmGxsbGx/svePTmPHTtW5s6dayYTCg8Pd0/FqSkCFgpcunRJXnzxRalZs6a0bNnSwpzJCgEEvAkQBHhTSeWyAQMGyKFDh+TDDz9MZQ58DAF3C7z++usSEREhvXr1cjcEtUcgQAJcDrAQWu9jTpcunfTr18/CXMkKAXcIaL/R/kMA4I72ppb2ECAIsLgd3n//fdFHnQ4ePNjinMkOgdAV0GcCaL/R/kNCAIHACRAEWGwdFhZm/pEtWbKEWwcttiW70BQYM2aMLF682PQb7T8kBBAInABBgB+sc+XKZf6hTZs6TSZOnOiHLZAlAqEhMGnSJJk6ZarpL9pvSAggEFgBggA/eRctWlTee/89czZgypQpftoK2SLgXAHtF/pMAO0n2l9ICCAQeAGCAD+a33nnndLvg37y1VdfydSpU/24JbJGwFkC06ZNM/1C+4f2ExICCARHgCDAz+5Rd0eZiU+GDh0qP/zwg5+3RvYI2F9AzwAMGTLE9AvtHyQEEAieAPMEBMh+06ZN0rt3b2nVqpU0adIkQFtlMwjYS+C7774TnVhLbwcsU6aMvQpHaRBwoQBBQAAbPTo6Wvr06SP16tWTNm3aBHDLbAqB4Avo9f/p06ebMwCRkZHBLxAlQAABIQgI8E6wd+9e81CUCg9XkM5dOgd462wOgeAIDBo4SJYtX2buAihcuHBwCsFWEUAgiQBBQBIS/y84deqUOSNQqFAhnpLmf262EGQBnQBo37595gxA9uzZg1waNo8AAvEFGBgYXyNAr/Uf4aBBg+TcuXNmitQLFy4EaMtsBoHACeh+rVMA636u+zsBQODs2RICvgoQBPgq5Yf13n33XSlYsKB5atqOHTv8sAWyRCA4Aro/d+zY0ezfup+TEEDAngIEAUFulx49ekjtJ2pL586dZeHChUEuDZtHIO0Cuh/r/vxErSdE928SAgjYVyC9fYvmnpK1eLaFFCpcyNw29ddff0nr1q3dU3lqGlICo0ePlvHjx5uxLlWqVAmpulEZBEJRgIGBNmrV3bt3y3vvvWdOob711lvCw1Rs1DgU5YYCsbGx8s4778j+/fulb9++TAN8Qy3eRMA+AlwOsE9bmH+cOpNaeHi4tG3bVjZu2Gij0lEUBLwL6H6q+2vGjBnNTIA8B8C7E0sRsKMAQYANW0UnFKpfv7506tRRdIY1EgJ2FdD9U/dT3V91RkwSAgg4S4DLATZury1btsjHH39sLg+8+uqrki1bNhuXlqK5SeD06dPSv39/OXDggLkN8K677nJT9akrAiEjwJkAGzel/mMdNmyY6HPWdbDg/HnzbFxaiuYWAd0PdX/MkyeP2T8JANzS8tQzFAU4E+CQVtXbrj777DMpX768ue0qQ4YMDik5xQwVgcuXL8snn3wiK1askO7duwuj/0OlZamHmwU4E+CQ1td/uPr0tZiYGHn22Wc5K+CQdguVYuq3f93vdP/T/ZAAIFRalnq4XYAzAQ7cAxb8ukC+GPyFREVFSdcuXSV3ntwOrAVFdoLAsaPHZOCggbJx40bp1LGTVKtezQnFpowIIOCjAGcCfISy02pVq1U1E7LkyJFDdKKhCRMm2Kl4lCVEBHS/0v1L9zOdAIgAIEQalmogEE+AMwHxMJz4ct26dTJ06FC5cuWKPPfcc/Lggw86sRqU2UYCK1euNAP+0qdPLy+88IKULVvWRqWjKAggYKUAQYCVmkHMa8qUKTJq1CgpV66cPNfhOSlYqGAQS8OmnSiwf99+GTZ8mKxevVratGkjDRs2dGI1KDMCCKRAgMsBKcCy86r6D1snbsmbJ680b95Mvhj0hVy8eNHORaZsNhHQ/WTw4MFmv9H9R/cjAgCbNA7FQMDPApwJ8DNwMLLfu3evjBw5UpYtWybNmjWTVq1aBaMYbNMBAmPGjDFjSh5++GFp166dFC5c2AGlpogIIGCVAEGAVZI2zEfndB8zdoxEb42Wps2amoDAhsWkSEEQ0G/7E8ZPkMg7IqVVy1YSdXdUEErBJhFAINgCBAHBboEAbH/VqlUybtw40ccUN27UWJq3aB6ArbIJOwqMHzdeJk2eJMWKFZMWLVrIAw88YMdiUiYEEAiQAEFAgKDtsBkNBvQboD6ToEGDBtK8WXPJnCWzHYpGGfwocO7sOZnw3QTRwaM6xW/Tpk05+PvRm6wRcJIAQYCTWsuism7atEkmTpwoixYtkjp16kijRo3k9ttvtyh3srGLwK5du2Ty5Mkya9YsqVy5sjRp0kTKlCljl+JRDgQQsIEAQYANGiFYRdABhJ6DhN5aWK9ePalYsWKwisN2LRJYsmSJTJ8+3dzq5wnyGPBnES7ZIBBiAgQBIdagqamOPhjmhx9+kJkzZ8rVq1elVq1a5vnwOXPmTE12fCYIAidOnDAH/tmzZ8stt9widevWlaefflp40FQQGoNNIuAgAYIABzVWIIq6YvkKmTlrpsybN888JEYDAh4WEwj51G1Dny75888/i/6uUaOG1K1TV8o/VD51mfEpBBBwnQBBgOua3LcKnz592lxLnjNnjhw5csQEAjVr1mQKWd/4/LqWThU9d+5cc+DPmzevPPbYY2ZsR7Zs2fy6XTJHAIHQEyAICL02tbxG0dHRosHAggULJCwsTCpVrCTVqlXj3nLLpZPPUOd8UP9FixdJbGysVK1a1Rz8IyMjk/8Q7yCAAAI3ESAIuAkQbycU0G+hv/76q/z2229m/ECFChXk0UcflUceeSThivyVZoGlS5ca599//91c51fj6tWrczYmzbJkgAACHgGCAI8Ev1MssHnzZlm8eLGZnnjP7t1y/wMPmKcY6hS0jEZPMafo3RrLly+XFStWyB+rVkmRokVFLStVqiSlS5dOeYZ8AgEEELiJAEHATYB42zeBw4cPm2+t+hjaNWvWSJYsWcw3Vr31UH/y58/vW0YuWuvgwYPmNj59ap+eYTl79qzcd999JpDSsysREREu0qCqCCAQDAGCgGCou2CbepZAZyjUg9vGjRslc+bM5ttsmdJl5O677zbjCXR8gVuSXsfX6/obNmyQzVs2i07YdO7cOYmKijLBkk7fy7d9t+wN1BMB+wgQBNinLUK6JDq4cP369ebgt3XrVtHZ7EqUKGF+IktFSqnIUlKyZEnJlSuX4x2OHz8u27dvl23R22Tb9m3m9Y4dO8ysjHfccYeZte+ee+4RBvU5vqmpAAKOFyAIcHwTOrMC+gx7PVugwcG2bdtk586dJjAIDw834wl0TEGhQoXMj74uWLCg5MiRwzaVPXnypOzfv99cx9+3b5/oj17T159Lly5J0aJFpXjx4uZArwd7/ZafMWNG25SfgiCAAAIqQBDAfmArAb1Ork873LNnjzmg6oFWlx06dMjcGqdnCvLkySO5c+c2Zw307+zZs5sfvU8+W9Zs5qFIt956q2TKlEnCM2SQDOHhkj59ekmXLl1cXWNiYuTKlSty+dIluXT5sly4cEHOnz8v+rCd02dOi86TcOrUKdGDvc7Gp9/ujx07JkePHjWv9VJGvnz5zFiHAgUKSJEiRcyPPp2P8Q9xzLxAAAGbCxAE2LyBKN51gbNnzsjBg3/L4SOH5cjhI3Ls+DFzgPYcsM+cOWOus+vBXM806I9OiawHez3o648naUCgPxoc6NS6+i1dfzR40EGN+qPBhQYWOn1y7ly5JW9EXonIGyH5898mWbJm9WTFbwQQQMCxAgQBjm06Co4AAggggEDaBK6fH01bPnwaAQQQQAABBBwmQBDgsAajuAgggAACCFglQBBglST5IIAAAggg4DABggCHNRjFRQABBBBAwCoBggCrJMkHAQQQQAABhwkQBDiswSguAggggAACVgkQBFglST4IIIAAAgg4TIAgwGENRnERQAABBBCwSoAgwCpJ8kEAAQQQQMBhAgQBDmswiosAAggggIBVAgQBVkmSDwIIIIAAAg4TIAhwWINRXAQQQAABBKwSIAiwSpJ8EEAAAQQQcJgAQYDDGoziIoAAAgggYJUAQYBVkuSDAAIIIICAwwQIAhzWYBQXAQQQQAABqwQIAqySJB8EEEAAAQQcJkAQ4LAGo7gIIIAAAghYJUAQYJUk+SCAAAIIIOAwAYIAhzUYxUUAAQQQQMAqAYIAqyTJBwEEEEAAAYcJpHdYeSkuAgggELIClStXDtm6UbHUC4SFhcnChQtTn8ENPkkQcAMc3kIAAQQCLbBo0aJAb5Lt2VggNjZWqlat6rcScjnAb7RkjAACCCCAgL0FCALs3T6UDgEEEEAAAb8JEAT4jZaMEUAAAQQQsLcAQYC924fSIYAAAggg4DcBggC/0ZIxAggggAAC9hYgCLB3+1A6BBBAAAEE/CZAEOA3WjJGAAEEEEDA3gIEAfZuH0qHAAIIIICA3wQIAvxGS8YIIIAAAgjYW4AgwN7tQ+kQQAABBBDwmwBBgN9oyRgBBBBAAAF7CxAE2Lt9KB0CCCCAAAJ+EyAI8BstGSOAAAIIIGBvAYIAe7cPpUMAAQQQQMBvAgQBfqMlYwQQQMC5AvoI28OHD8v+ffvl/PnzXisyf9486devn1y+fNnr+7pw7ty5N10n2Q/zht8F0vt9C2wAAQQQQMAxAps2bZJhw4bJqlWrJCYmJq7cRYsWldatW8sTTzwRt2zd+vUyc+ZMeemllyRDhgxxy+O/2L17t8lLgwqS/QQIAuzXJpQIAQQQCIrAwYMHpVevXuaA3q5dOylXrpzceuutsnbtWpk4caK89+67kj17dnnkkUd8Lp/moz8kewoQBNizXSgVAgggEHCBX+f/KqdPn5auXbtKs2bN4rZ/xx13SKlSpeSl7t1NMJCSICAuE17YUoAxAbZsFgqFAAIIBF5g3/59ZqOVK1VOsnE9KzB8xAh5//33k7wXf4Ge/tdv/v379zeLR48eLS1btpRLly6Zv5ctW2b+/vPPP2Xo0KHmde3ataVbt26yc+fO+FnxOgACBAEBQGYTCCCAgBMEihcvbor59aiv5eqVq0mKHBkZKZkyZUqy3LPgxIkT0rNnTzNQsFOnTmbx0aNHZdeuXXHjCy5evGj+/uKLL2TDhg3SuHFjadumrURHR0vnzp3l3Nlznuz4HQABLgcEAJlNIIAAAk4QqFevnvz444/m5/fff5cKFSqYcQEPPvigRERE3LAKenB/9dVXJeZqjHz66aeSLVs2r+uHhYWZ5Tr+YOzYsXEDCnPlziXvvvuuzJw1U5o0aeL1syy0XoAgwHpTckQAAQQcKaAj/IcMGSKTJ0+WefPmyezZs01AoJXRswA6TiD+3QGeSsZcvSr/+te/ZP/+/TJ48OCbBgz6uWrVqsUFAPp3lSpVTHZ6mYAUOAGCgMBZsyUEEEDA9gLp0qUz38T12/ipU6dk1cqVsmz5clmwYIH5pq6n9l944YUE9fjs889lyZIlZkCh3kroS8qfP3+C1fQuBL3UcOzYsQTL+cO/AowJ8K8vuSOAAAKOFdDbAavXqCG9e/eWb7/9VgoUKGB+66n/+EknBNL3xowZI0eOHIn/VrKvvV0u0AAk/twEyX6YNywTIAiwjJKMEEAAAecK6GQ+Ojhvy5YtXiuRK1cuM0bg6tWrcujQoQTrfPLJJ+ZugAsXLsg777wjvkwMdPz48QR56MH//Llzkjt37gTL+cO/AgQB/vUldwQQQMARAnoLX/fu3c3sfwcOHEhSZj2wb9u2TTJmzCiFChVK8L6OFyhWrJh06dJFVq9eLXpb4M3SH3/8kWCVNWvWiM4pWKJEiQTL+cO/AgQB/vUldwQQQMARAnpwb9++vZw7d87c5qdTBy9dulT04KwHdQ0Q1q9fLy1atBA9be8tPf3001KpUiUZOXKkbNyw0dsqccuit0abiYd03IGOMxg4cKCEh4fLU089FbcOL/wvwMBA/xuzBQQQQMARAjoYUE/Hjx8/XkaPGmW+mWvB9aa+24sVM1MKN2jQ4IZ16dOnj7Rt21be/ufbMurrr5Nd94UXX5CffvpJBg0aJHqJIWfOnGYiIv1NCpxAWKwvF28CVx62hAACCLhWoHLlyrJo0SJb1F+fDKiD/GJjYiUiX0SC2/nSUkCt3xtvvCHvvfeeuS1QL0PoHQGJ7xZIyzZC6bN6iK5ataosXLjQL9XiTIBfWMkUAQQQcLaAzhmgI/79nfQSAAGAv5WTz9/7hZ3k1+cdBBBAAAEEEAgRAYKAEGlIqoEAAgg4QSBHjhxStmxZMwbACeUN9TJyOSDUW5j6IYAAAjYS0ABABwOS7CHAmQB7tAOlQAABBBBAIOACBAEBJ2eDCCCAAAII2EOAIMAe7UApEEAAAQQQCLgAQUDAydkgAggggAAC9hAgCLBHO1AKBBBAAAEEAi5AEBBwcjaIAAIIIICAPQQIAuzRDpQCAQQQQACBgAsQBAScnA0igAACCCBgDwGCAHu0A6VAAAEEEEAg4AIEAQEnZ4MIIIAAAgjYQ4AgwB7tQCkQQAABBBAIuABBQMDJ2SACCCCAAAL2ECAIsEc7UAoEEEAAAQQCLkAQEHByNogAAggggIA9BHiUsD3agVIggAACRqBy5cpIIJBAICwsLMHfVv4RFhsbG2tlhuSFAAIIIIAAAs4Q4HKAM9qJUiKAAAIIIGC5AEGA5aRkiAACCCCAgDMECAKc0U6UEgEEEEAAAcsFCAIsJyVDBBBAAAEEnCFAEOCMdqKUCCCAAAIIWC5AEGA5KRkigAACCCDgDAGCAGe0E6VEAAEEEEDAcgGCAMtJyRABBBBAAAFnCBAEOKOdKCUCCCCAAAKWCxAEWE5KhggggAACCDhDgCDAGe1EKRFAAAEEELBcgCDAclIyRAABBBBAwBkCBAHOaCdKiQACCCCAgOUCBAGWk5IhAggggAACzhAgCHBGO1FKBBBAAAEELBcgCLCclAwRQAABBBBwhgBBgDPaiVIigAACCCBguQBBgOWkZIgAAggggIAzBAgCnNFOlBIBBBBAAAHLBQgCLCclQwQQQAABBJwhQBDgjHailAgggAACCFguQBBgOSkZIoAAAggg4AwBggBntBOlRAABBBBAwHIBggDLSckQAQQQQAABZwgQBDijnSglAggggAAClgsQBFhOSoYIIIAAAgg4Q4AgwBntRCkRQAABBBCwXIAgwHJSMkQAAQQQQMAZAgQBzmgnSokAAggggIDlAgQBlpOSIQIIIIAAAs4QIAhwRjtRSgQQQAABBCwXIAiwnJQMEUAAAQQQcIYAQYAz2olSIoAAAgggYLkAQYDlpGSIAAIIIICAMwQIApzRTpQSAQQQQAABywUIAiwnJUMEEEAAAQScIUAQ4Ix2opQIIIAAAghYLkAQYDkpGSKAAAIIIOAMAYIAZ7QTpUQAAQQQQMByAYIAy0nJEAEEEEAAAWcIEAQ4o50oJQIIIIAAApYL/D8sFErqjKcYmwAAAABJRU5ErkJggg==;" vertex="1" parent="1">
                    <mxGeometry x="-660" y="-2922" width="328.85" height="250" as="geometry"/>
                </mxCell>
                <mxCell id="29" value="" style="shape=image;verticalLabelPosition=bottom;labelBackgroundColor=#ffffff;verticalAlign=top;aspect=fixed;imageAspect=0;image=data:image/png,iVBORw0KGgoAAAANSUhEUgAAAmEAAAEZCAYAAADfbPJ6AAAgAElEQVR4Ae2dB5xU1dn/H1iq9LJ0AemwdbCgMTZUIkbF8mrAXmLyz/vXaGISNck/msQUkxhjr0SFWKPmTYzG8oIiaizIFpZlqQIiRXrv8P/8znImM8Oy7CwzO3Nnvufzudy9c88959zvucz87nOe85xGVVVVe40EAQhAAAIQgAAEINCgBBo3aG1UBgEIQAACEIAABCDgCDTau3cvljAeBghAAAIQgAAEINDABLCENTBwqoMABCAAAQhAAAIigAjjOYAABCAAAQhAAAIpIIAISwF0qoQABCAAAQhAAAKIMJ4BCEAAAhCAAAQgkAICiLAUQKdKCEAAAhCAAAQggAjjGYAABCAAAQhAAAIpIIAISwF0qoQABCAAAQhAAAKIMJ4BCEAAAhCAAAQgkAICiLAUQKdKCEAAAhCAAAQggAjjGYAABCAAAQhAAAIpIIAISwF0qoQABCAAAQhAAAKIMJ4BCEAAAhCAAAQgkAICiLAUQKdKCEAAAhCAAAQggAjjGYAABCAAAQhAAAIpIIAISwF0qoQABCAAAQhAAAKIMJ4BCEAAAhCAAAQgkAICiLAUQKdKCEAAAhCAAAQggAjjGYAABCAAAQhAAAIpIIAISwF0qoQABCAAAQhAAAKIMJ4BCEAAAhCAAAQgkAICiLAUQKdKCEAAAhCAAAQggAjjGYAABCAAAQhAAAIpINAk2XXu3bvXTjzxxGRXQ/kQgAAEIAABCEDApk6dGhgKSRdhnsTIkSNtZsVM275ju+Xl5Vl+fr4VFxVbfkG+z8IeAhCAAAQgAAEIHJRAxYwKKy0rtYqKCps5c6Y1b9bc8vLzbPLkyQe9Np0yNNorU1USk4o/6aST7N1333W1LP1iqZWUlFj5jHIHb+XKlTZs2LBqUVZcbKHikOU0yUliiygaAhCAAAQgAIGgENi9a7eVlJZYaWm16KqsrLTc3FynGwoLCi0UClmPnj3c7ZxwwgmBsoQ1uAiL7fS1a9fa9OnTrby8WpTNmzfPhg4d6qxlxcXFpq1Nmzaxl3EMAQhAAAIQgEAGEti4caMTXBJdsnLNmjXLBgwYUC26Cgtt+PDh1qFDhxrvHBEWgyXWEhZzer/Dbdu2OVFWVlbmLGVSvH369AnDl+KVAiZBAAIQgAAEIBB8AhoRcyNk+4wxixYtCo+QFRUVOdHVokWLOt0oIiwGU7wiLOZyd6jO8WZIqWIpYPmVFRQUODNk7969a7qMzyAAAQhAAAIQSDMCixcvdqJrxowZztKlEbGwr7jckkKherc4aCKswRzz603UzHVIZKdUVVVZaUmpffTRR/bEE09Y48aNnWouLCw0qebBgwcfSnVcCwEIQAACEIBAggjMnj3bNLoltyONbu3Zs6f6N7ug0P7rv/7LhgwZkqCagldMyn3CEoFs4cKFzlLm/co2bdoUVtUSZfIrI0EAAhCAAAQgkHwCGrmS6JKlS6JLft2ydMlQot/jvn37Jq0RQbOEZYQIi+3NFStWRI0vf/HFF1Hjy7KqNW/ePPYyjiEAAQhAAAIQiIPA9u3b3e9tpB93z549nR+3N4J07do1jhIPLSsiLIZfInzCYoqM+3DDhg1WMr3Eysqrnf0100LmTylzxSorDhVb+/bt4y6XCyAAAQhAAALZRGDdunXOHUgxuuSjLfcgRTRQ7M+iwiILDQ9Z27ZtU4YEERaDPh1EWEyTbOfOnfvNwOzevXvUDMxu3brFXsYxBCAAAQhAIKsILF++PGpkadmyZVEjSwoX0bRp07RhEjQRFgjH/ET3rh6YESNGuM2XLX8yjWO//fbbdv/991urVq2cpczPwDziiCN8VvYQgAAEIACBjCTw2WefhWcuKhr9li1bwj7Wo0ePdn5dGXnjKbqprBRhNbGWw6A2n+bOnetEmcJjPP2Xp23X7l3h2RxFxUXub5+XPQQgAAEIQCCIBOQ4X1Za5lax0d9NcprYsLxh7vfw4osvtoEDBwbxtgLT5ox0zE8G/c8//9w9qPIr0zj46tWrnRCTpcwHk2vUqFEyqqZMCEAAAhCAwCETkHuQVqiJnLnYqVMnZ+mSP5cMDIcffvgh15PKAoI2HIkIq+fTsmrVKmcp8zNCZMJ1a2Dm5bsHWWtgHtbqsHqWzmUQgAAEIACBQyOwZfMWt+aiLF0VMytcuAi51jgn+n3hmzp37nxolaTZ1YiwmA5JR8f8mCYm5FAP+/SS6VZeVm4zKma4ta769etX/YaRoQ97QsBRCAQgAAEIJIRApHFAIzYLFixwMxcL8gussKjQhoeGZ7xxABEW8yhliwiLuW3zZl+/3FLlzJnWqXPn6hmYBYUuLEavXr1iL+MYAhCAAAQgUCcC3k2mfEa5W2t59apVNmzfkn7Z6iYTNBGGY36dHvX4M8k/7Mgjj3Sbv1pOj3L0f/+D9+3Rxx61Zk2bOQdI+ZUpijAOkJ4UewhAAAIQiCXgJ4y5NRcrZtrOXTvDMxfPPfdcJozFAgvAMSKsATtJPmPafPJTgRUe44UXXrCtW7dGOftHztb017CHAAQgAIHsIKDfhkgn+pYtWzrRpZf2q666ygidFPznAMf8NOpDBcHza25pPF9B8hSJWJYyCbJ0C4qXRuhoCgQgAIFAE/BBxCW8ZOnSyi4KGq6VXfzyPwoqTqqdAMORtfPhbC0E9B9MmwLiKUUuD/HYY4/ZnNmzbeiwYeE3Ib0NpXJ5iFpuhVMQgAAEIFALgcjl9PTSPauy0gYNHuz8hs8/73wr/gXL6dWCL2NOYQkLUFdqoVTFeIl8U5Jzf+SbUkMulBogdDQVAhCAQEoJrFixImqkY8mSJfuNdDRv3jylbcyEyrGEZUIvpuk96D/occcd5zbfRA1fanvrrbfsT3/6k7OMKQaMX26pT58+Pit7CEAAAhBoIAILFy50380aWtTyP7J86YVZ382jRo1yk7EaqClUk8YEcMxP486pS9M0JKnNp9mzZ7v/+NOmTbOnnnrKhcpw//HzC1xYjCFDhvis7CEAAQhAIEEEqqqqrLSk1MWJ1PCiZsh70XXRRRfZ4MGDE1QTxWQSAYYjM6k3a7iXxYsXu7AYGsLUF8P69eujZmCGQqEaruIjCEAAAhCojYDCDYXjQFZWWrt27Zw/lx+F6N27d22Xcy5JBII2HIkIS9KDkK7Ffvnll+6LQ9OeJcok0mJnYLZo0SJdm0+7IAABCDQ4gW3btu3njyuRFemP26VLlwZvFxXuTwARFsMkWyPmx2BI28ONGzc6Uebf6DQtetCgQe7LpVjLLYVC1qFDh7RtPw2DAAQgkGgCa9euDYsuvazOmTPHjSBIdHkXkDZt2iS6WspLAAFEWAxERFgMkDQ/3L1rt/vyKSsvC8eq0Rte+I2vqNh69OyR5ndB8yAAAQjUncDSL5ZaaVmpC4wq0aURAz9CINEVKg5ZTpOcuhdIzpQRCJoIwzE/ZY9KelasL5qjjznabb6FFTMq3BfUlClT7MEHHzQNV0bOwNRC5SQIQAACQSEwf958953mfWU13Oid6M8+62zLL8gPyq3QzoATQIQFvAMbovn6Qor8UtIXWElpiYtX9uwzz9r2HdvdF5iEmd4Y8/LzGqJZ1AEBCECgTgRmVsx031kKFSFLV/Nmzd33lJzoL7/scus/oH+dyiETBBJNAMf8RBPNwvJkytdMIQ1h6gtu1cqVLrK/vuC03Aam/Cx8KLhlCKSIgFwq9JIY9nOtrLTOubnOel9YUGiaEY5LRYo6pwGqDdpwJCKsAR6KbKtizeo17kvQz8CcN29etX9FfoEVFhXa8FDIWrVunW1YuF8IQCAJBDZv2mTTS0qsvKzcxejS5KIBAwaE/Vi15i6Ti5IAPk2LRITFdAyO+TFAsvBw69at1Zaysv84+/ft2zf8JSnH19zc3Cwkwy1DAALxEli5cmVU7ENFph82bJizdDnLeyhkLVu2jLdY8mcIAURYTEciwmKAcOgIaA1MWcq0pEdlZaV7U5VjbGFhoZsCTqBDHhQIQEAEFMtQQ4veiV7hIyS65O7gZi4ScJoHJYJA0EQYjvkRncefDUdAQwTafNIQQllpmX344Yc2fvx4y8nJCc9W0hetYpeRIACBzCegpdf0gibRpRe0PXv2ONElf64LLrjAuTZkPgXuMFsI4BOWLT0dsPvUEIOc/f3it5s2bQrPwJQo07ADCQIQCD4BCS7vRK+JPa1bt652ot9nFZfrAgkCdSUQNEsYIqyuPUu+lBJYsWJF2K9MX9RLly4NB1PUEKZmPDVv3jylbaRyCECgdgLbt28P/z9WuAhZwHv06BEWXfp/3LVr19oL4SwEaiGACIuBg09YDBAOE0JAC5GXlpS6gIsSZfoyHzJkSLVzbmGRhYaH3IK6CamMQiAAgXoR0P/TkunV4WskuqqqqtzLk1v+p6jY/T9t27ZtvcrmIgjURAARFkMFERYDhMOkENixY0f4DVtDmP4NO7zcUnGxdevWLSl1UygEIFBNYPny5e7/ofy5JLqWLVu238zFZs2agQsCSSMQNBGGY37SHgUKbkgC+mIfMWKE23y98jXRNmnSJLvvvvusVatWzq/Mz8A84ogjfFb2EIBAPQh89tlnUTMXN2/eHJ65OHr0aDfbuR7FcgkEsoYAIixrujr7blTO+5EO/HPmzHGiTOExJk6caLt3766egZlfYEXFRe7HI/socccQqDsBzVbULObyGdUzF5vkNLFhecOc2Bo3bhyzmOuOkpwQcARwzOdByFoCn3/+uRs68TMw16xZEzUDU07CjRo1ylo+3Hh2E5AriWYoR85c7NixY9jvUi8uhx9+eHZD4u7TjkDQhiMRYWn3CNGgVBFYtWpVlD+Lhlp8UEg3A7M4ZIe1OixVzaNeCCSVwJbNW6qXGysts4qZFS5Gl4bs8/PznaVLLyWdO3dOahsoHAKHSgARFkMQx/wYIBwGhoDWpCspLXXDL/5HqX///uEfpeGh4daxU8fA3A8NhUAkAa3xOr1kuguKKif6+fPnV790hNd4Hc5LRyQw/g4EAURYTDchwmKAcBhYAorc7Ydn3AzMykrrnJvrhjCLCoucX1mvXr0Ce380PLMJLFmyxIV1kT+XRNfqVatsWF6ee6nwy/80btw4syFwdxlPIGgiDMf8jH8kucFEEdAP1JFHHuk2X+bMipkuVtnU96baI48+Ys2aNgs7KmtSwMCBA31W9hBoUAJz5879z/I/Myttx84d4eH1c889l4koDdobVAaBmgkgwmrmwqcQqBOBvPw80+bTggULwlP2n3/+edu6dWvY2V+iTL5lJAgkg4Bicykki6y0msXYsmVL9+zJynXllVdav379klEtZUIAAodAAMf8Q4DHpRA4GAEFq9QQpg9eqeWX5OwvZ+fiomIrDhVb06ZND1YM5yEQRWDnzp3hFSM0tCjRpeV+9FxJ7Et4de/ePeoaDiCQDQSCNhyJCMuGp5J7TBsC69ats5Lp061sX0TxObNn29B9osz/eLKMS9p0V9o0ZMOGDc7CqnARbpmuykobNHhwtejS2qnDh1v79u3Tpr00BAKpIoAIiyGPY34MEA4hEEFACxoreKyGkbxFQ7GXIsMCdOnSJeIK/swGAl9++WWUBVUx7SLDpQwfPpwF67PhQeAe4yaACItBhgiLAcIhBA5CQNaOyACZsox5UaZhpj59+hykBE4HjcCiRYuc6PKBg2X50rqnbti6uNgNLwbtnmgvBFJBIGgiDMf8VDwl1AmBWghIaGnzqaqqylnKPv74Y3vyySfdx7KKyMlfQ5hDhgzxWdkHhID6tLSk1GZUVDvRq9kSXQUFBXbRRRfZ4MGDA3InNBMCEDgUAviEHQo9roVACgjIaiJLmZz95R+0fv36sNVEokyRzUnpRUCTMyJnLrZr1871mV9MHutmevUXrQkugaBZwhBhwX3WaDkEHIED+Q/5mXISZS1atIBWAxHYtm2bG1qsyc/PT77Az6+BOoNqso4AIiymy/EJiwHCIQSSTGDjxo1RImDWrFk2aNCg8Ey64lDIOnTokORWZE/xa9eutVItdF1W5iyTc+bMsaFDh1bz3meZbNOmTfYA4U4hkEICiLAY+IiwGCAcQqCBCezetdvNwCwtKw3PwPQxpdzC5KEQMaXi6BMf+02WLg0H+9hv8ufS8lWauZjTJCeOEskKAQgkikDQRBiO+YnqecqBQJoSkCA4+pij3eabWDGjwkpKS2zKlCn24IMPuuFKDV9KSGj4kujqnpSZVkGQT5efuajhRj9z8eyzzrb8gvz/ZOYvCEAAAnEQQITFAYusEMgUAhIOkeLBrzMo686zzzwbtc6gIvtHLs2UKQwOdB9aD1QC1cdt03qgun8J1Msuvcz6D+h/oEv5HAIQgEBcBHDMjwsXmSGQHQSWLFliZaVlVlZePeS2auVKF9nfDbkVVQ+5aUHzoKc9e/aEg+XK0jWrstI65+Y6S5eGFouKi6xXr15Bv03aD4GsIRC04UhEWNY8mtwoBOpPYM3qNTa9ZHp4Dcz58+dXr4GZl++ESqi42Fq1bl3/Chroys2bNtl0reVZVu5idGnSwoABA6pFl5zoi0PWsVPHBmoN1UAAAokmgAiLIYpjfgwQDiGQAQS2bt3qLEiKVeYsSLNmWd++faMi++fm5qb8TleuXOliqnkn+oULF7qZi7LoaVKCnOhbtmyZ8nbSAAhAIDEEEGExHBFhMUA4hECGEtAamJHLLXXs2NGJMu/srzUxk520xqKc6H0g2zVr1jgrV+QwarLbQPkQgEDqCARNhOGYn7pnhZohkFEEZFXS5pOG+rQ0z4cffmjjx4+3nJycsCDSskyKXXaoSTG5JPxkjVO4iN27d1fXkV9gF1xwgbN6HWodXA8BCEAgWQQQYckiS7kQyHICCliqbZyNcyQ0FOitVC+++KJt3rzZ+ZV5K5WiyR8saVjRW9sqKyutVatWztom8XfNNde4IdGDlcF5CEAAAulCAMf8dOkJ2gGBLCOwfPnyKH+tpUuXRvlrFeTn24yKCje06P3OevToEXailzWtW7duWUaN24UABGojELThSERYbb3JOQhAoMEIyJ/rlX+8YtM+nWYKkSHnfznNy5fsqKOOsrPOOsv93WANoiIIQCBwBIImwhiODNwjRoMhkBkEDmQJO/bYY93MxVhL2EsvvWRYwjKj77kLCECgmgAijCcBAhBoEAKRPmFyoo/0CTvjjDOsJp8wCTJtPnmfsEmTJtl9990X9gnzMzAVJoMEAQhAICgEEGFB6SnaCYGAEfCzI2dUVM9cjJwdOW7cuHrNjpRQixRrfnakwmNMnDgxanZkcaiY2ZEBe2ZoLgSyjQA+YdnW49wvBJJEgDhhSQJLsRCAQJ0JBM0nDBFW564lIwQg4AkQMd+TYA8BCKQTAURYTG8QMT8GCIcQCCAB1o4MYKfRZAhkIQFEWEynI8JigHAIgQAQUIiIstIyKysvc5HoV61caUOHDTMfWFXBURs3bhyAO6m9iXv27HFrYMrh38Uiq6y0zrm51bHICovc4uS9evWqvRDOQgACaUMgaCIMx/y0eXRoCARSR2Du3LkmIaI1FytnVtqOnTvC0ezHnDPG8vLzUte4JNYsIakYZNp8mlkx00pKS2zqe1PtkUcfsWZNm7n7dzMwi0PWf0B/n5U9BCAAgUMigAg7JHxcDIFgEqiYUeGERkVFhbN0tWjRwi3/o5mHV155pfXr1y+YN5aAVktwRorOBQsWuOWWZCl77rnnbNu2bc5Slp+fb6HikOUX5CegVoqAAASykQCO+dnY69xzVhHYvWu3G3IrLSs1iS6tudi1a1cnugoLCy0UCln37t2zismh3OyyZcucKJPlUPHOVqxYEbYaFhUWuUXMc5rkHEoVXAsBCNSTQNCGIxFh9exoLoNAuhLYuHFjWCRIdCle16BBg6otXYWFVhwKWYcOHdK1+YFr19q1a620pMRK94kyxS7TwuWylMmyKJHbpk2bwN0XDYZAEAkgwmJ6Dcf8GCAcQiDBBL788ksnuuTPJdGlNRiHDRsWJQI03EhqGAIariwpKXE+dt7yqPUvvSjTwuNdunRpmMZQCwSyjAAiLKbDEWExQDiEwCESWLRokZWWljoneg2HrV+/Puyj5C0vh1gFlyeYgBdl8ivTcHC7du1cn2k4WKKsT58+Ca6R4iCQnQSCJsJwzM/O55S7DhCBqqqq/8xcrKx0LZelSz/gF154oQ0ZMiRAd5OdTdWQpDaf1KelJaX28ccf25NPPuk+zsvLcyFAJMoGDx7ss7KHAAQymAAiLIM7l1sLJgFZubRpKEuWrrZt27qhrGOOOca+9a1vYTUJZrdGtVrCWdtYG+s+l3VT1jJZyl5++WXbsGFD2LopUaaNBAEIZB4BHPMzr0+5owAR2L59ezhYaKz/kJ+5iP9QgDo0QU09kJ+fYpXpuVCw3ObNmyeoNoqBQOYQCNpwJCIsc5497iQABNatW2cl06db2T4n+jmzZ7tI9JFO27J8kSAQSUCWMW8hlXV0VmWlDRo8uNrZX2FGhg+39u3bR17C3xDISgKIsJhuxzE/BgiHWUXAx5TyMxd9TCmJruKiYisOFVvTpk2zigk3e+gEdu7c6XzKaor9pskZGr4k9tuhc6aE4BEImgjDJyx4zxgtTmMCiq4eOXNx69atYd+eM8880w0lpXHzaVpACEi4H33M0W7zTZbQVwDZt99+2x544AFr2bJl1AzMbF4FwTNiD4F0I4AIS7ceoT2BIqB1BmWN8KEHtM7gsLzqmYuXXHKJDRw4MFD3Q2ODS0C+Ytp88uuB6qXgmaefiVoPVDM1NcOWBAEIpJYAPmGp5U/tASKwZ88eN4NNP2oSXfLL6Zyb66wNWq6mqLjIevXqFaA7oqnZRGDJkiVuCLN8RnVQ39WrVtmwvDznV6bhSwkzLWhOgkCQCQRtOBIRFuSnjbYnlcDmTZuspLTUykrLrGJm9ZqL/fv3dz9aboZaaLh17NQxqW2gcAgki8Ca1Wtsesl0F/RXM3Pnz59fvQZmfoEVFhXa8NBwO6zVYcmqnnIhkBQCiLAYrDjmxwDhMG0JrFq1Kmr5n88++yy8MLNEV6g4xI9S2vYeDTtUAls2b7GS0pKol44jjjgi/NIhS1nnzp0PtRquh0BSCSDCYvAiwmKAcJg2BLTGog+QKUvAmjVrwk70fnimUaNGadNeGgKBhiSg7279/9Dwuw8c3LFjx31hMaqH37UmJgkC6UQgaCIMx/x0enpoS1IJzJkzJ7z8j2It7d6924mugvwCO++883BUTip9Cg8aAb2AKCisNp+07qWG59//4H177PHHrElOk/BEFIXGGDRokM/KHgIQqAMBRFgdIJElmAQ0XV+bn7nYqlUrJ7r0o3L11VebhlpIEIBA3QloRqW2cTbOXaQhex+S5a9//att3rw5PIQva3LkbM2610JOCGQPARzzs6evM/pOd+zY4YZOvOiaNWuW9ejRo3rm4r7gld26dctoBtwcBFJNYPny5VF+lQpWLNHmV4SQX1mzZs1S3Uzqz2ACQRuORIRl8MOYybe2fv36cMRwt4zLrFluQWT3ZV9YZKHhIWvXrl0mI+DeIJD2BPT/tGR6iZWVlzm/sqqqKhs6dKh7OdKKEfp/yjJdad+NgWogIiymu3DMjwHCYb0IaLkfOQnL0iXRtXTpUvdl7hc01hs2CxrXCy0XQaDBCGjBev//WM7+3mKtlyc3AzkUsq5duzZYe6go8wgETYThE5Z5z2BG3NHChQvdl7X8ufRlvWnTJvf2rC/rM844w+QETIIABIJFQC9Kxx57rNt8y/ViJb+ySZMm2b333mutW7cOh8WQX1nfvn19VvYQyDgCiLCM69Jg3pDeiDXrStG8ZenKyclxokuWrrFjxzLrKpjdSqshcFACeqGKfKmaPXu2s3hPmzbNJkyYYFqpQn5lhQWFblUKDWeSIJApBPAJy5SeDNh9TJ8+PWrmYocOHZzo0pCE3n579+4dsDuiuQcioEXMZcnMzc09UJYaP9+2bZvJpyje4amdO3fa6tWr3XXEeasRbaA+XLx4cXgGpl7Q1q5dGzUDU64IJAh4AkEbjkSE+Z5jnzQC+hH2fiBuzcVZs9wQQ15ennsDluiK9wc6aY2l4BoJ3HffffbCCy84y0RdQntIPOkaie1VK1faXjPr1KmT8+PTcNSYMWNqrGfDhg12//33m6wg/joNTw0YMMA9K1dccYU1bdp0v2tlLXnqqafszTffNM3IUwy4ww47zAYPHux8jS699FJr0aLFftfxQfAIrFy50n2flJdXW83luhA7A7Nly5bBuzFanBACQRNhDEcmpNspJJKA1qRzy5/sc6KfN29etRN9foGNGzfOhodC1qp168hL+DuDCOjH8cc//rFtWL/ezhg92gX77NSxk82qmmWvvvqqvffee86ycdttt0XdtQKB3nzzzbZ+3Tp3nSwcitAu4f7BBx84kaWy77nnHou0cEnwffe737UFCxa4ui688ELr06eP6cf5nXfecddNmTLFHnzwQWvTpk1UnRwEj4Be2EaNGuU2tV5rvE4vKbHysnL3knDrrbc60e5f8hQXUJZ2EgTSkQAiLB17JWBtWvrF0mpLV3n1zEVZMIYOG2by5/rOd77j1lzMaZITsLuiufUhoNnQd911lxt+/MUvfmknn3JyuJijjznarUzwox/9yP73f//Xjj/+eDvttNPC5++++27buHGj3Xb77XbqqaeGPx8xYoTJAqZnSRbVN954w03O8BnGjx/vBNhFF11k1113XVigHXnkkXb++eebyv3b3/5mDz30kKluUmYR0AudrB/alHbv2u1eAuXs/8orr9jv7rzTOufmVjv7FxSaxH2Pnj0yCwJ3E1gCiLDAdl3qGj5/3nz3JScLxcyKmbZ9x/bwzMUx54yxvPy81DWOmlNKQMOBskidc845UQLMN0qWqJ/97GfOIvrSSy+FRW1i3vkAACAASURBVNiUd6aYYkhp5mukAPPXaQjyN7/5jbOiSZT5pOCg+qHVDLpIAebPy2L2ve99zz755BP717/+5f6uaTjT52cffAJ64TvqqKPc5u9G31Oyzk99b6o9/MjD1rxZc/c9pRfFUHHI+g/o77Oyh0CDEkCENSjuYFZWMaPCSstK3bCQHGPlW+Pj+shC0a9fv2DeGK1OOAH5cilddtllByy7e/fuduKJJ9qHH35ospxJKH06/VOX/+KLLz7gdRqG0hqfkUmWsV27dtk3LvpG2AIWeV5/q3xZyf74xz/a7KrZll+QH5uF4wwnoBfDyJdDvUjqO03D288995xpEoiGLyXKFESWZyTDH4g0uj1EWBp1Rjo0RaZ8N3OxvHrNRYWO6NKli/uCOumkk+yG796AKT8dOipN2/DFF1+YnKIPtkSUnPvffvttWzB/gbNC6LrGjRtb78PjmxX7+eefOxL9+tf+ItC/f7WlY2blTH5g0/TZachmyfKl7YILLnDVyqVCokwxy15//XX78ssvw8GgNXFI1jJcKhqyh7KnLkRY9vR1jXcqHxz5TmjzEawHDRrkRNe5Y8bY7bffjlNrjeT4sCYCmrlWFyfoLrld3OXz5s9zP4arVq2y9u3b7/dDt2TJEjdTMrIuWWI1bKmkH0slvSjUlnyYCw2VkiAQS0A+YtrOPPNMd0phMPQyKkvZww8/bHPmzHEzMGUtkyjTxiSPWIoc14cAIqw+1AJ8jX60JLj88j+KwaPghzLDa2hRM4mYyh/gDk5x03v16mWa5XiwtGbtGpfFx4PTdYsWLXKBOWUR80kvBnL0j0wSa16EHX744e6U4oJ17tw5MlvU32vWVNenekgQOBgBvUjIN9H7J2q40osyDV9qZq+eXT8DU6LsYC8CB6uT89lJABGW4f0ukSW/Gb3RyZ9L0/kVU0ei64YbbnAzhTIcAbfXgASGDBniLFeyJNRmEdPwY7NmzWzQwEGudXoRePfdd02WLy/MdEI/gpGO+Hfeead7jv0t6UdQSQJOMcEOlPywpXwZSRCIl4BeTL/yla+4zV+r71W90Gq2rmbgtmvXzvnKOmf/UCjqOfbXsIdALAFEWCyRgB9ryQ99MbiZizNnOsdn53CaX2CKn6QfSRIEkkXALykja4FCStSUFNdJcbs0ocP72Xgxpesiw0hoJmOkmIud2Th0yBBrZGaaaanYUQdKmkEpC5tv34Hy8TkE6kpAoS4io/Vrdm9pSal9/PHH9sQTT7gJIe67V87+xcW1viTUtU7yZR4BRFjA+1SCS5uGbWTpatu2rXsb0xTta6+91gWtDPgt0vwAEZDVSkL/5ZdftuOOO879+EQ2XxM//nj33aZVFC6//PLwKa0LqB+01157zcUPUwyx2KRI+J999lnUx4oRde5557k4YM89+5yNHTc26rwO/v73v7v/I2O/MZah9v3o8EGiCOi51zbWqp9BBQv2L8T6/6DVILwo01qZEmYkCLBsUYCege3bt4f9EvzyP/Jx0X9s/5/aOyAH6LZoagAI+GWLrrrqKrf8UGyTteanX85IPzaygmnI8eyzz3bLBiny/fz5893Ms3lz59ott94adoL2ZcnvRpHvq2bNstNHjTIFW1U4Cw0lysKrWWtaiujGG28M++roWoW50ASSyZMnO+EnAachTV330UcfuWHO0aNHuyj+vi72EGhoAitWrHCizPvjaujd++Pq/4/8cZs3b97Qzcq4+oK2bBEiLI0fwXXr1jnztqZOy9I1Z/ZsF4leoktvUdpk+SJBINkEvAg7UD3XX3+9i8Xlz2uW5DPPPOOeWy1bpVheivMln6yRp4ysMZCrrtVQ5YSJE6uf9zlzXPwmDUHKAV/Xfvvb367xmZeFbeJfJrofOYVV2bJli7Vq1cr5P0rMKf5Y5FJHvp3sIZAqAnpZKZleYmX7VhqZVVlpgwYPds+5YpUVh4rdjOFUtS+o9SLCYnpOb6mKLyWnW1LtBDTcIvO1f1NSNPDYN6VYn5jaS+QsBFJPYMeOHW5CSLyLtGtR7uXLllu37t2cP1dd70TfObI6yCqM8KorNfKlmsDOnTv3G+lQvL3IkQ5Zhkm1E0CExfBBhMUAiTiUf0vkzEX5yfiZixpelImaBAEIQAAC2UlAs9r1Ui73E4V+USBkiTL9NsiH0rsAZCedmu86aCIMx/ya+zEpn+o/kUSXd6Jv1rSZDcurDhdxySWX2MCBA5NSL4VCAAIQgEDwCEhsRb6Mz507142WaMTk6b88bTt37XSiTEP1EmV6iScFiwA+YUnqL1kAFdzPz1ysnDnTOnXu7Mb7NRNM4/0EjkwSfIqFAAQgkAUENPmkrLTMymeUu5f71atW2bB9a2BqNEXO/tk2JB80SxgiLEH/Ubds3mLTS6ZbeVm5zaiYYXIOVhykyPH82iJ6J6gZFAMBCEAAAllKQMt/RfoVa5ku51ecX2CFRYU2PDTcDmt1WEbTQYTFdG+m+oRFPuwaXpR/l0zB+Xn5VlRc5BZ8zfSHPaarOYQABCAAgTQiIONASWmJs5ZVzKxwfmXyI9PwpQ9rlGnGAURYzAOYKSLMm339dGKtVRfpRJ+NZt+YruYQAhCAAATSmIB3k4l09u/UqVP1iE1hkTMg+PVY0/g2am1a0EQYjvkH6E7vAKnZKZUzK23X7l1OdMmf67zzzsMB8gDc+BgCEIAABNKTgPzDFDdPm0+aMCa/svc/eN8ee/wxa5LTxE0Y04QAxaJkwpgnlZw9ImwfV4kt70Sv5X8U6FH+XJpxcvXVVzMVODnPH6VCAAIQgEAKCWhER9s4G+da4UMnKSzGCy+84AIf67dQQ5gSZZGzNVPY7IypOisd831QPJlk5c+lNwEFwdNDpgdMwktB8kgQgAAEIACBbCagoOE+nqV+LxVU3Pk/7/MrkytOOgURD9pwZFaIsMjlIfQQaeaiFlqVumd5iGz+euHeIQABCEAgHgKRy+lp1KiqqsrNwHTO/oVFFhoeqnFpsXjqOJS8iLAYeqlwzNeSJZHKXQsJRyp3WbpYKDWmoziEAAQgAAEIxElg+/bt7vc2cmSpZ8+eUTMwtYRYQ6WgibCM8AlbuHCh8+eSX5csXZs2bXJWLinzUaNGuXHshnoAqAcCEIAABCCQLQRk0Dj22GPd5u/Zxyp766237J577rE2bdq432Tv7N+3b1+fNev3gRRhMn+WlpS6KMHy52rcuLGzdKmDv/GNb9jgwYOzvmMBAAEIQAACEEgFATnwa/Np9uzZbg3MadOm2YQJE2zPnj3Vv9n7Vo+Re1C2pkD4hGloMXLmYocOHZyqLigocE70vXv3ztb+474hAAEIQAACgSKwePFiN4SpGZjyK1u7dm149EriTS5D9U1BG45MOxG2bds2t+Zi5Phynz59omYu5ubm1rd/uA4CEIAABCAAgTQisHLlyig/7kWLFkX5cWsGZosWLerUYkRYDKaDOeZLAWuha+/PNW/ePDfTws1c3GfS1HgyCQIQgAAEIACBzCewceNGN/qlETBZyhTRYMCAAWFjjESZRsRqSoiwGCqxImzpF0urFe++Vd+lgP3MRWeGLA5ZTpOcmFI4hAAEIAABCEAgGwns3rXbrYHp3ZLkC64RMRfbs6A6tmePnj0cGkRYzBMiEXbiiSfayJEjbWbFTNu+Y/t/xn6Lii2/ID/mCg4hAAEIQAACEIDAgQlUzKiw0rJSFxFB1rLmzZpbXn6eTZ482aZOnXrgC9PsTIP4hEmEkSAAAQhAAAIQgECyCSDCkk2Y8iEAAQhAAAIQgEDACTQOePtpPgQgAAEIQAACEAgkAURYILuNRkMAAhCAAAQgEHQCiLCg9yDthwAEIAABCEAgkAQQYYHsNhoNAQhAAAIQgEDQCSDCgt6DtB8CEIAABCAAgUASQIQFsttoNAQgAAEIQAACQSeACAt6D9J+CEAAAhCAAAQCSQARFshuo9EQgAAEIAABCASdACIs6D1I+yEAAQhAAAIQCCQBRFggu41GQwACEIAABCAQdAKIsKD3IO2HAAQgAAEIQCCQBBBhgew2Gg0BCEAAAhCAQNAJIMKC3oO0HwIQgAAEIACBQBJAhAWy22g0BCAAAQhAAAJBJ4AIC3oP0n4IQAACEIAABAJJABEWyG6j0RCAAAQgAAEIBJ0AIizoPUj7IQABCEAAAhAIJAFEWCC7jUZDAAIQgAAEIBB0AoiwoPcg7YcABCAAAQhAIJAEEGGB7DYaDQEIQAACEIBA0AkgwoLeg7QfAhCAAAQgAIFAEkCEBbLbaDQEIAABCEAAAkEngAgLeg/SfghAAAIQgAAEAkkAERbIbqPREIAABCAAAQgEnQAiLOg9SPshAAEIQAACEAgkAURYILuNRkMAAhCAAAQgEHQCiLCg9yDthwAEIAABCEAgkAQQYYHsNhoNAQhAAAIQgEDQCSDCgt6DtB8CEIAABCAAgUASQIQFsttoNAQgAAEIQAACQSeACAt6D9J+CEAAAhCAAAQCSQARFshuo9EQgAAEIAABCASdACIs6D1I+yEAAQhAAAIQCCSBJoFsNY2GQJoQOOGEE9KkJTQDAvUnMHXq1PpfzJUQgEC9CSDC6o2OCyFQTYAfMJ6EIBPgRSLIvUfbg06A4cig9yDthwAEIAABCEAgkAQQYYHsNhoNAQhAAAIQgEDQCSDCgt6DtB8CEIAABCAAgUASQIQFsttoNAQgAAEIQAACQSeACAt6D9J+CEAAAhCAAAQCSQARFshuo9EQgAAEIAABCASdACIs6D1I+yEAAQhAAAIQCCQBRFggu41GQyCxBNasXmNbNm9JbKGUBgEIQAACtRIgWGuteDgJgcwl8Nlnn9k999xjc+bMsY0bN1qjRo2sT58+lpeXZ+ecc44NGzYs425++/btVlFRYUceeeRB7018WrZsad26dTtoXjJAAAIQqA8BLGH1ocY1EAg4gX/84x929dVXW2VlpZ199tn261//2m699Vbr27evTZo0ya6//nr76KOPAn6X+zdfAuzmm2/e/0QNn/z+97+3N954o4YzfAQBCEAgMQSwhCWGI6VAIDAE1q9fbw888IC1atXK7rrrLhs8eHC47aNHj7Yp70yxn/6/n9qf/vQne+aZZ5yFLJwh4H9UVVXV+Q7mz59vI0aMqHN+MkIAAhCIlwAiLF5i5IdAwAk8+eSTtmXLFrvpppuiBJi/rZNOPslZyZo1a2YavmvRooU7tWLFCrv33nutalaVbdi4wXr06GGnn366XXLJJWGh9vTTTztL2iOPPOIE3rRp09xQ59ChQ+1HP/yR9ejZw5VVUlLizt9222027ZNp9vobr9vSpUtdmdf93+vs6GOO9s1x+9dff91eeuklW7RokbVp3caGDhtqN954o3Xu3Dkqn8p97LHHbMGCBa4srYt47rnnWocOHZy177333rMd27fbpZdeavn5+XbLLbdEXa+D2bNn289//nPH6MUXX7S33nrL1M6BAwe6vC+//LL985//tCVLljghO2DAAGc57N27935l8QEEIACB2ggwHFkbHc5BIAMJlJaWWtu2bZ3f14Fu76qrrnLiyguwtWvX2pVXXmmzZs2yy6+43ImU4uJie/SRR0zDdj5t2LDB5s2da3fccYdJxH3nO9+x8847z6Z/+qnd+bs7fTbbsWOHE1QTJ060aZ9Oc3V961vfspUrV9ptt99mW7duDedVnl/96lfWuHFj+973vmennX6alZeXm9ooXzafNHwqYaZ6r7/ueguFQvb888/bnXdW13vyySdbz549LadJE7vwwgvtpJNO8pdG7bt06WKjRo1ynxUUFLi8Xuw99NBDdvfddztBJmF27bXX2ueff27XXHONLf1iaVQ5HEAAAhA4GAEsYQcjxHkIZBgBWZzk+yVRU9c0YcIE27Rpk91/3/3Wf0B/d9lXvvIVJ4Jee+01u+KKK6xr167OIrbXzJX9/e9/3+U79dRTTUN7n3zyie3du9fladyouu7KmZX24ksvhpshcfbwww+bhg0loiTq/vKXv7hJArKu+XTmmWfa5Zdf7kTWN7/5Tffx448/bhJQEkmaZKDUuVNne+ihB61iRoWpvW+++aYtXLjQxowZ44vaby+r2ajTR9n48eNtyJAh4bwSorLGffWrX3X+c/7C4qJiGzv2GzZh4oQaLWs+H3sIQAACsQTq/i0ceyXHEIBA4AjIwqShSG/ZqesNTJ8+3Q4//PCwAPPXnXjCibZ7926bMWOG/8jtjz/++KjjXr16uXzr1q2L+vyYEcdEHfshPVnElMrKylx7Tz7p5Kh8msWp7eOPP3af674k3I499tiwANOJsePG2qTJky2/ID/q+voclJeVu+HZU045JepyDbH2PeKI/RhEZeIAAhCAQA0EsITVAIWPIJCpBBRyQZaeNWvWxHWLEkXyfYpNubm57iP5i0WmoqKiyMOwX5kEW2TScF9kUvuU9uzZ4/ay2in9z9//x954M3qmourU5AKlZcuWuX3Hjh3d3v8ji1jTpk394SHtl69Y7q6XxS82derUyc00jf2cYwhAAAK1EUCE1UaHcxDIQAISU3Pnzg0PDdblFnft2mVNmuz/ddE4p9qYrvORqaa8kef93zk5Of7PGve+XIm67t2775fH17Nz5053Lp4h1v0KO8gHGipVqknUqd5YgXmQ4jgNAQhAwPb/VgUKBCCQ0QTk5yT/LM04VEiKmtKr/3zVZlTMsP/+7/92TvwavqzJeuY/q0kg1VRuvJ/17NHTXaKh0Msuu+yAl/v6V69efcA8h3rCB21dtWrVfkVpmNVbBfc7yQcQgAAEDkAAn7ADgOFjCGQqAQVn1ZDko48+aooKH5vkxH7XH+8yhZfQTEMlhZhQ3lgBohmJcoGXsEtGGjJ0iMlaptATkUkO/n//+99t8eLF7mPN9tQwodocmd6ePNlOO+00++CDD8Ify2Kl6+uSvCVOefOG5Tl/s3//+99Rl0qAaeKBD2ERdZIDCEAAArUQQITVAodTEMhEArIaKUirHPQVFuKB+x8wiRVZxn72s5/ZTTd93/lw3X7b7WFfLs1EVFL8LAkfhYaQtezVV1+1k04+2bxDfaJ5yfqkcBGaGKBwE5qhqDhef/jDH9wsyEhRqHhlChfxu9/9zs2AVNDZRx97zIWlOO6441zTZFHT0KVmSdYkQH37c7vkuiWLJOo0dKt65YA/cuRIF0Vf97550yZXj0JVyIdNITNIEIAABOIhwHBkPLTIC4EMISCrjUI5yJr0/gfv2/PPP2eyDcnydeKJJ7q4V5rR6JNmIiqCvmJuSewoNW/e3M444wwXqNTnS8b+hz/8oXPAV8iI+++/34W/6Nevn1t+aPjw4eEqFY9MfltPPPGEvfLKK+5ztVvLFPmQFbKKSYApjpnE6AsvvBC+PvIP+X3JYqjArFreSUs6KSyG9po88Me7/2i/vfO3zgrY6/DDHcsjjjgisgj+hgAEIHBQAo321tUuf9CiyACB7COgiOxTp04N/I1rKaNt27a5OFtesBzopmQB2rBxo1vY+mB5D1RGfT9fvny5tW/fPmyhO1A5mjkpQalh15qSLGia0Xiw9uteG+fkOOEVWY6+NpctXebaclirwyJPBe7vTHmGAweeBkPADMd8ngIIQMCsXbt2bqsLi1atW5u2VCTvHH+wumsKIxF5TV3jpB3oPiXe/BJMkeXyNwQgAIF4COATFg8t8kIAAhCAAAQgAIEEEUCEJQgkxUAAAhCAAAQgAIF4CCDC4qFFXghAAAIQgAAEIJAgAoiwBIGkGAhAAAIQgAAEIBAPAURYPLTICwEIQAACEIAABBJEABGWIJAUA4EgElCoBS3OvfSLpbZ169aU3YICqP72t791QWMjG6GAqhMmTHABZf2i3pHn+RsCEIBAkAkQrDXIvUfbIVBPApWVlfb444/bp59+6qK9+2IU+V7R8b/2ta/5j5Kyl7hS0FMfckJLCaktfg1IVbpo0SK74oorXKyvwsJC27tnrxmvjUnpDwqFAARSQwARlhru1AqBlBFQwNMf/OAHpqjwWmonFAo5QVRWVmZ//etf7Vd33OEW7fZL/SSjob///e9txIgRTmSp/BYtWri6I+vSGpay1H33u9+1U089NfIUf0MAAhDICAK8V2ZEN3ITEKg7gXfefset/XjxxRfblVdeaUVFRTZo0CC78MIL3bI8KkliLJlJC14fLG3ZusVlSda6lAern/MQgAAEkk0AS1iyCVM+BNKMwBdLv3AtOuGrJ+zXMlnFxv/5z6aFrn3SWoxTpkyxB+6/337/hz9YeXm5afhQeX/4gx9ERc/X2o0PPfSQffTRR6alg3Jzc624uNiuv+46l0+Lb2sRcC0e/uKLL9pbb71lWgBb9X3zm990a1Feeuml9stf/tK0eLbST37yE7cEkfJs3rzZ7r33Xt+08N5b9n7zm9+EP+MPCEAAAulOAEtYuvcQ7YNAggn4haaffOpJ271r936la3FvDQ/6tG7dOpPl6ic//akTQ9dee60bHpw8aZLdcuutPpvbX3/99W5R8FGjRtmvfvUrG3POGJs8ebJ9+//8Hze02KVLF9M5pYKCAmd90xJCGnaUD9jq1avduZEjRzrxpoPTTz/d5Rs6dKiVlJQ4Eegy7ftn8eLFTvQNGDAg8mP+hgAEIJD2BLCEpX0X0UAIJJbA2Wefbf/617/c9uGHH9qxxx7rrFpHHXWUs1zF1ta4cfW7mhbD/vGPf+xOjx492lmlXnvtNZOTvYSdFjKXw7+E2EUXXeTyqew2bdrYnb+701m9JMBGnT7Kxo8fb0OGDLExY8a4fLEzM48//nhbunSpE3Ann3yySRiuXbvW/vznP5vqlKO+T7KmNTKzr3/96/4j9hCAAAQCQQBLWCC6iUZCIHEE5JD/yCOPOIf3nj172htvvGG//vWv7fzzz7err77aHddU2xlnnBH1sYSS0qxZs9z+k08+cXtZriLTKaec7A5LS0sjP477b4nAY445xg2NKqSFTxoqLSouDs+09J+zhwAEIJDuBBBh6d5DtA8CSSAg65Yc8eW/9corr9gvfv5zZ0latmyZ3XHHHfboo4/uV2uPHj2iPtMwotKqVavc/ssvv7QmTZq4kBKRGVu1bm3Nmzd38cgiP6/P37Libdq0yd599113uYYiZYk742vRArE+ZXMNBCAAgYYmgAhraOLUB4E0I9C2bVs7ZeRIu+WWW+yZZ55xsbq03759e1RLlS8y5eTkuEM56SvJOiURVlOS6Nu1a1dNp+L6TNa3jh072uuvv+6umzRpkguvcepphLCICySZIQCBtCCACEuLbqAREGgYAnKAnzt3rlVVVdVYoYb85MclYSXLVmRas2ZN5KHJYV8pt3Ou28vpftu2bftF3peYk89X165do66vz4HEnHzKNHNy86ZN9s4779gJJ5wQNZGgPuVyDQQgAIFUEECEpYI6dUIgRQQUQkLBT2+44QbT0GNskkibN2+eGz6Uv1hk8j5f/jOFqlAaMLB6VmJ+Xr47fu+993wWt//w3x+6/eDBg6M+r69l7Oxzzrbdu3bZX55+2hYsWGBnnnlmVLkcQAACEAgKAURYUHqKdkIgAQTkmyXne8Xpuummm9zSRf/+979NTvNao1ECbcaMGTZu3DjzsyJ9tRoCVF5ZtWSJ+tvf/mYKC6FZjkpy3Je1S35mCiWhfNrfd9991iW3i5111lkuX26XXDeEqDJkldOsx3iSgrfm5efbs88+6+obPnx4PJeTFwIQgEDaEKjZgSNtmkdDIACBRBOQQ778qp577jmb8NRTtndfBQrz0KdvX7ekkQ8dEVn3zTffbL/4xS/s88WL3TX9+/e3yOCoOU1y7IEHHnCO/TfeeKNbk1JCTsFa5W+mWZlK2svB/uWXX3aC8NZbb7VTTjklsqqD/n3W18+yiooKF3OsUSO1nAQBCEAgeAQa7dX4AwkCEKgXAfkjKT5WUJOc6TW7UYtjy0LlhVLk/dxzzz0uuv2bb77pLFgbNmxwAqt9+/aR2aL+Vrlao1ILdNdUpjLLp6txTo4rM+riOhzIavfkk0/a888/X2NsszoUQZZ9BIL+DNOREAgyASxhQe492g6BQyQggdS9e/e4SomdJVnTxSo3cumjmvIodEV9ksTdxIkTnRVMyyKRIAABCASVACIsqD1HuyGQZQTKysrs1VdfdcFa27VrZ9dcc02WEeB2IQCBTCOACMu0HuV+IJBgAr169XLLBMU66ie4moMWp8W7NXQqB/+xY8cyDHlQYmSAAATSnQA+YeneQ7QvrQngT5PW3UPj6kCAZ7gOkMgCgSQRIERFksBSLAQgAAEIQAACEKiNACKsNjqcgwAEIAABCEAAAkkigAhLEliKhQAEIAABCEAAArURQITVRodzEIAABCAAAQhAIEkEEGFJAkuxEIAABCAAAQhAoDYCiLDa6HAOAhCAAAQgAAEIJIkAIixJYCkWAhCAAAQgAAEI1EaAYK210eEcBOpAQHGWSBCAAAQgAIF4CRCsNV5i5IcABCAAAQhAAAIJIMBwZAIgUgQEIAABCEAAAhCIlwAiLF5i5IcABCAAAQhAAAIJIIAISwBEioAABCAAAQhAAALxEkCExUuM/BCAAAQgAAEIQCABBBBhCYBIERCAAAQgAAEIQCBeAoiweImRHwIQgAAEIAABCCSAACIsARApAgIQgAAEIAABCMRLABEWLzHyQwACEIAABCAAgQQQQIQlACJFQAACEIAABCAAgXgJIMLiJUZ+CEAAAhCAAAQgkAACiLAEQKQICEAAAhCAAAQgEC8BRFi8xMgPAQhAAAIQgAAEEkAAEZYAiBQBAQhAAAIQgAAE4iWACIuXGPkhAAEIQAACEIBAAgggwhIAkSIgAAEIQAACEIBAvAQQYfESIz8EIAABCEAAAhBIAAFEWAIgUgQEIAABCEAAAhCIlwAiLF5i5IcABCAAV9QhxAAAARlJREFUAQhAAAIJIIAISwBEioAABCAAAQhAAALxEkCExUuM/BCAAAQgAAEIQCABBBBhCYBIERCAAAQgAAEIQCBeAoiweImRHwIQgAAEIAABCCSAACIsARApAgIQgAAEIAABCMRLABEWLzHyQwACEIAABCAAgQQQQIQlACJFQAACEIAABCAAgXgJIMLiJUZ+CEAAAhCAAAQgkAACiLAEQKQICEAAAhCAAAQgEC8BRFi8xMgPAQhAAAIQgAAEEkAAEZYAiBQBAQhAAAIQgAAE4iWACIuXGPkhAAEIQAACEIBAAgggwhIAkSIgAAEIQAACEIBAvAQQYfESIz8EIAABCEAAAhBIAAFEWAIgUgQEIAABCEAAAhCIl8D/B2zu/SS+YJSkAAAAAElFTkSuQmCC;" vertex="1" parent="1">
                    <mxGeometry x="-810" y="-3203" width="609" height="281" as="geometry"/>
                </mxCell>
                <mxCell id="30" value="" style="shape=image;verticalLabelPosition=bottom;labelBackgroundColor=#ffffff;verticalAlign=top;aspect=fixed;imageAspect=0;image=data:image/png,iVBORw0KGgoAAAANSUhEUgAAAk0AAAMPCAYAAADIHeGLAAAgAElEQVR4AeydB5hTxfrGP5beOyy9l62A/BGQ3pFqQ5qCiKhcRfGioFi4liuiAlKuCCIqIojYQRSQjiCChS30ovTee/0/77AnnmST3eTkJDkneed5QrInZ9pvhuTNfN98k+XGjRs3hIkESIAESIAESIAESCBDAlEZvss3SYAESIAESIAESIAEFAGKJk4EEiABEiABEiABEvCCAEWTF5B4CwmQAAmQAAmQAAlQNHEOkAAJkAAJkAAJkIAXBCiavIDEW0iABEiABEiABEiAoolzgARIgARIgARIgAS8IEDR5AUk3kICJEACJEACJEACFE2cAyRAAiRAAiRAAiTgBQGKJi8g8RYSIAESIAESIAESoGjiHCABEiABEiABEiABLwhQNHkBibeQAAmQAAmQAAmQAEUT5wAJkAAJkAAJkAAJeEEgmxf38BaLE2jSpInFW8jmkQAJkIC9CaxcudLeHWDrTSFA0WQKxtAX0qZNG9m8ebMcOnRIqlWrJjVr1pTY2FiJj4uX0mVKh76BbAEJkAAJWJjA/n37JSU1RTZu3Kg+S7dt2yYlS5ZUn6WLFi2ycMvZtGASyHLjxo0bwayQdZlPACtN2q+gM2fOSEpKiqSmpqr/+Fu3bpWoqCipXr26+s8fFxcnCfEJkidvHvMbwhJJgARIwAYEzp87L8kpyU6fk9evX3f6nIyPj5f8+fOr3ug/Y23QPTYxgAQomgIIN1hFZ/Yfes+ePerDAUJqy5Ytgl9QZcuWlRo1akhMTIzgwwGvmUiABEggHAngcw8/Jjdt2qQ+A/fu3eu0Io8fk+XKlfPY9cw+Yz1m5BthR4DmubAb0vQdwocBHu3bt3e8mZKcIqkbUyU5OVnmzJkjx44dc/oQgZCKjo523M8XJEACJGAHAgcPHlQCSW9mK1q0qFppx4/EO7reIfEJ8XboCttoQQIUTRYclGA0CR8a+g+OU6dOOcx68+fPl7Fjx0rOnDnVcjU+aPBLDEIqV65cwWge6yABEiCBTAlcvHjR8bmFVSS4I1y6dEmtnMOvs3fv3upzq2DBgpmWxRtIwBsCFE3eUIqAe/Ch0qhRI/XQuvv33387zHrwmYJZr2LFik5mPTidM5EACZBAMAjgM0hvZvvrr7/UCjncC5o2bSoDBw6UChUqBKMprCNCCVA0RejAe9NtfPjg0aFDB3U79gwkJSXJxtSN8scff8isWbPk1MmTUr1GDalZA7v1YiQ+IUGKFy/uTfG8hwRIgAQ8Ejhy5IikJCfLxo2bZPOWzbJ1yxYpWKjQTTNbzRjp2LGjJCYmSpYsWTyWwTdIwGwCdAQ3m2gIygulk+KJEyeUX5TmPwCHy7x58kr1GtWVk7lm1suRI0cIyLBKEiABOxC4fPmys5lty1Y5d/6cw8ymfY4ULlw4JN0J5WdsSDrMSj0S4EqTRzR8wxsC+BDDsjgeWtq1a5ekpqQqR/OlS5cqs17VqlXVB6CKHRUfL5UrV9Zu5zMJkECEEdi5c6cSSfixhR9a27dvd5jZbmt4mwwYMEAqVaoUYVTYXTsQoGiywyjZrI34sMOjU+dOquXXrl6TpOQk5R+1du1amT59upw9e9bxKzI2JlYSEhKkSNEiNuspm0sCJJAZgePHjt9cjd50M2gkRFK+fPkcvpHt2rWTxIREyZota2ZF8X0SCDkBmudCPgT+N8COS8dHjx4VhD1QZr0tm9WvzQIFCih/Bex6wXI8/BUQmJOJBEjAHgQQIBJ+j4gJp8VEOn369M0fSMrvMVbt2i1WrJg9OpTWSjt+xtoKsI0ay5UmGw1WODUVH5rNWzRXD61fO7bvUFF68WGLYwuwhI/dedgZExcbJ3HxcWr3nnY/n0mABEJLALvXNFM8VpCwuw2md/yfrVevnvR7oJ9UqVoltI1k7SRgIgGuNJkIM1RFheuvIMRb0Y6EUTFYtmyVCxcv3PzVmrYahdhRhQoVChV61ksCEUPg5MmT6TZ95M6VO92mD8R3C7cUrp+x4TZOwegPRVMwKAe4jkj6D3348GGnD278soUzOkx6MTVjJDYuVpn1AoycxZNA2BPQwots2rxJnWOJnbL6w8Dhh1iiRImw54AORtJnbEQMqB+dpHnOD3jMGnwC+JBu1aqVemi1IwqwFvBu/g/zZffu3f+Y9eLilH9U+fLltdv5TAIk4EIA/2fgh6Q/nxL/Z2Bmq1WrloqsjUO/mUgg0glQNEX6DAiD/uPDXP+BfuHCBeVkjrP1li1bJlOmTJGrV6+mO8EcjudMJBBpBOCYrZm9N2/erI4eyZYtm+PIpGZNmyln7dy5c0caGvaXBDIlQPNcpoisfwOXjjMfowMHDjjiwuCLAmY9RC5XZj2crZfmaJ55SbyDBOxFQHPUhl8g5j4ibevNbPALLFWqlL06FeTW8jM2yMAtXB1Xmiw8OGyaeQTwpYBHmzZtHIXiC0Qz63377bcCYaX/MkHYg7Jlyzru5wsSsDqBvXv3KhObFqEfPw5Kly59cwdqXJx0795d/VCwej/YPhKwKgGKJquODNsVcAJYZcJDS+fOnpXklBT1pfPTTz/Ju+++q96C6Q/3QUQlxMdL3nz5tCx8JoGQEdDPV83MhsZo87Vfv36cryEbHVYcrgRonguDkeXSceAGMaNf7jExMQLThl54Ba4lLDnSCehXRhETaf/+/VwZDdKk4GdskEDboBquNNlgkNjE0BGAeQ4PHPWgJc1HBDuNvvzyS/qIaGD4bBqBzHzw7r77bsE5jkwkQALBJUDRFFzerC0MCCAyOR5a0u9G+vHHH2X8+PGi340EJ/P4hHjhbiSNGJ/1BLTdnimpKcpRGyE09Ls977//frWiyd2eemp8TQKhIUDzXGi4m1orl45NxWlKYRnFvdHMevowCaZUykJsQUAfVwxmNsYVs/6w8TPW+mMUrBZypSlYpFlPRBFAYEA8br/9dke/tQjLGzZskNmzZwsiLEM4IYAgTC2RFGHZASXMX2QWwb5z586MYB/mc4DdCy8CXGkKg/HkryB7DmIkn+VlzxHLuNU8KzFjPnZ+l5+xdh49c9vOlSZzebI0EvCaAA4axocxHlrSnxq/fPlyp1PjsRoVHxfPU+M1WCF+3rF9hySnJAuCRsLMtnPnTsfxPY0bNZZHHnlEKlasGOJWsnoSIAEzCVA0mUmTZZGAnwTwJYtHx04dVUnXr18XmPWwU2/dunUyY8YMgeM5THo1a9RUZj04mRcrVszPmpk9IwJHjx5VR/OooJFbNiuRBMdsLdYXzLCJiYkSFRWVUTF8jwRIwOYEaJ6z+QCi+Vw6DoNB9KELx48dl+TkZNm4aaPabYVVjnz58jm+wBGEE/GjsmfP7kOpvFUjcOXKFcfZbNoq0tmzZ28K1Zo1JTbmpv9ZkaJFtCx8DnMC/IwN8wH2oXtcafIBFm8lASsQwJd1s+bN1ENrD0xDOBIGKyGLFy+WHdu3S9Vq1W4en5F2rl6lSpW02/msI7Br1y7RYm9BgG7ftk2qVK2q2NWvX1/69+8vlStX1uXgSxIggUglwJWmMBh5/goKg0E0uQuXL192Wi3ZumWrnDt/7p/VkrTdeoULFza5ZmsXhx2LapVu4z+rdHnz5JXqNaoLQkFoq3Q5cuSwdkfYuqAS4GdsUHFbujKKJksPj3eN439o7zhF+l043T4FZr2Nm2TT5k2ybetWKViokDLrxdSMkdi4WOWXkyVLlrBAdePGDeUPtjF1o+ovjiE5dfKkVHf4g8VIfEKCFC9ePCz6y04EjgA/YwPH1m4l0zxntxFje0nAIAGIgxYtW6qHVsS2bdvUihR8d35c8KNg9141zawXF6dWXipUqKDdbunnv//+WznMw2keZjb0DU71cJq/5ZZbBJG10TcmEiABEjBKgCtNRslZKB9/BVloMGzelIsXLzqb9bZuFZj6EIQTO8U081XBggVD2tNTp0452okVJIiknDlzqnbqzWy5cuUKaTtZeXgQ4GdseIyjGb2gaDKDYojL4H/oEA9AmFd/8OBBJVDUdvvNm9UKTtGiRW+a9eAHlHa2XiAxpCSnSOrGVBUTCSLp2LFjatUIQk6Lpl6yZMlANoFlRzABfsZG8OC7dJ3mORcg/JMESMCZQHR0tODRunVrxxtY2cFuPZj15s2bJ3v37nUSMViRKleunON+X17s2bMnnZmtbNmyysyGo2Z69uypXvtSJu8lARIgATMIUDSZQZFlkECEEYCfEB5aOn/uvIqODX+iJUuWyHvvvScIzOlq1sufP7+WRT2fOXPGycyGw2wRIBL5YGbDdv+E+ATJkzePUz7+QQIkQAKhIEDzXCiom1wnl45NBsriTCGwf99+SUm9GTsKJjU4ZiPEgRbmANv/8YBztmZmwzExpcuUNqV+FkICZhHgZ6xZJO1fDmP+238M2QMSIAESIAESIIEgEKB5LgiQWQUJhDsBvXkOq0ows+nNc3379lVHu2Rknlu4cKFMnDjRyTynnLxpngv36cP+kYBtCNA8Z5uh8txQLh17ZsN3AkNA7wiO18FyBIefE87V0/tTBaaHLJUE/iHAz9h/WET6K640RfoMYP9JIBMCmYUcuKPrHRKfEJ9JKd6/jV13eLRv396RSQs5gCNQ5syZw5ADDjJ8QQIkEEwCFE3BpM26SMDiBDILbtm7d2+10hPs4JYQZXphpg9uOX/+fBk7diyDW1p8brF5JBAOBCiawmEU2QcSMEhAf4wKzGz6Y1SaNm0qAwcOFCseowLR1qhRI/XQuq4/RmXlypVOx6jANwqxo3iMikaLzyRAAkYIUDQZocY8JGBDApkd2NuxY0dbH9gLcYdHhw4d1OjoD+z9/fffZebMmTyw14bzlk0mASsRoCO4lUbDYFvopGgQXBhnw3lxiNiNYJOI2r11y1Y5d/6ccqDWYiIhurYWMymMUTh1DXGh4BelHQmD1bW8efJK9Ro3g2lqZ+vlyJHDKR//iGwC/IyN7PHX954rTXoafE0CNiWwc+dOx/lwEAI7tm+XqtWqKZF0W8PbZMCAAVKpUiWb9s68ZkMkwuyIh5Z27dolqSmp6my7pUuXyvZt26RK1aqKHcx62K1XuXJl7XY+kwAJRDABiqYIHnx23Z4Ejh87fnO1ZNNGQUwkiKR8+fKpqNpYRWrXrp36os+ePbs9OxjkVkNM4tGpcydV85UrVxyrdGvXrpXp06fL2bNn/1mli4kVrNIVKVokyC1ldSRAAqEmQPNcqEfAhPq5dGwCRIsWgQCRSUlJDjMbBNLp06dvfoHXqClqJSQhXooVKxbyHly4cEGJi+LFi/vUFuzYw264kiVL+pQP4ubYsWMqX5YsWXzK6+vNR48eFYQ9UGa9LTeFaoECBRxCFWa9xMREFZjT17J5v/UJ8DPW+mMUrBZypSlYpFkPCXhBALvXNFMRBBJ2t8E0hGCO9erVk34P9JMqVat4UZKxWyZMmCCff/65Wl3xxpwHsYM8cLQ+euSI3BCRokWLqsN2GzRoIF27dnXbEAg/RP9ev369Ix9Wy6pWrSq1atUSRBB3t1IGEfnxxx8LoocfOHBArl27Jnny5FF8IFruu+8+yZUrl9s6/bkIUdq8RXP10MrZsX2HOqQYPmOLFi0SmEixOw9jFRcbJ3HxcVKxYkXtdj6TAAmEAQGKpjAYRHbBngROnjyZzik5d67cDqfkVq1aKTNbzpw5LdlBrIANHz5cTp86Je1vv11uueUWKVqkqGzavEm+//57WbVqlfz5558yYsQIp/ZjtWbYsGFqJxvy1alTR4oUKaJYrF69WokilD1u3DjRryBBoD3xxBNKnKCubt26qd1yEJrLli1T+ZYvXy7vvvuuuB7X4tQAk/6AeMXjjjvuUCVeunTJYdZb9fMqmTZtmly4eOHmqmDNmirkAfyjChUqZFILWAwJkECwCVA0BZs464tYAhACG1M3KlEBXyTs5Kpevbr6Uu3UqZM899xzUqJECVvwwXb+0aNHK3PcK6+86rQCU+/WenLnnXfK0KFD5aefflKxlFq3bu3oFwJRnjlzRkb85z8CYail+vXrqxUmxIb6448/ZMGCBU5RwT/44AMlmO699155/PHHHYKqbt26ctddd6kAl19//bVMmjRJ1a2VG6xniFu0BQ8tHT582CGMZ82apVYO4YwO37OYmjESGxerzHra/XwmARKwNgGKJmuPD1tnUwK7d+9WfkjY8q+Z2cqXL68EEsxPiKwNwWTXBPMYzFFdunRxEkxaf7DS89JLL0nPnj3lyy+/FE00LV+2XDmv44gUvWDS8sEkN3LkSLVKBRGlJRzlMnfuXGXu0gsm7X2sSD311FOybt06+eGHH9Rrd+Y97f5gPUMEo5/6vuIwY4SDgFlv/g/zBXPFYdaLi1MrUpgrTCRAAtYjQNFkvTFhi2xGAP45WkwkrCDhSzFbtmxKFOGA2WZNm6kjQHLnzm2znnluLnyRkO6//36PN5UqVUpt7f/ll18EK1MQNr/9/pu6v1evXh7zwZEcK1X6hJWnq1evSvd7uztWmPTv4zXKxyrUmDFjZMvmLU7HrrjeG8q/IZb1ghkO9HAyT0lNUWbGKVOmqL7iHqxIabGj4HjORAIkEFoCFE2h5c/abUhAc9TGSgFEEiJtY6UAX3BYQXn66acFgiGc0759+wQiMDo6OsNuwpkcsY927tip/H+QLyoqSsqX820lZc+ePaqeylUyjpdUpcpNJ/nUjamWFU2uwMARJk08tAQndwhx+H998sknyqwHManMejExytcNOyeZSIAEgkuAoim4vFmbzQjs3btXmdm0CNLYzVa6dOmbO6Ti4qR79+7qi8xm3fK7uRCK3kQTL1H8po/W9h3blWjC1n04QmfNltWpDeCsrV5pb2AXHEQoEnyDkDLz+dLCFsB0aOcE0Y1HmzZtHN2AQNfMet99953s37/fIda1s/XKli3ruJ8vSIAEzCdA0WQ+U5ZoUwLnzp6V5LSjRzQzG7qimUn69esnCfHxkjdfPpv20Lxm48sZQjKzdPzEcXWL5qODfDhYF6EDsOKkJYgBOJbrE8SVJprKlSun3kJcpoxiUh0/frO+cBQPWGXCQ0v6+QqHe+waRNLmK8x6nK8aLT6TgDkEKJrM4chSbEhA/8sdr2ES0cxscFx+8sknJRy/fM0YKnx5Y2UIOwAzWnGCOQ7nuFWvdtPpHT5eK1asEKwsaUIK7YGjtN7xe9SoUWqFT2srBAASBBfiIHlKmhkPW/vDPUG8IxYWHlrSr4x++OGHyqynrYyCPbjohZeWj88kQALeEaBo8o4T77I5Ab2PCAQSzGx6H5G77rxLBSO0eTeD1nx8ASN99tlnghAB7hJWQhA3CcE5NXOcJn6QDyEJtISdbnrx5brzLaZmTUHMb+zEa9u2rZYt3TN22GEFS2tfuhvC/AJEPh44SkdLmg8ednKCn94HTztbL9x98DQWfCYBfwlQNPlLkPktR0DbjQRnYDhrYzcbdl5pZgvs+MIvbu5GMj50WBXCisVXX30lDRs2lNq1azsVdu3qNRkzdqxgLPr06eN4LzEhUQWznD9/vorf1KhRI8d72gsIXByiq09YVbnjzjsFcZg+m/WZ9OjZQ/+2ev3tt9+qYJo9uvcISFTwdBXa5AIik+OhJf1uzx9//FHGjx/vtNsT0czjE+KVo7+Wh88kQAI3CfDsuTCYCZF+LpI+7g1iIjHujfFJrR2jAv8tHIfimnBUiXa8Cr58scoEE1znzp1VkEZE9t6xY4fgy3j7tm3y7HPPSYcOHZyKwVlziOy9edMmadO2rQoGiZUOmNYwfsiLo1EGDx7sFN8IYQv+85//yJIlS5RQg+CCiQ/5cLAuzH633367ilLuVCH/yJRARnHFNLMefnREaor0z9hIHXd3/aZockfFZtci6T+0PsKyZmZjhGXzJqwmmjyVOGjQIBULSXsfpp6ZM2eqXV3bt29XK3owe2Ilr2WLlm4DXyIvTHfTP/lE5YPohZCCSQ4O38j7yCOPuF0JxArWJzM+UStKWEU8f/685M2bVx1cjEjciP+kP3pFayeffSfgLoK95vMHs15CQkKmuxl9r9WaOSLpM9aaI2CdVlE0WWcsDLckXP9D68/yUma2LVt5lpfhWRL4jJcvXxacDwfR5EvCTrqDBw5KdKlopx11mZWBladDhw4JwgxQKGVGy//3MzsrUQvCadWzEv0hEK6fsf4widS8FE1hMPLh8h9af2o8zDQ8NT4MJie7ENYEcFiy5miuHRcEx3/scFRO5nHxKj6X3SGEy2es3cfBCu2nI7gVRiEC24Aghzg6QgWN3LJZ+bLAMRvOxXjANwX+M/pYPhGIiV0mAUsTqFixojoPsGOnjqqdWDWEWQ879XAO4IwZMwS+bxBRNWvUvCmkEuIzjLVl6Q6zcRFPgCtNYTAFrP4rCH4oSck3P0hhZsMv0rNnz978IK1ZU2JjbvpHFClaJAxGg10gARLQEzh+7LgkJyfLxk0b1bFD+P+fL18+9f8fTuYw62FXpRaWQp/XKq+t/hlrFU6R0A6uNEXCKAe5j9gu7rpkX7VqVfUhia3q/fv3V7F7gtwsVkcCJBACAvgx1Kx5M/XQqofpXTtbb/HixYJNBHAyx4oUQh4gRIK2S1PLw2cSsAIBrjRZYRT8bEMofwUhIrT6Fbnxn1+RefPkleo1qqsAg5pzKKJCM5EACZCAOwLYRAARBbOetunj3PlzjtVo7XNEHwDVXTmBuhbKz9hA9YnlGiNA0WSMm6VyBes/NHYruW5DPnXypFR3+CvESHxCgs+7pywFk40hARKwBAGEs0iBWW/jJtm8ZbNs3bJFChYqpHweY2rGSGxcrPJ7DMbOyWB9xloCPBuRIQGa5zLEE9lv4pwv/PLDQ9sZA8dPLKHXqVNHEFkbS+pMJEACJGA2AYSuaNGypXpoZeP4I6xIYTXqxwU/CnbvOcx6cXHKP6pChQra7XwmAdMJcKXJdKTBL9CMX0GIr6MtjyNoJEQS4q0gCrDmrImgg7ly5Qp+B1kjCZAACbghgKCo2ueWMutt3SqI76Z269WsqUQUPrcKFizoJrf3l8z4jPW+Nt5pZQIUTVYeHS/bZuQ/NLb7a2ezQSQdO3ZM/WLDdn/tEM/o6GgvW8DbSIAESMAaBA4ePKiElApnknY4N44Ewmeb+gGYdraeL6018hnrS/m81z4EaJ6zz1gZbinO5nI1s+EkdPwaw1EIPXv2VK8NV8CMJEACJGARAvixh0fr1q0dLcLKuWbWmzdvnuzdu9fpRyIczXGEDxMJZEaAoikzQjZ7/8yZM47laqwg4VwvBIiEmQ2/tLDdPyE+QfLkzWOznrG5JEACJGCMAH4g4qGl8+fOS3JKsvoxiQOg33vvPUFgTu1zUtutlz9/fi0Ln0lAEaB5LgwmApaO27RpowLH4Swu/aGa8XHxUrpM6TDoJbtAAiRAAoEjsH/ffklJTTulIM2sh3MN8WNz0aJFsnLlysBVzpJtQ4CiyTZD5bmhEE1MJEACJEACgSNA0RQ4tnYqmaLJTqPFtpIACZAACZAACYSMQFTIambFJEACJEACJEACJGAjAhRNNhosNpUESIAESIAESCB0BCiaQseeNZMACZAACZAACdiIAEWTjQaLTSUBEiABEiABEggdAYqm0LFnzSRAAiRAAiRAAjYiQNFko8FiU0mABEiABEiABEJHgKIpdOxZMwmQAAmQAAmQgI0IUDTZaLDYVBIgARIgARIggdARoGgKHXvWTAIkQAIkQAIkYCMCPLDXRoPlqak8RsUTGV4nARIgAXMI8BgVczjavRSKJruPYFr7+R86TAYyAroBkc/5GgEDHUZd5A/TMBpMP7tC85yfAJmdBEiABEiABEggMghQNEXGOLOXJEACJEACJEACfhKgaPITILOTAAmQAAmQAAlEBgGKpsgYZ0v3cumSJfLGG2/IlStXQt7OTz/9VKZOnRrydrABJEACJEAC1iNAR3DrjYnlW/T666/LDz/8kGk7O3bsKM8++2ym9yUlJ8v3338vTz75pGTPnj3T+wN5AxyUT58+LQ899JBp1ezatUty584t0dHRppXJgkiABEiABIJPgKIp+MxtX2OHDh0kLi7O0Y+NGzfK/PnzBSIpJibGcb1SpUqO15H84q233pL69etL3759IxkD+04CJEACtidA0WT7IQx+B2rXri14aClnzpxKNNWtW1fatGmjXeZzGoEdO3Yo0UQgJEACJEAC9iZA0WTv8bN86zdv3izz5s2TDRs2yIEDB6RkyZJy5513yj333JNh23fv3i0jRoxQK1dDhw5V9167ek2mfjBVxfg5ePCglChRQho2bCiPPvpopmY9mAkLFCgg3bp1k0mTJgnalT9/fiXy+vfvL1myZHG0JyoqSvbv2y/jJ4yX5ORkwd+NGjWSwYMHS65cuRz3HTp0SMaPHy+bN22W02dOS+nSpVV5vXv3VuVt2bJFXn75ZTl//rx88cUXsmjRItWnatWqqTK++uorxWbv3r2SN29eqVq1qgwaNEjKly/vqMPTiz///FP5XsH0d+PGDSlXrpxaybrtttscWaZPny7Lly+Xl156SbDa9ffff8vcuXMd7/MFCZAACZCAbwToCO4bL97tA4HLly/LCy+8IL///rt07NBRnhr8lBQtWlTGjRsn3333nceSTp48KUOGDFGO4QMHDnTcN3TYUJk1a5ZUrFhRnnvuOSWovvnmG3nmmWcc93h6AZGVlJQkr776qlStUlWeeOIJgfnw448/lmnTpjllu3r1qoz4zwiJjY1VQikxMVH5XKFuLZ04cUIeeOAB2bRpk/Tp20eJI6y+TZk8WQkU3AdR17ZtW5UlISFBCbZixYqpvyHcxo4dKxBQEIcDBgyQPXv2CAQcBFtGafXq1ar9169fl6eeekqGDR2mRNezw4YpYablPXXqlGzbulUmTpwoefLkkfbt2mtv8ZkESIAESOnVYewAACAASURBVMAAAa40GYDGLN4R+OOPP6RIkSJqJeiWW25RmZo3byYdO3VSX+5dunRJV9ClS5eUCLp+7boSFVgNQlr36zr59ddfpVevXqIJqVatWgnEyOjRowV11alTJ1152gWsFu3bt0+VrdXbrl07waoQBNyDDz7oWG1yva9169bSqVMnJf769eunisQqztmzZ2XihIlSpWoVdQ2rPGfOnFGmSvgvYVWtbZu28sEHH0jNmjWla9eu6j4Iri+//FIaN26sxJ/Wxtq1akuPHt1l+ifTM3Sgx+6+woULK/GpOc43bdZUibIPP/zQYSLNli2b3BBRK2pYbWIiARIgARLwjwBXmvzjx9wZEIDz85QpU0QTTLg1b758UqVKFTl8+HC6nNevXVOrLvv375ex74yV4sWLO+5ZvWa1eg2hpE/a32tWr9FfdvsaJjiseGkJf9erV0+OHz8uR44c0S4rc1yzZs0cf+M+CKBjx445rmH1DCYxTTBpbzRt0lSuXbumzHraNdfnpA1JAnHYokULp7dKlyktFStVyjDvubNnZdu2bcosqQkmFII2wlSJ1SqsMGnX8Kz3P1Nv8B8SIAESIAFDBLjSZAgbM3lLADGYvps7V63y4MscguLypUtS0s32+/ETJsjPP/8sjz/+eDq/HvhDwesI4Q5cE64fPpJehLneh1WvrNmyOl2GuRDp6NGjypyG16VKlZKCBQs63Qdn93PnzjmuQWTBB8k1aUIP/k6e0sFDB9VbEGKuCe3BbkRPaf+BA+otmP5ck2b6gylS3/642H92Orrm4d8kQAIkQALeE6Bo8p4V7/SRwOzZs5U/DXbV9e3TV7CSAvEBp2SYtlzT4sWLlWD55JNPBCtImgjAfRBbSE2bNnWY0bT8WBUqW7as9qfHZzhbu6asWW+KKPgxaQmmvMwS7of5yzVFZb2ZV1+e6z3w9ULSrxRp96Bura/aNf2zVq7butPaffXKP31B3iJFi+iL4GsLE9ixfYfM+WKO3H333crfzWpNRQBamMOxQqut8lqtjWwPCQSSQPpP/UDWxrIjigB2h2E1BQ7PMB9pCY7e7r70x4wZo3a4IbDkK6+8onx2tHwIDAn/HJig9LGgtDK9edbMVvp7EcgSyd3Kjf4+19cQdDDruSbtGlarPCUtyCVWt1wT2GirVa7v4W+tXL2pULsPvlJIEKdM6QlMmDBBPv/8czUnsZvRU7rvvvvUTsMe3XvIY48/5um2gFw/cPCA2nTQsEHDDEUTzLspKSmCHyTBTBD0CESLHz8UTcEkz7qsQiDzn9RWaSnbYTsCFy9eVFGwNeGDDvz222/KFAZHb9eEnWTYGffYY48px244W2tJC6a5bt067ZJ6hujBDjp3gsjpRhF1D37J6xO+ePLlyyfFi/3jP6V/39NrCDds93cVPmvXrlVmRDh+65O2QoRrMJeByZo1zn5YEEyI6aSFJNDn114XKlRIfem7csD7YAsxBydxJvcEsLII0ylCNrhL8BdDaAZtBdLdPVa4hnk7bNgwKzSFbSCBiCJA0RRRwx3czmI3GT7cV61apRytcfQKfu0j5tHRY0fV1nrEGHJNiOOEnWXYCZaakqrexk43mODmzJmjyoNYgkhA6AGEDcD2+8wS4jS9PfptgXCCQzVWG5KTkgRlu/o6ZVZWnz591C2Iw4SYUtg19/2879Wv8GbNmzt8soqXKK6OUFm/fr1y4MZqEFaCWrZsKQsWLFB50Ja//vpLOcGjH9oOPU9tuP/++5XDN0I3HD9204kdXHfu3Cl4j8kzAayQIJ6Wp2OAfvzxRylTpozkzJHDcyEWeAdxxphIgASCT4DmueAzj5ga7733XiWWEKsJYgC75mB2g3DAhz62148ePcYtD4ghxEFCvKSPP/pI7bqDMBg1apSK/QQzAQJNVq9eXUaOHOnV6gpMcPAV+feQfyvTGvyHIHD+9a9/uW1DRhcrVKgg77zzjmoPwhYg4Qu5ffv2KkCllhd+S507dxaYKhHWAP3CMTR4xnl0Y8aOkTdGvaFWp8qWK6dMmZkdP4PQBVi5QigDzcwEQYiz++666y6taj67IYB5iF2dCDT69NNPO/mVQcAvXbpUIPZxLJBryiyYqXa/t/chqOmbb74pCIKKDQCNGzWWhMQErRiPz9gMgR8i2FABU2J8fLwKUfH8888r83aD+g3k/anvqx8ZOAgbydsgs/C3Q1wvrJjih8Ctt96qYo3pg6a6axj+b+KHwfDhw6VGjRrqFghQhNbAyl3+fPklJjZGxT3T+ypm1GZ39fAaCYSaQJYb7n7qh7pVrN8nAk2aNFFRsn3KFMSb8eGbNSqr5Mmbx1Erph38MvQRth1vZvICkcHxxRRdKlqFB8jkdvU2BAu+MD/66CP1N0IeQGgYqd+1PqwUnT5zJp0pUn8f7onKmlUJJf11cDiw/4DA7Kbno78no9fYxQe2dnL2DtV8xRf7119/rRyZEdz0lZdflhYtWzrwItYXriPK+5NPPCHddT5NEPqIEQahixhc8DuDsPj6q6+kU+fOokWt9/Y+iBNEp4f4ffjhh5VogpDDLlEETH3t1dekWfN/wl44GikiCG6KVdjt27crEYIfA/D1gy8gzIqYE/B1ggkZIhp1oe05cuSQLp27qLhdCxYuUCZwBIbV4pahDpjGYaLs2bOnirGGNiEoLGKD4QcKTO44KgnlIrAq0qyZs+TdSe+qgLR33HGHuobNHAg3ggCxuIaVVKzuYb7PnDlTtQE3emqzKsRC/4RqzloIAZuSRoArTZwKASegBajUVwSfHqOCBaY0f52dfXX81rfd9TViT+GRUfL0Pjj405eMnMYzak+kvocvbQRBxQaFHxcscBJNWBkpWaKk27hW3gYz9fa+RQsXqdXOF1980RE1HiZpHAmUWcKqz8KFC5UQ0QKmIg8EEwTXv//9byVUtHK8DTILHzsIpGeHPSsdO92MZ3b77ber1Vktgr1WpvaMkCKTJr2rVlE1wQTT+YwZM5Rgmjx5snarWmGFWRu7aiGWkDy12ZGJL0jAYgTo02SxAWFzSIAEAk8AfmyIMK/tnsRW+hUrVkjrNq2ddnpqLfE2mKm39yWnJKuiG+nOCsQFrGgYTRDgEIUwP+qTt0FmsXKGhKj9WsLqFEzA2AHrmiCwXvvvf6XrHXc4+eHhnEmct9i8WXOnLDBp4wHuWvLUZu19PpOA1QhwpclqI8L2BIQATAtMJKARQGT4T6ZPV75N8HNb/fNqFTsM/mbukrfBTL29DyEjIEhcVyD9XTmEyVkLS6HvhzdBZmHydtcm+Oq5JpgR4ZeHMw0HPznY6W1E9Ef65ttvBGZAfUIdrvHSPLVZn4+vScAqBCiarDISbEdACTz77LMBLZ+F24sATKLxCQnKzAXRtHDRQnU+YPny5d12BL5H7mKLuQYz9fY+rGy5C2uAlRd/kj4SvFaOt0Fm0XZv64cpDxsWEHZj6gdT5ZFHHtGqU35a+KNWrVpuBZwrR3dtdhTGFyRgMQIUTRYbEDaHBEggOASw0/Htt95S4Rt++eUXx0HQ7mr3Npipt/fhSJ8LFy4IxJM+MrwWHNVdG4xe8zbILPz8sDnj/LnzmW5KQETwt99+Wx1r9Omnn8r//d//OQJtlildRjUVZzMyBIbRUWM+qxKgT5NVR4btIgESCCgB7ALLmSuX/O9//1O+QG3btvVYn7fBTL29D4ICCT5Q+gTx5m1C2A34MGWWvA0yGxsTq4pa9fMqpyIR+sM1LAfaj5AdCNsAc+Crr77qCDBbM6amWkWDA7o+oa3ffvutimumv87XJGAnAhRNdhotm7V15cqVgjgx+EXNFHwCWMUAf5zpx5SeAMIHINDq6p9/Vs7T8K3xlLwNZurtfZ06dVKiAzGRsONt/7798v7774vmD+SpHdp1iBaML3bRwUSWUfI2yCxW3koUL6FEJA7ORrBUhGlAlPru93Z3WwV2wCLAK6LZv/baa+oeHBMEAQpBCNMgwjAgFhVWpuBQ7hpF323BvEgCFiVA85xFByYcmpWamqoiZMPfAV9QTMElgLhUOCcMzr08J8w9eziEQ1Ria31Gydtgpt7eB4fvV15+RUa9OUrFaYJ/0y233KKORkGQ0stXbh7q7KlNrVu3VoIJQgUrPThTz1PyNshsvVvrycT/TVSrRnDyxsoQ/I/g8+UpZhTqxJFBCCGA8AJoB+pD/Cc4fCMAK4QhVqUqV66s+od+MpGAXQkwuKVdR07XbqsGXnvvvfcE/g7fffedVxG7dV3iSxMIwD8FX644lgaxe6ySrDpfveXjTTBTlOXtfQcPHlT/P9ztUsusTVi1QTRxbxy4fQkyi7mDALBYNdL7XGXWHnfvo38I3mo0Lpu7MoN9ze5zNti8wrk+rjSF8+iybyRAAqYT8CaYKSr19j4IE6NJfyRJZmX4EmQWAk7zu8qs3Mze96d/mZXN90kg2AQomoJNPIzqg6Mn/DDg+4BDUPFrDFGBCxcu7NRLOKzizLh169ap86xwtMIzTz/jFAnb2/O6cCQEohMjEB/ywMxRu3ZtGfT4404xb+AnAtMAjppA/TAhYIdP9+7OvhnwtUB5uA/mCJgQHnn4EYlPiHfqg+sfWEGDWQdOxDgLDP4b+DWNIylQB1bXcGTHvn37VJk4k0u/nd3bfqBe7H6aN2+e4KwymDyqVq2qzrfTlwdn37feekud/4VVh4SEBHUkiGu7+TcJkAAJkIBxAnQEN84uonNCtAwePFj5ywx6fJA6mgJOnxBHrmn06NHKN2LgwIFKVP22fr3y5dDug6ModuhA6PTp20c5lkIITZk8WQkB7T48Dxo0SO3AgaPpfxGNuEtXWbJkiTzy6KOOnUQoD+diIQAfHFgff/xxJa7gWwHHWS39+eef6tgKiJHevXqrM8Xg0Pr4oMfT7WrS8mjPiCS9fds2JZgqVqyofDrg/wERhfPtcJwGHGuxQwvCDAz0yZt+4H7t+Ipq1arJiBEjZMCAAWqLfP/+/ZXzsFYm3sM5YRBtw4YNUwIN15hIgARIgATMI8CVJvNYRlRJOMATcV2wG0bzpyhWtJg6hyolOcVppQa+DEOGDFF84JCMwzshurCyg7zenteF3XgbN25UwgnOpkgNGjRQh3/CoRaiAWIqaUOSnDt3TnCCOla/kHBsRpkyZRzbonENPldwUMXhopqjOvx/cFjptGnTlGOuyuzmH7Qbm72xqgYBg4QzzRCXBoepzv/+e8fKF0Sc/ugIb/uBfDglHmeSwTFXS7Vr1ZYePbrL9E+mq9PtIQ7XrF4tHTp2dLQFB7iif8nJN4/r0PLymQRIgARIwDgBrjQZZxexORFCYPPmzUqwaIIJMHr07CGLlyxxEky43qzpP2dZ4W+Y8mAyw6oOkrfndcG8h4TVG31q0eLmGVdYOUKKLnXTRwSrStrZYrjeu3dvdbI8XsOchd19OA1eE0y4DqdXCI6kDRvUlm5cyyghyJ+WIMqQsCqkPx4DPh1wrNVCL3jbD4g/5GvRooVWhXpGNOuKlSo5BBGEEQRcwwYNne5zzef0Jv8gARIgARLwmQBXmnxGxgxY2UBCVGN9goByt9MmMTFRf5tjFw2EE5K353VhNw9MYK4+UxAocFxFOUg1atSQe+65R7784gvBqg78mbDihFUo7WyvfXv3qXthOoNpUJ8g5iBCjhw+4uR3pb9Hex0f/4/vk9Z3iCZ90q5fT+uvt/04eOigKqZkyZL64tRr7JjCqhuS1u/CRZx9ybASyEQCJEACJGAeAYom81hGTEkIqocE05Y3KUtUxudp+XJel+u5VVr9aAvK0RJi3cCEhzhFq1evlsnvvadMbvD3gXi6eu3mvXCm9hQ3JnuO7FpxHp/dMXB3TV8A+HnTDziLI2miS18G6tBEpzYermXqVwH1efmaBEiABEjAGAGKJmPcIjqXdoo6Tmo3I3l7XhdWTmBWg5lLb1LTTF+uKzJoJ4Lu4YEVpRdeeEHGjBmjzHtl00xpCPzYr18/M7rhdRne9kPbqu0ugjJWw7RVM/iSIWnmTq0h2gqU9jefSYAESIAE/CPg3VKBf3Uwd5gRwHETECjr16936tnSJUtUMEWs7PiSvD2vKz7upils1Srns7F+WXPzvC6Y5ZAQCgE7+fQJ78FX6fy5c3Lh/AXlcwTfqpTkZEHkbH1asWKFKkN/zczX3vYjLjZOOcrjRHl9gjjC0RaaGbB8hfLq7Q0bNuhvUytsThf4BwmQAAmQgF8EKJr8whe5meFUvWfPHnnzzTfVbrjly5bLlPffVzvUIE58Sd6e14Ut/BBr2IYPYYQVJzzjfCycmYXzvJAggv43caK6vnXrVuXzA98mhCaoUrWq4wR3+DKdv3BBRo4cqbbvw1drzpw58uKLL4rmVO5LP7y919t+wOG7ZcuWsmDBAvl+3vcqwjR2HiKUAPqorZDBZwyBCL/55hvBOGCFCU7wS5culYwNo962mPeRAAmQAAmAAM1znAeGCGBrPnxusL1+7ty5qgycuwWfIV99abw9rytrtqwqDhLO20KMKAgH+PYgptOzzz7r8P3BjrgH+/eXWbNmOc7kgni4pW5dGfrMUEd/cd7Y9WvXZfKUyfLjjz+q6zDpwYlcEySOm0184W0/UCVCDcAUOWbsGHlj1BtKBJUtV06FeqhUqZKjVQiwiRALL7z4guMeHNaLcAiaz5PjZr4gARIgARIwRIBnzxnCZq1MoT4XCZG54RvkuqvNCCVvz+uCEMCZVvD7cecojbqvXb0mR48dVdv24UeU0dlXasfcjRum9MGXfnvTD5SHmFYH9h9QUcfz5M3jsQrEdoKQLFiwoMd7Qv1GqOdrqPvP+u1HgHPWfmMWqBZzpSlQZCOoXFcHbH+67u15XRBKmZ2NhRUdb9uGI1BCkbzpB9qF1TuY6zJLZgjXzOrg+yRAAiQQqQTo0xSpI89+kwAJkAAJkAAJ+ESAosknXLyZBEiABEiABEggUglQNEXqyLPfJEACJEACJEACPhGgT5NPuKx7MxwVmUjALgQ4X+0yUmwnCZCAngB3z+lp8DUJkAAJkAAJkAAJeCBA85wHMLxMAiRAAiRAAiRAAnoCFE16GnxNAiRAAiRAAiRAAh4IUDR5AMPLJEACJEACJEACJKAnQNGkp8HXJEACJEACJEACJOCBAEWTBzC8TAIkQAIkQAIkQAJ6AhRNehp8TQIkQAIkQAIkQAIeCFA0eQDDyyRAAiRAAiRAAiSgJ0DRpKfB1yRAAiRAAiRAAiTggQBFkwcwvEwCJEACJEACJEACegIUTXoafE0CJEACJEACJEACHghQNHkAw8skQAIkQAIkQAIkoCdA0aSnwdckQAIkQAIkQAIk4IEARZMHMLxMAiRAAiRAAiRAAnoCFE16GnxNAiRAAiRAAiRAAh4IUDR5AMPLJEACJEACJEACJKAnQNGkp8HXJEACJEACJEACJOCBAEWTBzC8TAIkQAIkQAIkQAJ6Atn0f0Ty6xs3bkjTpk0jGQH7TgIkQAIkECEEVq5cGSE9NbebFE0uPFu1aiWpqaly/vx5iY2Nlbi4OKlVq5bUqVPH5U7+SQIkQAIkQALWJfDHH3/Ihg0b1Hfaxo0bJU+ePOo7bfHixdZttMVbluUGlliYBBiaNWsmK1asUDQOHjwof/75pyQlJQkm299//y0xMTESHxcvibUSlZDKnz8/yZEACZAACZBAyAmcOXNGCaSkDUmSkpoimzZtkgoVKqgf/4mJiVK7dm2Jjo5W7WzSpIlwpcnYkFE0pXFzFU2uOM+dPSt/QESlTcjNmzdLuXLllGp3nZCuefk3CZAACZAACZhJQP/DHtaRPXv2SM2aNR0/7OvUri158+VzWyVFk1ssXl2kec4rTKImX+PGjQUPLWElCkufWOqcMGGC5M6dW4mohIQEtRJVrVo17VY+kwAJkAAJkIBhAtu2bVPfN8nJycrcduHCBbWKFB8fL23btlUrSYYLZ0avCVA0eY0q/Y1Y7sRDS5jUMOdhUs+ePZt+URoYPpMACZAACfhEwJM/En6U33fffcIf5T7hNO1mmufSUGZmnjNCXL98Sr8oIwSZhwRIgATCn4Av/khm0KB5zjhFiqY0doEQTa7DQr8oVyL8mwRIgAQij4D+B7Wv/khm0KJoMk6R5jnj7HzOCac8+kX5jI0ZSIAESMDWBPT+SLA6aCFt6I9kv2GlaArxmLnzi4JzeUpKCv2iQjw2rJ4ESIAEjBCgP5IRavbIQ/Nc2jgFwzxnZErol3HpF2WEIPOQAAmQQOAIBNsfyYye0DxnnCJFUxo7q4om16GlX5QrEf5NAiRAAsEjoP8hGwp/JDN6StFknCLNc8bZhSSnN35RCJWPI2AYLyokQ8RKSYAEwogA/ZHCaDBN6ApFkwkQQ10E/aJCPQKsnwRIIFwI0B8pXEYyMP2geS6Nq13Mc0amgX45mX5RRggyDwmQQDgSsKM/khnjQPOccYoUTWnswlk0uU4P+kW5EuHfJEACkUBA/wPSrv5IZowTRZNxijTPGWdn25z0i7Lt0LHhJEACPhDIyB+pTZs2UqdOHR9K460kIELRxFmgCNAvihOBBEjA7gToj2T3EbR++2meSxujSDLPGZmW+mVt+kUZIcg8JEACZhKIVH8kMxjSPGecIkVTGjuKJt8mEf2ifOPFu0mABPwjoP/hFsn+SP5RvJmbosk4RZrnjLOL6Jz0i4ro4WfnSSDgBOiPFHDErMAAAYomA9CYxT0B+kW558KrJEACmROAP1JSUpI6dxMuAAjSGxcXp4L03nfffVKtWrXMC+EdJBBgAjTPpQGmeS7AM01E9Mvr9IsKPG/WQAJWJUB/pNCODM1zxvlTNKWxo2gyPomM5qRflFFyzEcC9iKg/8FEf6TQjx1Fk/ExoHnOODvm9JMA/aL8BMjsJGBRAvRHsujAsFl+E6Bo8hshCzCTAP2izKTJskggOATojxQczqwl9ARonksbA5rnQj8ZvWmBfpmfflHeEOM9JGAuAfojmcszFKXRPGecOkVTGjuKJuOTKJQ56RcVSvqsOxII6H+owB9p9+7dEhMTI/Fx8ZJYK1Hq1K4tMLUz2YcARZPxsaJ5zjg75rQAAfpFWWAQ2ISwIkB/pLAaTnbGZAIUTSYDZXGhJ0C/qNCPAVtgHwL0R7LPWLGloSdA81zaGNA8F/rJGKwW6M0N9IsKFnXWYwUC9EeywiiEvg00zxkfA4qmNHYUTcYnkd1zuvpFbdq0ScqXL6+iEScmJgpWrqKjo+3eTbY/AgnofyDQHykCJ4CHLlM0eQDjxWWa57yAxFvCm4A7vyjNZLF48WKZMGGCOtIhNjZWHelQq1YtHukQ3lPCtr2jP5Jth44NtwkBiiabDBSbGVwCderUETy0pH0ZpaSkyOzZs+X8+fMCEYWzsSCi9PdqefhMAoEmoIl7zEue1xZo2iyfBERonkubBTTP8b+DLwT0Zg/6RflCjvcaJUB/JKPkmM+VAM1zrkS8/5uiKY0VRZP3k4Z3pidAv6j0THjFPwJ6YU5/JP9YMrczAYomZx6+/EXznC+0eC8JeCBAvygPYHjZawKaCTg5OVmZ2jQTcHx8vLRp04YmYK9J8kYSCBwBiqbAsWXJEU7AW78ofClilx79oiJrwtAfKbLGm70NDwI0z6WNI81z4TGh7dQLvfmFflF2Gjnf2+rOH4lhLXznyBzmEKB5zjhHiqY0dhRNxicRc5pDgH5R5nC0Qil6QUx/JCuMCNugJ0DRpKfh22ua53zjxbtJIGAE6BcVMLQBL1jzR8LWf4gk+iMFHDkrIIGQEKBoCgl2VkoC3hGgX5R3nIJ9lyd/JPin9e7dm8FPgz0grI8EgkSA5rk00DTPBWnGsRpTCejNQPSLMhWtozD6IzlQ8EWYEKB5zvhAUjSlsaNoMj6JmNM6BOgX5f9Y6IUo/ZH858kSrEeAosn4mNA8Z5wdc5KA5QjQL8r3IaE/ku/MmIMEIpUARVOkjjz7HTEE6BflPNT0R3Lmwb9IgAS8J0DzXBormue8nzS8M7wI6M1R4eYXRX+k8Jqr7I05BGieM86RoimNHUWT8UnEnOFFwM5+UXoBSH+k8JqX7I15BCiajLOkec44O+YkgbAkYCe/KPojheUUZKdIwLIEKJosOzRsGAlYh4BV/KLc+SPFxsZKQkIC4yNZZ7qwJSQQtgRonksbWprnwnaOs2NBIJCZWaxWrVqSP39+n1pCfySfcPFmEvCaAM1zXqNKdyNFUxoSiqZ0c4MXSMAwASN+UYEQXoY7wIwkEMYEKJqMDy7Nc8bZMScJkIAHAt74ReXIkUOKFi2qSjh27JhcvnxZYGrDUSRt2rQRmASZSIAESMBKBKKs1Bi2hQRIILIIYIWXiQRIgATsQoArTXYZKbaTBGxEICPzXKtWrWTIkCESHR3t1CO9ee6dd96R3bt3S0xMjMTHxUtirUQx4hflVAH/IAESIAE/CdCnKQ0gfZr8nEnMHtEE9ILHXXwkI4KHjuARPaXY+QASoE+TcbhcaTLOjjlJIGIJBCM+EnbbNW7cWD000FrIgcWLF8uECRMkT548yg8KIQcgzKpVq6bdymcSIAESMJ0ARZPpSFkgCYQfAU2spKSkCI5a0YuV3r17B02sWCVeVPiNMHtEAiTgDQGa59Io0TznzXThPZFAICN/pMTERKldu3Y6fySrcMnMTFindm3Bzj4mEohkAjTPGR99iqY0dhRNxicRc9qbgF5o8MBee48lW08C3hCgaPKGkvt7aJ5zz4VXSSBsCQTDH8kq8Lz1i4qLi1PxoegXZZWRYztIwJoEKJqsOS5sFQmYRsAq/kimdcjPgugX5SdAZieBCCZA81za4NM8F8H/C8Ko63b2R7LKMOjNle7CJ9AvyiojxXYYJUDznFFyIhRNaewomoxPIuYMHQH9F3y4+SOFjqpzzYwX5cyDf9mfAEWT8TGkec44O+YkPVlTYgAAIABJREFUgaATiCR/pKDD9VAh/aI8gOFlEohAAhRNETjo7LJ9CNAfyZpjRb8oa44LW0UCgSZA81waYZrnAj3VWH5mBOiPlBkh+7yvN5vSL8o+4xYpLaV5zvhIUzSlsaNoMj6JmNMYAf0XK/2RjDG0Sy76RdllpCKjnRRNxseZ5jnj7JiTBHwiQH8kn3CF1c30iwqr4WRnIpgARVMEDz67HlgC9EcKLF+7l+7JLyo5OVlmz54t58+fV4cRx8fHC46vwf1MJEACoSVA81waf5rnQjsR7V47/ZHsPoLWa7/efEu/KOuNj51bRPOc8dGjaEpjR9FkfBJFYk79Fxr9kSJxBgS/z+78oipUqKBWo6x+kHLwabHGjAhQNGVEJ+P3aJ7LmA/fJQFFwJM/Es4sa9OmDU0nnCcBJ0C/qIAjZgUkkCkBiqZMEfGGSCRAf6RIHHX79Zl+UfYbM7bY3gRonksbP5rn7D2R/Wk9/ZH8oce8ViagNyPTL8rKIxXcttE8Z5w3RVMaO4om45PIbjn1XyT0R7Lb6LG9/hCgX5Q/9MInL0WT8bGkec44O+a0CQH6I9lkoNjMgBOgX1TAEbOCMCdA0RTmAxyJ3fvzzz9lw4YNkpKSIlhJypMnj9phlJCQIL1795Zq1apFIhbV58WLF8u6detkyJAhkj17dktx+PTTT+XChQvy0EMPWapd4d4Y+kWF+wizf2YSoGgykybLCjoBV3+kzZs3S7ly5QS72lq1aqXEQXR0dNDbFewKJ0yYIJ9//rlMnz5dKlWq5LH63bt3y2+//SYwR1strVy5Uk6fPh0U0XTkyBE5ceKEVK9e3WoYQt4e/KjA45577lFt0Zuz33nnHcEciomJkfi4eEmslSh1ateWvPnyhbzdbAAJBIMARVMwKLMO0wjoP8Bd/ZF69eoltWrVEpggmNwT6Nevn+AR6enrr7+WTZs2ydixYyMdRab9x4+O9u3bqwdu1vtFzZw5U1588UVhvKhMMfKGMCFA0RQmAxmu3aA/UriObGj7hXnFZIwA/aKMcWOu8CBA0RQe4xg2vaA/UmCHEua7hQsXyrRp0yRHjhwCPyL4OU2ePFlGjx4t69evVysJML8MfWaolC5T2tGga1evydQPpgrMaFjxK1GihDRs2FAeffRRr/yjEPvq/fffl507d0rp0qUFO3juuOMOKVy4sKOOqKgo2b9vv4yfMF5wBhv+btSokQwePFhy5crluA9m2Hnz5inftQMHDkjJkiXlzjvvdJiUcCPMkFhJGj58uDrL7ZdffpHx48fL66+/Lnv37pWsWbPKfffdJ926dZOuXbs6yuYL3wnQL8p3ZsxhTwIUTfYct7BoNf2Rgj+Mx44dk7///luuX7+uKocP0fZt2+S1116TggULysCBAwWrMDM//VRGvTlKxo0b52jk0GFDlRBp3LixMvGtXr1avvnmG9mxY4fA1yWjtHbtWhk6dKiKnD7o8UGyc9dOJWS2bNkib7zxhiPr1atXZcR/RihBBZ+0ZcuWyffff69EkWZWvHz5srzwwgtK9HXp3EWZYxcsXKDaCiHYpUsXVd6lS5dUXz/++GOBDxNMTOjj3XffLZMmTZKiRYsqwRQbG+uony/MIZCZX9SePXukZs2a9IsyBzdLCSIBiqYgwo70quiPZL0ZkCVLFoFLOFZ0/v3vf6sGQqxACGGXHRzGcc+6X9fJr7/+KvAbg7BCwn3YkYgVKqwiYbXBU5o6dapamcLKD8pDKla0mEya9K6kJKdIfEK8urZv3z555plnHMKndevW0qlTJ/n9998dvlioq0iRImqF65ZbblH5mjdvJh07dZJFixY58mIlCemvv/6SGTNmOFbDIKo++ugj1R6uMClEAf+HflEBR8wKgkSAoilIoCOxGvoj2WfUYQLTp7JlywrMWSdPnlTms9VrVqu3IZT0CX9DNK1ZvcajaEIYAZjTYIrTBBPK6NGzh9zT7R6HmME1iLdmzZo5qsD9ML1hhUxL9evXFzz0Cbu3qlSpIocPH3ZcjsoSpV5jJclq4RUcjYzQF/SLitCBD4NuUzSFwSBapQv0R7LKSPjeDuw61CfNf+jatWvqMvyGsD4EfyDXhOuHj/wjVlzfR14krA7pEwSRq5gpVaqUMqHp78uZM6ecO3dOf0mWLlki382dK1iZOnXqlKCdly9dkpJuwkvADMRkfQL0i7L+GLGFIhRNnAWGCNAfyRA2y2bKli3jjwJNPDVt2tRptQgdwsoQVqY8pStXrqi3sIqUWfLmntmzZ8vEiROlbt260rdPX+WsDmH11ltvydmzZ9NVoXc0T/cmL1iWAP2iLDs0Ed2wjD8pIxoNO68nQH8kPY3Iew2fFPg+Ybccdtb5krB6hKQ3sfmS3/Xer776Spns9P5RuAemxMzEn2tZ/Ns+BOgXZZ+xCueWUjSF8+j60Tf6I/kBLwyzIsI6dsrBOVwvmrD7bsmSJdKiRYt0ZjUNQ4ECBZTIQTgDfYKJ7b+vvy6vvPKK3Hbbbfq3Mnx98eJFFfVd7x+F8AJHjx6VEsVLZJhX/yZ26jHZl4AnvygcoYQwGoiSjyOUMHfj4+NV4FusXjGRgD8EKJr8oRdGeemPFB6DuXTpUklKSkrXmcTExAyPV0mXweVCu3btBFv358yZI5UrVxaUB2GNeE/79+93ct52yar+xJl/Y8aMkTfffFPuvfde+fuvv2XK++9LmTJl1OqVuzyerkFg/fDDD7Jq1SqpUaOGii0Fkx2c2desWaPiPJUqfXN1y1MZqBc7BMEKu/j08ag85eF16xOgX5T1x8juLaRosvsIGmg//ZEMQLNJlg8//NBtSwcNGuSXaMKqDn65jxo1SsVIgo8TnMVxdtvIkSOdAlS6awACTyK+Eto3d+5cdQuO3hg2bFg6Hyl3+fXXILoQdwmxmhBvCrvmsFqFs+SwS69Hj+4yevQYfZZ0rxFqACLuscceU/Gbnn/++XT38IL9CdAvyv5jaLUeZLlhxZM7Q0AJGODQumLFihDUHtgqM/JHwoGbPK8tsPzDrXREBj906JBEl4pWIQJ87R/yIgilvw7aOAMta1RWyZM3j6MJ+H+MoJba7j/HG25ewEEdu/IKFSrk5l1eigQC+nP0UlJT1HmEkXCOHqLxI7I/k+8EKJrSmIWTaMrIHwkCKaMghL5PIeYgARIggfAhgOCp8ItKTU0VHAoejn5RFE3G5yvNc8bZWSYn/ZEsMxRsCAmQgM0J+OIXhR+htWvXtnmP2XxfCHClKY2WXVaaMvJHgnMu/gNjay4TCZAACZCA+QT07g5YjbLjOXpcaTI+Lyia0thZVTTp/4NiqRiHrWLLd3xcvNAfyfjEZ04SIAESMIOAHf2iKJqMjzzNc8bZBSRnRv5Ibdq0oT9SQKizUBIgARIwRoDxooxxs2suiqYQj5yrP1Lu3LlVMDacHo/YNgzGFuIBYvUkQAIk4CMB+kX5CMxGt9M8lzZYwTDP0R/JRv8z2FQSIAESCBABvdtFKPyiaJ4zPrAUTWnsAiGa9P8x6I9kfJIyJwmQAAmEM4Fg+0VRNBmfTTTPGWeXLif8kXAsQ3Jysorxcf78eYmNjVXmNvojpcPFCyRAAiRAAiJCvyj7TAOKJj/Giv5IfsBjVhIgARIgAY8EMvKL+uyzz+TChQvqR7l2GDHjRXlEaeobNM+l4czMPEd/JFPnHQsjARIgARLwg4De/cNXvyia54yDp2hKY+cqmvQTkv5IxicYc5IACZAACQSegC9+URRNxseDoimNHURT06ZNpVWrVun8kXhem/EJxpwkQAIkQAKhIeDpHL3FixfzwF6DQ0LRlAZOE00GOTIbCZAACZAACdiGwMqVK23TVis1lKLJSqPBtpAACZAACZAACViWQJRlW8aGkQAJkAAJkAAJkICFCFA0WWgw2BQSIAESIAESIAHrEqBosu7YsGUkQAIkQAIkQAIWIkDRZKHBYFNIgARIgARIgASsS4Ciybpjw5aRAAmQAAmQAAlYiABFk4UGg00hARIgARIgARKwLgGKJuuODVtGAiRAAiRAAiRgIQIUTRYaDDaFBEiABEiABEjAugQomqw7NmwZCZAACZAACZCAhQhQNFloMNgUEiABEiABEiAB6xKgaLLu2LBlJEACJEACJEACFiJA0WShwWBTSIAESIAESIAErEuAosm6Y8OWkQAJkAAJkAAJWIgARZOFBoNNIQESIAESIAESsC4Biibrjg1bRgIkQAIkQAIkYCECFE0WGgw2hQRIgARIgARIwLoEKJqsOzZsGQmQAAmQAAmQgIUIUDRZaDDYFBIgARIgARIgAesSoGiy7tiwZSRAAiRAAiRAAhYiQNFkocFgU0iABEiABEiABKxLgKLJumPDlpEACZAACZAACViIAEWThQaDTSEBEiABEiABErAuAYom644NW0YCJEACJEACJGAhAhRNFhoMNoUESIAESIAESMC6BCiarDs2bBkJkAAJkAAJkICFCFA0WWgw2BQSIAESIAESIAHrEqBosu7YsGUkQAIkQAIkQAIWIkDRZKHBYFNIgARIgARIgASsS4Ciybpjw5aRAAmQAAmQAAlYiABFk4UGg00hARIgARIgARKwLoFs1m0aW0YCJEAC5hBo0qSJOQWxFBIIEwIrV64Mk54EtxsUTcHlzdpIgARCRIBfEiECz2otR4A/IowPCc1zxtkxJwmQAAmQAAmQQAQRoGiKoMFmV0mABEiABEiABIwToGgyzo45SYAESIAESIAEIogARVMEDTa7SgIkQAIkQAIkYJwARZNxdsxJAiRAAiRAAiQQQQQomiJosNlVEiABEiABEiAB4wQomoyzY04SIAESIAESIIEIIkDRFEGDza6SAAmQAAmQAAkYJ0DRZJwdc5IACZAACZAACUQQAYqmCBpsdpUESIAESIAESMA4AYom4+yYkwRIgARIgARIIIIIUDRF0GCzqyRAAiRAAiRAAsYJUDQZZ8ecJEACJEACJEACEUSAoimCBptdJQESIAESIAESME6Aosk4O+YkARIgARIgARKIIAIUTRE02OwqCZAACZAACZCAcQIUTcbZMScJkAAJkAAJkEAEEaBoiqDBZldJgARIgARIgASME6BoMs6OOUmABEiABEiABCKIQLYI6iu7GkAC169fl71798q+ffvk4MGDcuTIETl27JicOHFCzpw5ox4Xzl+QCxcvyOXLl+XKlSuCPFqKioqS7NmzS44cOSR3rtySO09uyZ8/vxQoUEAKFSokRYsWleLFi0t0dLSUKVNGypYtK8jDRAIk8A+BJk2a/POHSa9WrlxpUkkshgTsT4Ciyf5jGPQe7Nq1S7Zs2SI7tu+Qv/7+S3bv3i0H9u+XEiVKSsnoklKiRAkpXqy4VK5cWYoUKSKFChaSAgULSN68edUjV65cki1bNvXIkiWL3LhxQ65evaoeFy9elHPnzqnH6VOn5eSpk3L8+HE5dvSYJCUlyaJFi+TwocNy+PAhKVW6tJQvX14qVqgoVapWkRo1akilSpWCzoMVkoCVCJgpcgIhwqzEim0hAV8JUDT5SizC7r906ZL89ttvkpycLKmpqUos5c+XX4kUiKK2bdtK5UqVpWLFipI1W1ZDdCCcsMqER+7cuaVw4cKZlnPt6jX566+/ZOeunQIRt3TpUpn6/lQ5c/aMEk+xsbGSmJgodevWlZw5c2ZaHm8gARIgARIggcwIUDRlRigC38eKztq1a+X333+XlJQUgQCJj4+Xu++6WxISEqRI0SIhpwKBhtUlPPTp+LHjSuAlJSfJxx9/LMOGDVNth3i69dZblZDS38/XJEACJEACJOAtAYomb0mF+X2rVq2SFStWyK+//qpMaBAZvXv3VkIDfkZ2SRB0zZo3Uw+0Gf5T6BMeo0aNUmY/iKemTZtK48aN7dIttpMESIAESMACBCiaLDAIoWoCVpMWL14sEEzlypWT2267TcaOHRtWfkEQfBBHmkCCKQ8+H5988om8/vrr6nqrVq2kfv36oRoG1ksCJEACJGATAhRNNhkos5qJnW3z5s1TDtVwyG7RooVMnjxZiSaz6rByOXAUx6NPnz6yZ88e+emnn+Tdd9+VMWPGSOvWraVz585qh56V+8C2kQAJkAAJhIYARVNouAe91jVr1sjcuXOVmQriYPjw4VKrVq2gt8NKFWJ1rV+/fuqxYcMG+eGHH+S+++5TJkmIp4YNG1qpuWwLCZAACZBAiAlQNIV4AAJd/by58+Sbb78R7ILr2KGjjBgxgrvJ3ECHgMTjqaeekm+++UatPk2dOlXuvONO6dS5k5scvEQCJEACJBBpBCiawnTEv/jiC8EDASF79+olLVq2DNOemtsthCfo3r27eixdskS++vprmfHpDLnnnnvUw9zaWBoJkAAJkICdCFA02Wm0vGgrVklmzZqlomZj1YQOzl5A83ALhCYecJifPXu2zJkzR3r06CF33nmnhxy8TAIkQAIkEM4EKJrCZHSxKjL9k09UuACIpQYNGoRJz0LfDQhPPH755ReZMWOGfPfdd9K3T19p3qJ56BvHFpAACZAACQSNAEVT0FAHpqJt27bJ+++/L/v371c7whChmykwBCBE8Vi4cKFM/WCqzP9hvgwYMECqVasWmApZKgmQAAmQgKUI8MRTSw2Hb41593/vyiOPPCJxcXFqBYSCyTd+Ru8GZ6w4gTv4YxyYSIAESIAEwp8ARZMNx/jnn39W0boPHjooM2fOlL59+9qwF/ZvMriDP8YB0dMxLkwkQAIkQALhS4DmOZuN7ejRo1UE74EDB6rDcm3W/LBrbnR0tLzyyiuyYMECefvtt5Xf05AhQ8Kun+wQCZAACZCACFeabDIL/vzzT7n//vvV2WmfzviUgsli49auXTvBuJw7d06NE8aLiQRIgARIILwIUDTZYDxxTtrTTz+t4gS99NJLkidvHhu0OvKaiHHB+HTr1k2NF8aNiQRIgARIIHwI0Dxn4bG8cuWKvPbaa3Lo0CFBdOqKFStauLVsmkagS5cukpiYKG+88YZgd+OLL74o2bNn197mMwmQAAmQgE0JcKXJogOHL9uHHnpIxV167733KJgsOk6emgWBi3HLmzevGkeMJxMJkAAJkIC9CVA0WXD8VqxYIY8/9pjc3v52GTp0qAVbyCZ5S2DYsGHSoUMHNZ4YVyYSIAESIAH7EqB5zmJj9+WXX8qUyZPl+RdekKZNm1qsdWyOEQI4y65UqVLy39dek6OPPip33XWXkWKYhwRIgARIIMQEKJpCPAD66qdNmyY//PCDvDNunMTExOjf4mubE4AALj5unHIUP3XqlPTr18/mPYq85jdp0sS0Tq9cudK0sliQeQQ4xuaxDNeSKJosMrL/m/g/Wbd+nUyYMEEQ+4cp/AhACGN8n332Wblw/oL867F/hV8nw7xHZogdM7+Ywxx3SLrHMQ4JdttUSp8mCwzVuHHjJCk5ScaPH0/BZIHxCGQTIIgxzhuSNgjGnYkESIAESMA+BCiaQjxWWHnYtGmTvPPOO1KgQIEQt4bVB4MAxhnjjXHH+DORAAmQAAnYgwBFUwjHacqUKbJhwwYZ/fbbkjt37hC2hFUHmwDGG+OO8Z88eXKwq2d9JEACJEACBghQNBmAZkaWTz/9VLAF/c1Rb0refPnMKJJl2IwAxh3jDx8KzAcmEiABEiABaxOgaArB+Pz4448ye/ZsFe27SNEiIWgBq7QKAYw/or5jPmDnJBMJkAAJkIB1CVA0BXls/vjjD3n9v/+VESNGMMp3kNlbtTpED8d8GPn664L5wUQCJEACJGBNAhRNQRyXEydOyH//+18ZOnSY1K1bN4g1syqrE8B8GDbsWTU/ME+YSIAESIAErEeAoimIY/Lqq69KyxYtpVPnTkGslVXZhUDHTh3V/MA8YSIBEiABErAeAYqmII3JpEmTJCoqigENg8TbrtUg4GXWrFnl3f+9a9cusN0kQAIkELYEKJqCMLTYHQXn7+HPDQ9CbazC7gSee/Y5WbBwgdpdafe+sP0kQAIkEE4EKJoCPJrnz52Xce+Mk8FPPincKRdg2GFSPOYJ5sv4ceMF84eJBEiABEjAGgQomgI8DmPGjpEGDRtIi5YtA1wTiw8nApgvmDdj3xkbTt1iX0iABEjA1gQomgI4fEuXLJHk5GQZMmRIAGth0eFKAPMmKSlJMI+YSIAESIAEQk+AoimAY/De5Mky8NGBkiVLlgDWwqLDlQDmDeYP5hETCZAACZBA6AlQNAVoDHCeWI0aNaR5i+YBqoHFRgIBzB/MI55PFwmjzT6SAAlYnQBFUwBGaM+ePeossYcffjgApbPISCOAeYSz6TCvmEiABEiABEJHgKLJZPY3btyQDz/8UHr16iVly5Y1uXQWF4kEMI8wn6ZNmxaJ3WefSYAESMAyBCiaTB6K1JRU+fXXX6V///4ml8ziIpkA5tO6desE84uJBEiABEggNAQomkzmPuuzWXLvvfdK9uzZTS6ZxUUyAcwnzKuZs2ZGMgb2nQRIgARCSoCiyUT8mzZtUiEG+vTpY2KpLIoEbhLAvEIIAswzJhIgARIggeAToGgyiTl8mb744gvp2rWrSSWyGBJIT+COO+6QOXPmpH+DV0iABEiABAJOgKLJJMSHDh2SJUuWKBOKSUWyGBJIRwAmuqVLlwrmGxMJkAAJkEBwCVA0mcT7u+++k3bt2kn+/PlNKpHFkEB6AphfmGfffvtt+jd5hQRIgARIIKAEKJpMwAvT3MIFC6Vzp84mlMYiSCBjAphnmG9MJEACJEACwSVA0WQC71WrVknhIoUlLj7OhNJYBAlkTADzrFDhQrJy5cqMb+S7JEACJEACphKgaPITJ1aZFi9eLC1btPSzJGYnAe8JtGrZSs0773PwThIgARIgAX8JUDT5SfD69evy888/S+s2rf0sidlJwHsCmG9Y4cT8YyIBEiABEggOAYomPzmvWL5catasKcWLF/ezJGYnAe8JYL5h3i1ftsz7TLyTBEiABEjALwIUTX7hE1m9Zo3Ur1/fz1KYnQR8J9CgQQM1/3zPyRwkQAIkQAJGCFA0GaGWlgf+TL/99pvcdtttfpTCrCRgjADm3fr1641lZi4SIAESIAGfCVA0+Yzsnww7tu+QrFFZpXLlyv9c5CsSCBIBzDvMP8xDJhIgARIggcAToGjyg/Eff/4hCYkJfpTArCTgH4HEWony2++/+VcIc5MACZAACXhFgKLJK0zpb4JpLiUlReLj49O/ySskECQCmH+Yh0wkQAIkQAKBJ0DR5AfjLVu2SFwcA1r6gZBZ/SSA+bd161Y/S2F2EiABEiABbwhQNHlDyc0958+dlyNHjkiNGjXcvMtLJBAcAph/hw8fFsxHJhIgARIggcASoGgyyHf7ju1SoUIFg7mZjQTMI4B5uG37NvMKZEkkQAIkQAJuCVA0ucWS+cW//vpLypYtm/mNvIMEAkwA8xDzkYkESIAESCCwBCiaDPLdt3eflClTxmBu62XD+XlvvPGGXLlyJSCNg+P8wYMH5drVax7L//TTT2Xq1Kke3+cb7glANO3fv9/9m7xKAiRAAiRgGoFsppUUQQVBABw6fEhuueUWy/Z6woQJ8vnnnzu1L4uIFC5SRCpWrCh9+vSRunXrOt7fvXu3CtSJvpmZVqxYIR999JGg/EuXLkmOHDmkWrVqyoG+Z8+eUqxYMUd1K1eulNOnT8tDDz3kuBaoF7t27ZLcuXNLdHR0oKoIWrnow++//x60+lgRCZAACUQqAYomgyN/7NgxKVGihMHcwcs2YMAAx7l4Fy9elLVr1ypx9NTgwfLW2287joDp16+f4GFmGjlypMyfP19KlSqlRFpMzRjZuWunrFmzRuZ8/rksX7ZcJr03ydE+M+vOrKy33npL9b1v376Z3Wr59zEPMR+ZSIAESIAEAkuAoskg3xMnTkjRokUN5g5etiZNmkilSpUcFd55552yefNmgZiaMmWKQzQ5bjDpBcQZBBMOlR09erQUKFBAlVzv1nrSvXt3GTNmjHz99dfy/vvvy/Dhw02q1ftiduzYEbC+e98Kc+7EPMR8ZCIBqxPA55FZCSvTTCQQbAIUTQaJnzt3TgoWLGgwd2izQcjAHwvOwzDHZcmSRaZPny4LFy6UadOmKRMaWogv4nHjxqngiTCblStXTrp27SpdunTJtAOTJ09W5b7wwgsOwaTPNGjQILl8+bKTiRDvR0VFyf59+2X8hPGSnJys/m7UqJEMHjxYcuXK5Shi2dJlsmz5MklKShKMBUyOEIL/93//57gHfVq+fLm89NJLgpWlv//+W95++215+eWX5fz58/LFF1/IokWLZMSIEcpk6MhosxeYh2fPnrVZq9ncSCVghtgxU3xF6jiw38YI0BHcGDe5cOGC5Mub12Du0GfLkyePEkyaDxPMOxAV169fV407d/asMtfBlIYPqCFDhkj+/Pnl7bfekg8//DDDDoDNtm3bpEGDBh7DMmTPnl2effZZadOmjVNZV69elRH/GSGxsbFKKCUmJsr3338vs2bNctwHfyTcc+rUKen/YH95oO8DcubMGRk6dKjTLjK8v23rVpk4caKgv+3btVcm1bZt26qyEhISpFu3bk5+VY5KbPQC8xDMmUiABEiABAJLgCtNBvnCqTlXrtwGc4c2G8QRRA0csrGy4y59MmOG8pPBykz9+vXVLe3atVOrMp999pnc262b5M2Xz11W5fSNN/RmQbc3urm4b98+eeaZZxyrWa1bt5ZOnTopR2fN52rVqlXK7Pfaq6862lC+QnklwrALsH///qrkbNmyCdzaIfaw2qSltm3aygcffKDKwMqZ3RPmIeYjEwmQAAmQQGAJUDQZ5IsVmazZshrMHbxsq1evVgIJNV6+dFnW/7Zefv31V8FOuscff9xjQ3AP/JDq1avndE+L5i1kyZIlkpySolaSnN5M++PQoUPqlX5eQcE0AAAgAElEQVRnnLv73F2DiGvWrJnjLZgOS5Ys6eTofP/99wse+qSZ5bS68R7yItWuXVt/a9i9xjzUVgjDrnPsEAmQAAlYiABFk4UGIxBNee+995yKhZmqSpUq8uijjwpMX54SYirBVPbggw863aKtaOjFidMNIg6T3PHjx13fyvRv7LRz9RXLmTOn8lvSMqMN8EeCbwTaAZ+ma9duxn9yJx7iYnk+oMaOzyRAAiRAAsYJUDQZZIcVEQRqtPpqE3bIwUkaCSsvemfqjLoOEVIgfwGnVR/9/VUqV9H/6fS6fPnykid3buUj5fSGF394Mhfqs8Jxe/XPP0unzp3l7rvvVitRiP/08IAB+tscr4sULeJ4HY4vMA+94RaOfWefSIAESCCYBCiaDNLG6sfFixccPjUGiwl4NogkBHH0NcEkhlWcBx54wGHm8rYMiLMqVasKTIPYCVe6TGm3WRF2ACY8mNo0U5rbG3UXjx49Kj///LPAmRuO31rau3ev8l/S/o6kZ8xDzEcmEiABEiCBwBJw7wUc2DrDonQIkbPnzoVFX9x1AmEJsC1/06ZNTm8jxtPSJUsyPW6lV69eanfeyDdGCnbiuaZZM2epOE1bt271WjChDLQJCWY8fUJMKCTNTKd/z9NrmB/DIWEeGhHG4dB39oEESIAEgkmAoskg7bx586ot7wazWz4btvFj9xlWg7Zs2aJiNiE2EsIEfDd3rnovo040btxYhj4zVDb8+af0feAB+fjjj9XK0+zZs+Wpp55SkcArV66sQhlkVI7rezD9IV4UnNEh4HA8C3bCYTdg6dKlZfv27W5Fmr6c4iWKK5Gxfv16lc/ugSERWiGfh52M+n7zNQmQAAmQgH8EaJ4zyK9w4cJOO7oMFmPZbDCpTZwwUUa9OUoGPPSQMn0VKlRIENvo+eHDvVod6tipo+TMlVOWLVumVpW0oz5QTo/uPeTB/g967WOlBzVw4EAlwhDMEr5M2Dn32muvybfffqsO/L29QwcV1FKfR/8aMaI6d+4sX331lXJ0f+6556RDhw76W2z1GlwxH5lIgARIgAQCS4CiySBfHF1x+PBhg7kDnw0Rt/HwNmH1Bw99iouPU5HCcWbdyZMnDR1uizhLeCBhRx58bzx9wbvu9NPaMmnSJO2lekawTTzg31S4UGGHM/69994rOCYmKkuUEnXYIYiHuwQ2D/brJ1FZs9retIV5aIcjfdyNA6+RAAmQgJ0IUDQZGC04LZcsUVKJAAPZbZcFzuTR0dF+t9uMMvSNcBcHCqtI3iZPwTm9zW+V+yBGzWZrlb6xHSRAAiRgJQL0aTI4GmXKlhFEr2YigVATwM5B+HMxkQAJkAAJBJYARZNBvoh9hC8rJhIINQHMQy0WV6jbwvpJgARIIJwJUDQZHN2qVaoaCt5osDpmIwGPBHCWYLWq1Ty+zzdIgARIgATMIUDRZJBjnrx5pHjx4mo7vsEimI0E/CaAcBAlSpQQzEcmEiABEiCBwBKgaPKDb40aNSQ1NdWPEpiVBPwjgPlXvXp1/wphbhIgARIgAa8IUDR5hSn9TdhBFx8fLykpKenf5BUSCBIBzD/MQyYSIAESIIHAE6Bo8oNxndp1JDkp2Y8SmJUE/COQtCFJ6t5S179CmJsESIAESMArAhRNXmFyf1OVqlXk2vVrsnPnTvc38CoJBJAA5h3mH+YhEwmQAAmQQOAJUDT5wRgmurp166oz1fwohllJwBCB1atXqyNkDGVmJhIgARIgAZ8JUDT5jMw5w20NG8ratWudL/IvEggCgV9++UUw/5hIgARIgASCQ4CiyU/OTZs1k82bN8uRI0f8LInZScB7AphvmHfNmjf3PhPvJAESIAES8IsARZNf+ESioqKkUaNG8tOin/wsidlJwHsCmG+NGzdW88/7XLyTBEiABEjAHwIUTf7QExH4NbVq1UqWLF3iZ0nMTgLeE1i8ZLGad97n4J0kQAIkQAL+EqBo8pegiPrFf+L4CUlNYaBLE3CyiEwIYJ6dPHFSmjRpksmdfJsESIAESMBMAhRNJtDEalPbdm1l7ry5JpTGIkggYwKYZ5hvTCRAAiRAAsElQNFkEu8uXbrIggUL5MyZMyaVyGJIID0BzC/Ms65du6Z/k1dIgARIgAQCSoCiySS8JUuWlBYtWsjnn39uUokshgTSE8D8wjzDfGMiARIgARIILgGKJpN4w0TXrVs3+fbbb00qkcWQQHoC33zzjZpn6d/hFRIgARIggUAToGgykXBMTIwkJCTI9OnTTSyVRZHATQKYV4mJiYJ5xkQCJEACJBB8AhRNJjPv2aOnMtFduXLF5JJZXCQTwHyCaa5Xz16RjIF9JwESIIGQEqBoMhl/XHyc3HrrrfLBBx+YXDKLi2QCmE/16tUTzC8mEiABEiCB0BCgaDKZO3yb+vXrJzNnzpS9e/eaXDqLi0QCmEeYTw8++GAkdp99JgESIAHLEKBoCsBQlCtXTnr37i1TpkwJQOksMtIIYB716tVLMK+YSIAESIAEQkeAoilA7B955BHZsmWLLFu6LEA1sNhIIID5g3n06KOPRkJ32UcSIAESsDQBiqYADs+jjzwik96bJDdu3AhgLSw6XAlg3mD+YB4xkQAJkAAJhJ4ARVMAx6BFy5YqBMHo0aMDWAuLDlcCmDcIMYB5xEQCJEACJBB6AhRNAR6Dfz/1b/llzS+ydMmSANfE4sOJAOYL5s1Tg58Kp26xLyRAAiRgawIUTQEevjx588iTg5+Ud8aNk+PHjge4NhYfDgQwTzBfnnjyCcH8YSIBEiABErAGAYqmIIxDkyZNpH379vL6yNeDUBursDuBkW+MlHZt20nTpk3t3hW2nwRIgATCigBFU5CGc+DAgXL9+nV593/vBqlGVmNHApgf165dk3899i87Np9tJgESIIGwJkDRFMThffHFF2XJ0iUyb+68INbKquxC4Pt536v5gXnCRAIkQAIkYD0CFE1BHJPChQvL888/L2++OUp+++23INbMqqxOAPNh1Kg31PzAPGEiARIgARKwHgGKpiCPSZ06dWT488/Lyy+/LH/99VeQa2d1ViSAeYD58Nzw4YL5wUQCJEACJGBNAhRNIRgXOIV3795dXnjhBe6oCwF/K1WJnXKYB5gPt99+u5WaxraQAAmQAAm4EKBocgESrD9xNh12Rw0dNlTOnT0brGpZj4UIYNwx/thdifnARAIkQAIkYG0CFE0hHJ+HH35YatWqJUOeflouXLgQwpaw6mATwHhj3DH+OKeQiQRIgARIwPoEKJpCPEaDBg2SmJgYGTx4sJw+fTrErWH1wSCAccZ4Y9wx/kwkQAIkQAL2IEDRZIFxevLJJyUxIVGeeOIJOXjwoAVaxCYEigDGF+NcK7GWYNyZSIAE/r+9e4GWsqr/P/4dLiJyEbmLyvVcSMFrKggqKN6VJDXJtHNSK7NON8tq/Vu/Wuav/6r079ITlYV1jlqmmYhohomQgCJLK9GIcw4cFBUDlJSLiArzX59N+2E4HI5zZubM7Jnn/az1OOOZ55nZz2sPM5/Zz977QQCB4hEgNAVSV1/80hddHye1PPzrX/8KpFQUI5cCqlfV76mnnsrklbmE5bkQQACBPAkQmvIEnc7LXHnllTZ9+nT76le+Yk8++WQ6u7BNkQioPlWvn/zkJ+0zn/lMkZSaYiKAAAIIpAp0Sf0f7hde4KKLLrIBAwbY/954o639zJU2/ZPTC18oSpCVwL333mu/vuMO+z/f/S7Xk8tKkp0RQACBwgoQmgrr3+qrayqCg2fMsBtvvNHWvLLGrr/++la344/hC/zoRz+y5cuX209nzLDy8vLwC0wJEUAAAQT2KcDpuX3SFPYBfcHOnDnTtm7datdccw2zhxe2Otr96prlW/Wm+lM9EpjaTcgOCCCAQHAChKbgqmR3gbp27eourzFhwgS7+uqrbfbs2bsf5F6wAg899JCrL9XbDTfcYKpHFgQQQACB4hfg9FwR1OEVV1xhY8eOtZtvvtmef/55+8Z137ADehxQBCWPVxHf2fqO3XTzTdbU1GQ33XSTHX300fEC4GgRQACBEhegpalIKlhfwHfddZf16NHDPnX5p+yxxx4rkpLHo5hz58519aL6UT0RmOJR7xwlAgjES4CWpiKr7+uuu87GjRtnP/vZz2zRokV27bXX2uDBg4vsKEqnuJqsUnWxatUq+8Y3vmE6JceCAAIIIFCaArQ0FWG96ov5t7/9rQ0eNNguu+wyq6+vL8KjKP4iy13+qgfVB4Gp+OuUI0AAAQTaEiA0taUT+GPXfvFau/322+2f//ynXX755Zyyy1N96dSovOUuf9UDCwIIIIBA6Qtweq7I61hD2X/84x/b/CeesDvvuss0cktf6DqFx5JbgSVLltjdd9/tphG4+qqrbdLkSbl9AZ4NAQQQQCBoAUJT0NWTfuEmn3aaaX3wwQftlltusUMOOcQuvfRSO/HEE9N/ErZsVeCZZ54xzer92muvucvcTJs2rdXt+CMCCCCAQGkLEJpKrH4vvPBC03r//fe78KRLsnx82jQXqErsUDv8cNR698CsWbZhwwa7+OKL3drhL8oLIIAAAggEK0BoCrZqsiuY/5J/eM7D9tvf/c5+/Zvf2HnnnmfTPj7NunXrlt2Tl/De27dvd611Dz/8sO2333427cJpdv4F55fwEXNoCCCAAALpChCa0pUq0u30ha/16aeftjlz5tjMO2balClT7JxzzrGjjjqqSI8q98XWpKGPPvqoPf7443bCCSe4qRzGjx+f+xfiGRFAAAEEilaA0FS0Vde+gisAaNW8QmpF+eEPf2j777+/TZ482U4//XQ77LDD2veEJbD1K6+84kLSggUL7N1333VhUh29mfeqBCqXQ0AAAQQ6QIDQ1AGoIT+lAoGuY6dVHZznzZtnn//8511oOumkk+yUU06xESNGhHwIWZVt9erVtnDhQlu8eLEpNE2cONG1KtFhPitWdkYAAQRiIUBoikU1t36QCgo+LGh28SeffNK+9rWvuUu1HHfcce40lU5VqW9PsS7vvfeeLV261K3PPfecmy5Ax6Tr+SkwsSCAAAIIIJCuAKEpXakS304BwoeIZcuWuVYozXL9ne98xw4//HAbM2aMHTn2SHfh4L79+garsfHNjfbCCy/YsheW2YsvvmjLly93ZVcI/Na3vmVHHnlksGWnYAgggAACYQsQmsKun4KUTsHChwuNJlMLjYLIHx/4o/3w//7QevXsZaPKRtnIkSN3rSNG2vDhw61zl855K++OD3bYSy+9ZM2rm02n3HTtt1UrV9nmLZutsrLSBb2qqipTWGK0YN6qhRdCAAEESlqA0FTS1Zv9wSlwqK+TVr8opDQ0NLiQokuKrFmzxl5fu9YGDhxkgwYPsoEDB9qA/gOsX/9+1rdvX+tzYB/rfWBvd9qvR48ergN6ly5dTGsikbBkMmkffPCBW9Uhe+vWrW7d9PYme+vtt2zjxo325htv2oY3Nti6dets/br1tn79Ojt4yBAbOnSoDR823HVov+aaa0q6P5b35xYBBBBAoDAChKbCuBf1q6qjeMvO4jt37rRXX33VzZqtEXqaELK5udm1Um3evNm0bntnm217d5upn9H7779v2scvnTp1sq5du7r+U933727dD+huvXr1st69e1ufPn2sX79+rvVLHdk12/mhhx5q2ocFAQQQQACBfAkQmvIlXeKvowCjVh+tLAgggAACCJSiAD/VS7FWOSYEEEAAAQQQyLkAoSnnpDwhAggggAACCJSiAKGpFGuVY0IAAQQQQACBnAsQmnJOyhMigAACCCCAQCkKEJpKsVY5JgQQQAABBBDIuQChKeekPCECCCCAAAIIlKIAoakUa5VjQgABBBBAAIGcCxCack7KEyKAAAIIIIBAKQoQmkqxVjkmBBBAAAEEEMi5QCKpC3+xIIAAAiUscPLJJ5fw0XFoCLRfYOHChe3fiT2M0MSbAAEEEEAAAQQQSEOA03NpILEJAggggAACCCBAaOI9gAACCCCAAAIIpCFAaEoDiU0QQAABBBBAAAFCE+8BBBBAAAEEEEAgDQFCUxpIbIIAAggggAACCBCaeA8ggAACCCCAAAJpCBCa0kBiEwQQQAABBBBAgNDEewABBBBAAAEEEEhDgNCUBhKbIIAAAggggAAChCbeAwgggAACCCCAQBoChKY0kNgEAQQQQAABBBAgNPEeQAABBBBAAAEE0hAgNKWBxCYIIIAAAggggAChifcAAggggAACCCCQhgChKQ0kNkEAAQQQQAABBAhNvAcQQAABBBBAAIE0BAhNaSCxCQIIIIAAAgggQGjiPYAAAggggAACCKQhQGhKA4lNEEAAAQQQQAABQhPvAQQQQAABBBBAIA0BQlMaSGyCAAIIIIAAAggQmngPIIAAAggggAACaQgQmtJAYhMEEEAAAQQQQIDQxHsAAQQQQAABBBBIQ4DQlAYSmyCAAAIIIIAAAoQm3gMIIIAAAggggEAaAoSmNJDYBAEEEEAAAQQQIDTxHkAAAQQQQAABBNIQIDSlgcQmCCCAAAIIIIAAoYn3AAIIIIAAAgggkIYAoSkNJDZBAAEEEEAAAQQITbwHEEAAAQQQQACBNAQITWkgsQkCCCCAAAIIIEBo4j2AAAIIIIAAAgikIUBoSgOJTRBAAAEEEEAAAUIT7wEEEEAAAQQQQCANAUJTGkhsggACCCCAAAIIEJp4DyCAAAIIIIAAAmkIEJrSQGITBBBAAAEEEECA0MR7AAEEEEAAAQQQSEOA0JQGEpsggAACCCCAAAKEJt4DCCCAAAIIIIBAGgKEpjSQ2AQBBBBAAAEEECA08R5AAAEEEEAAAQTSECA0pYHEJggggAACCCCAAKGJ9wACCCCAAAIIIJCGAKEpDSQ2QQABBBBAAAEECE28BxBAAAEEEEAAgTQECE1pILEJAggggAACCCBAaOI9gAACCCCAAAIIpCFAaEoDiU0QQAABBBBAAAFCE+8BBBBAAAEEEEAgDQFCUxpIbIIAAggggAACCHSBAIF0BU4++eR0N2U7BBBAoCgFFi5cWJTlptD5ESA05ce5ZF7lrLPOsubmZlu9erUNGjTIRo0a5daKigqrrKy0AQMGlMyxciAIIFBaAhs2bLCGhgZrbGy0VatWuXXdunU2YsQIGzlypM2dO7e0DpijyblAIplMJnP+rDxhSQqopSn1V5g+eBobGq2xqdEFKYWprl27ug8ffQD5IDV8+PCS9OCgEEAgXIGXXnopCkj6bNL6/vvv7/58Kq+wisoK9znlj6LlZ5z/O7cIeAFamrwEt+0WUCjSmrqsfW2tNTSssMamJps3b5796pe/sk2bN0W/5MrLy62yotJGjx5tnbt0Tt2V+wgggEC7BXZ8sMNWrFhhDY0N1tTUFLWE9+7V20aOGulawqdecIFVVo62IYcMaffzswMCqQKEplQN7mctoA8lrZNPOy16rrffftt9qKllatmyZTZr1izTr0C1QKlFqqyszIUvBakDDzww2o87CCCAQKpA6mfJypUrXUDynyW+q8CkSZPcjzI+S1LluJ8rAUJTriR5nn0K6MPrxBNPdKvfKPXXoT78Fi1a5PpJ6dfhiJEjdgUptUrx69CTcYtArARSW631GbG6eXXUaq2AdNRRR9knLvkErdaxelcU/mAJTYWvg1iWQKfmjhhzhFtTAXw/hJVNK+2hOXOs+dZbXT8EddTUB2VFK/0QUvfnPgIIFJ9Aav9IddDWQBPfP7JsVJlNmTLFDTShf2Tx1W2plZiO4KVWox14PIXqJOlHvKi/gn5x6kNVI170AaogpX5SrtN5RaUd0OOADhTgqRFAIBuBd7a+4/oeKSTp37P+LeuHkh+Jq1P1rt9jgUbiFuozLhtT9s2vAC1N+fXm1TIQ0DQGWidOnBjtvW3bNtdPSh+8WjVUWB++2k5ByveTUpgaOHBgtB93EEAgPwLr1693Q/sVkPyPHf0A8j929G/zvPPOc6fXunfvnp9C8SoIZClAaMoSkN0LI6AP2WOOOcatqSVQgPLTIPz+9793zfydO3d2Hc7d6b3/jvjT6T4WBBDIjYBOp7lTbP+d/0jD+3fs2OFGzerf3YSTJlh1dfVeo21z8+o8CwL5E+D0XP6si/6VirXp+vXXX7eGFQ1uPin94tUHukbh+H5SapXSNAiVoytdP4qirygOAIEOEtA8R/q3pOH9vvVIgUmDPaKRsOUV7t/SwQcf3EGl6LinLdbPuI4T4ZlbCtDS1FKE/y85AX14a500eVJ0bJs2bYo+/F944QWbPXu2vbR6tQ0dNsyd3vOtUpoGoU+fPtF+3EEgLgJvvfVWNFWInz17zcsv2/D/zp6tHxunTT7NBaTevXvHhYXjjLkAoSnmb4C4Hr4+5I8/4Xi3eoOdO3fumiSvYdckeU899ZStbm62nj17RZPk+U6qhx56qN+NWwSKXuDVV191s2f7ztnNq5pty5bNNmLkSNeCdPTRR9ull17q+h916sR13ou+wjmAjAU4PZcxXfx2jGvT9csvv7zrC6WxyVY1r3Kn97Zv3+6+THRKwgcpXXuPBYHQBXTtNa0KSP7yIt26ddvV72/kKCuv0PxolTZs2LDQDyXn5YvrZ1zOIUv4CWlpKuHK5dByI6AvD61nnnlm9IRvvPFGdF2rpUuX2j333GPqO+Uv/FleVu6uazW6cjTTIERq3MmngIb3r9AljRoarWnl7suL6FS1Tj9rHTdunAtI/fv3z2fReC0EilaA0FS0VUfBCymgLxmtEyZMiIrx7rvvRn1A1En2L4//xY3e0zQIUSfZigr3JcU0CBEbd3IgoOH9aj3yw/vVgqTh/X6wg1qOLrjgAnd6bf/998/BK/IUCMRTgNAUz3rnqDtAQF9G6vuhNXXx0yDo1/59993nToloGgT/heYm5qysdP+fuh/3EWhNQKPVfEDys2dreL+CuVqPJk6YaFdeeaU7bdza/vwNAQQyFyA0ZW7HngikJaA+T1pTFz8NgoLU/PnzbebMmW4aBD/xn+snVVHpTvHtt99+qbtyPyYC7733nju1puH9voO2JnDV8H6FI41em3bhtKId3h+TauQwS0yA0FRiFcrhFIdAW9MgNDY12osvvhhNg3DY0KHRl6RvlTrooIOK40ApZVoC//nPf6LWIz//0Str1rjh/T4gnX7a6QzvT0uTjRDoOAFCU8fZ8swItEugrWkQ/LW6/DQIPXr2jPpJqVVKYeqwww5r1+uxcWEEXnnlFdf3SK1HfrLVrVu2uOH9CkjHHnusTZ8+neH9hakeXhWBNgUITW3y8CAChRXQnDiHH364W1NLomkQXJBqbLJHHnnEamtrTR3Rfb8WH6Q0OSdL4QRWrFgRBST1P1IHbfV9cwMDRpXZWWed5QJvHIf3F65WeGUEMhcgNGVux54IFEzAT4NwxhlnRGXQNAj++l9+GoS1a9dGHc41DYLm4BldWWlqqWLJnYBailZo7qPGJje833fQHjJkSHRqdfz48S4gMbw/d+48EwL5FiA05Vuc10OggwT8NAgnnXRS9ApqffIjrXQ66PF5j7tpEPr16xd9mbtO55WVNmjQoGg/7uxbYN26dc7Un15TQHrzzTfNd+JX697UqVPd1BIM79+3I48gUIwChKZirDXKjECaAvrSPuqoo9yausuqlavcRVfVMnX//fe700aJRMKdNtKpI9/hXPfjvOh0mp89259eSyaTkZNmkL76qqttVNmoODNx7AjERoDLqMSmqrM/UC4xkL1hyM/w73//213EWKP3FBC0alRXNMv5fzucqyWl1KZB0PB+3//Ij17TfEgapajO2Voryivc6LXBgweHXI2ULQsBPuOywIvJrrQ0xaSiOUwEPkxAYUDrqZNOjTbdvHmza2lRa8vy5cttzpw57vSeRuq5zsxlZa5VSkGqWKZBUBBMDUhqTdKINj/ZqALSlClT3Om1Xr16RRbcQQABBAhNvAcQQGCfAgoNH/3oR93qN9LpKYUOBSm1yixZssSd3uvRo4cLHpp00feTKvQ0CApD/vSayqrWo61bt7rAp3B03HHH2WWXXeaG9+v0JAsCCCDQlgChqS0dHkMAgb0EFC4+8pGPuDX1wTVr1kRB6tFHH7UZM2bYtm3bohYcH6R0HbRcBxQFOYUjH5B0alEBqXv37lGL2Nlnn+1aj4YOHZpabO4jgAACaQsQmtKmYkMEEGhLQGFEa+o0CBvf3GgrGla4y4A8++yzdu+999prr70WjTTTNAgVlRXuFF+6p8J0ytBNrdDQGA3v1+VFDjnkkGhEoEYQjq4cbX379W2ryDyGAAIItEuA0NQuLjZGAIH2CCi0KMCkToOwfft2d3pPQ/a1zntinmsV6tu3bxR6NHpPqxY/95TvoL1x48ao9UoTf37sYx9zp9e6devWnqKxLQIIINBuAUJTu8nYAQEEshFQuGltGoQF8xfYM0ufMV0q5oEHHrAtW7a4l1FfKV2rT6f1vnjtF23S5EnZvDz7IoAAAhkLEJoypmNHBBDIRKBlS5Pvf+RbmtQqta+Wphk/m2E/uPEHUUuT+klp1eg9WpoyqQ32QQCB9ggQmtqjxbYIINAugdQ+Tf70Wss+TWeeeWabfZo0DcIpp5wSvW5qnyY/DULLPk0uSNGnKTLjDgII5EaA0JQbR54FgdgLpI6eU0DS/Eepo+c0dcGnPvUpd5otm9Fz6jCuqQK0+qXl6DlNg9By9JymQtApPkbPeTVuEUCgvQKEpvaKsT0CMRdoOU+TTq8pIKXO03TOOee4gJKveZoUwnSKTmvqkjpP05///Gf7+c9/vsc8TT5Iab9sglzqa3IfAQRKV4DQVLp1y5EhkLVA6ozgCke+/1HqjOATJkxwYSXEGcFVTq2a4dsvqTOCP/fcc/aHP/xhrxnB1SKlNd1pEPxzc4sAAqUtQGgq7frl6BBIWyrfjWQAABu4SURBVODDrj2n4f0XXnihC0jFfO05hbvx48e71eO0vPbcggUL3Ok9rj3nhbhFAAEJEJp4HyAQQ4FVK1dZQ2ODmwNJp9a06vSUrien9dRTT7XPfe5z7n4ceBQCjzzySLemHq9c/CzjD8x6wDnp9KR30ii/yopKG1U2KnU37iOAQIkKJJL6BGBBIA0BrgCeBlJgm7z77rvuS18TRGoiSYUAdZDu169fNJGkv7zJoEGDAit9mMVZt25dFKT8iMA333xz9yzn5eVuNKBO7+2///5hHgSlalWAz7hWWfhjigAtTSkY3EWgmAXeeOONvWbPXrt27e45jcrK7ayzzrLRlZXWo2fPYj7UgpZd4VJr6jQIW7dssRUNDdbU2ORmO3/kkUdcOB0yZEgUTv3cU/379y9o+XlxBBDIXIDQlLkdeyJQMIGXX37ZBSR9Sa9ctWt4v1qVdNpo1KhRdsIJJ9jll1++12iyghW4xF9YIbTlNAg65BUrVuyqp6Ymu/vuu11Ln1qfVE9lo8qsvGJXq9SwYcNKXIjDQ6A0BAhNpVGPHEWJCuzcuXOPL143ek3D+3v23PXFW1Zm5513njsdlK/h/fuinv/EE/bM0qV23XXXWdeuXfe1Waz+vq9pEPzp0rlz5+6aBmHLFhvx38Cr06VqldK+nTp1ipUXB4tA6AKEptBriPLFRmDTpk3WsKLBGpsazfeVeWn1ajts6NDoFI/6XKivTD6G99fW1tp99923h3/CzA7q29f13/n0pz+9xwSTy154wXRa6itf+UreQlNrZezevbvpFJisNJlm79699ziGQv+Pnwbh9NNPj4qiaRDU4Vxh6m9/+9uuaRDWrLHhI0ZEdV9RXmGVoyuDO57oILiDQAwECE0xqGQOMTyB119/3QWkppVNUUB6++23o87EY8aMsYs+fpFVVFZYoYf3f/azn7UBAwY4RJ0CfOaZZ0zzG33tq1+1n9x0k5144okFB04toy7TovL97ne/s3/84x+uJSf0FhuF4HHjxrnVY2oahMaGRjfKUZ34NQ2CLhdz4IEHRkGqvKzcBSld0JgFAQQ6XoDQ1PHGvELMBfSFpy8/BSQ/e3bnzp2jDtqTJ0+2a665xv1/iFRqsRkxYkRUtGnTprlThgoqv/zlL4MITS3LePXVV5tWXZtO/mqdK7ZFYXnM2DFuTS27Rj/6VqlZD85yHc537NgR9WdTkFLY1mk+FgQQyK0AoSm3njxbjAXUCuM7/vrTa/qCUyuN6/hbVmaf+MQn3Bf4wIEDi1pK/W0OOeQQ1/KhWUv2dQkSeTz88MP2/PPPm1rXNOpMoeviiy92x68WoVtuucWuuvJKm3zaaXuYLF682LUS1dTUZBTMFKQULja9vWmP510wf4Et+OsCW7ZsmbukyvDhw00BUNfG88udd95pf/3rX+1//ud/7Cc/+Ymp4/2cOXP8wwW9VYDVevbZZ0flWL9+fRSkFi1eZHfedadt2LAhCua6XIzvJ8U0CBEbdxBotwChqd1k7ICAmYb3+1/7/vIiCgX6MlNA0q99famNrhxtB/Q4oCTJDjjgAFNg2ldo0uml7373u+704tQLprpLksx9bK7deuutu/42daqbTFJzHD04e/ZeoUnXituwfr0dffTRGfk9/fTTpjIefczu/RViv/f979mxxx5rV115lakf2ZyH59j1119vv/71r93pUb2YTpU2NTbaT3/6U/ccZ5+1O6BkVJgO3kkhXKuCol/e2fqOrWhYsesUX0ODPfroo65VSqfyNMJSq5ucs7LS9QHz+3GLAAL7FiA07duGRxBwAmplUEDS8P5VzbsuTrt9+3YXjhSQNLz/iiuuKMpTQJlWsUx02kungPbVX+jvf/+79e3b1516VEjRMmnSqXbe+efbX/7yF5s6darrMK4O0Q899JBrGfF9pxS41HdKM5N369btQ4upVil1otby6quvus7U6tvUciTfokWL3Ki0G3/wg2iuqqHDhtq3v/1tmzdvnl111VXuObp06WKa9VfXnlNrUzEuCuty9/b+GPRedu/npibX70sTnspY7+VRI0e5aRB0OpNpELwYtwjsFiA07bbgXswF/PB+/4XiZs9ubraePXvZyFG75j/S8H59oRx66KGx0XrqqadcQNIBv7f9PXv2uWdt6dKlppF0X/rSl/bpoA7iLTuJa6oEtXDodJJfFJ5mz57tWkI0Ik/LU4ufsm3bttm5557rN2vz9vbbb9/rcZ0GPP744/f4u8Kt1tTFn5bTTN9+8acbM23l8s8T4q3evy37eClo+ve9Au3tv7jdtmzZ7KZBcC2n5eVuH6ZBCLFGKVM+BQhN+dTmtYIR8MP7df019T9SQNLw/qHDhkWnLjTjs74k+vTpE0y5C1GQX/ziF3u8rE55Kfio87qu19bWormbHpozx9Tqo1Ne6rD83vbtNmjw4Gg3nSJSn5vHHnvMfGh6Yv4TNnjwYDvmmGOi7dq6k3pqbcuWLW70nJ5Pfae+//3vR6et1EJ4//3328KFC00haevWra5Mem6F5pbLEYcf0fJPJfn/+hGgNXUahLfeeivqo6dRiH/84x9tzcsvu2kQFKRUZ7ruHtMglORbgoPahwChaR8w/Ll0BPzwfj//kQKSvsDV/0hf/mPHjrWLL7rYffgzKePe9a4RcuosrUUtMOl2JL733ntdnyDNlF316SobcsgQdxpIHasVbFIXtSjddtttrrVDX8jPLFliF19ySeombd7X6TRfdxq+P2XKFBs/bpxN+/jH3Ze97+vzve99z55avNjOv+ACu+iii1zHdI1S+9xnP9vq8/ft17fVv8fhj/qx0HIahPfff99NleF/bDz55JOun5SmQfBBys8nxTQIcXiXxO8YCU3xq/OSPmI/vF8Byc2evXq1aXi/PtAVkPRL+gtf+IILTCUNkcODU0jShJHtXR544AEXSjQ6zp/u0nOoBUMhJ3U595xzTC1aah06cuyR7tTc+eefn7pJu+/rVKCCsVpJ1Iq0ceNGU9+nM88803X89k+oU1NctdxrtH2rYLqvaRDUp0zrg7MftOZbml0Lnv9hoiDlLxnT9ivwKAJhC+z5yRV2WSkdApGA+rtoOLtCklYFJE38p47ECkc6dTB9+nQ3OqjYh/dHB11kdzQFg2a/Tg1MmmJAIw8HDthzygUFnAkTJphaLtTfaczYsZZtS8Xa19bav5Yvt4OHDHGd1d955x0n2PJ5//SnP7m/69QhS2YCCkdadUFov6gefZBa/NTiaBoEtVrq36gGEWjVKfBMQrl/HW4RyKcAoSmf2rxWRgKab8Z3UvXzH6k/SuqHr07vqH9FqQ7vzwiuwDuddNJJrnO3Rqyp4/Gzzz5rOmWncKTpABRqDh5ycBSq1CF8/vz5bhTd17/+9XaVXn2UFKK17Phgh61bv840ZYEWzcGkZejQoS7EPfHEEzZx4kQ3lYA6PSt0DxkyxPVt27plSzSqzu3EfzIW8NMgyNovmgZBp/Z8mNI0CPqxo/m7/I8dBSm9X/xISr8vtwiEIEBoCqEWKEMkoA9QBaSVTStt5apdHbTVj8I3848fN96qqqpcC1K0E3eCFNBEngq8mqtJp8f0pXjDDTeYrrOmgDN9+qV2883/z44/YdcIN/V90pen+pudccYZ7TqmX/3qV9H2atnq16+fe89oKgE9r190ara+vt4FKfVl0si5G2+80Y3emzlzpp1z7rluUku/Pbe5FdCPGnXub9nB34WohkZ33cV77rnH9ZPSqUDXT2pUmZWVl7kg5fvW5bZUPBsC6QskkpqZjgWBNATUmVa/6HOxqDVAX5y+Q6nvf9S7V28bMXKEO71W4X5xjnYdiHPxmjxHYQQ2b95snTt13qMVUB87GsmW2qlcrRCXTr/UNGrxm9/8ZocWVqcID+pzkHXu0jl6HYXzTolOe/wtepA7eRdQS2SDJuds2nV9xtXNq23T5k3RDyg/ek+n91LrMZuC5vIzLptysG+4ArQ0hVs3JVMytRwoIOnXpJ89Wy1K+tXoR9xoEkN9+GkUDktpCWiCyJZLa6PwZvxshilg+WkHWu6Ty//v37//Xk/nR9/t9QB/KIiARltqTb28TupniS7NM2vWLHd6z5+qV2umv1wMnyUFqbaSf1FCU8lXcX4PMPXXoQJS86rm6NehApLm9bnk4ktcQMrVr8P8HiGvlmuBO+64w5YsWeKCtfof6RQdCwKtCSgItZw0NbXVWv3T1IdOl8tRq7WflJZW69Y0+VsmAoSmTNTYxwmk9kPQ3EdafT8EBSQN77/22mujOX5gQ6A1AQ35V1C65JJL3HQArW3D3xDYl4B+fB0x5gi3pm7j+0fqc0oTrDbfeqvpFKw+m7RqGoSKygr6R6aicf9DBejT9KFEbOAFdL5fQ4oVjvRLzo948U3ijHjxUtwigECIAn4kbmpXAY3E1UATBam5c+fmrN9miMdPmbIXIDRlbxibZ/CzKsfmgDlQBBCInUCuBrvEDi4mB0xoiklFc5gIIIAAAgggkJ1Ap+x2Z28EEEAAAQQQQCAeAoSmeNQzR4kAAggggAACWQoQmrIEZHcEEEAAAQQQiIcAoSke9cxRIoAAAggggECWAoSmLAHZHQEEEEAAAQTiIUBoikc9c5QIIIAAAgggkKUAoSlLQHZHAAEEEEAAgXgIEJriUc8cJQIIIIAAAghkKUBoyhKQ3RFAAAEEEEAgHgKEpnjUM0eJAAIIIIAAAlkKEJqyBGR3BBBAAAEEEIiHAKEpHvXMUSKAAAIIIIBAlgKEpiwB2R0BBBBAAAEE4iFAaIpHPXOUCCCAAAIIIJClAKEpS0B2RwABBBBAAIF4CBCa4lHPHCUCCCCAAAIIZClAaMoSkN0RQAABBBBAIB4ChKZ41DNHiQACCCCAAAJZChCasgRkdwQQQAABBBCIhwChKR71zFEigAACCCCAQJYCXbLcn90RCEKgpqYmiHJQCAQQyJ1AbW1t7p6MZ0IgBwK0NOUAkadAAAEEEEAAgdIXIDSVfh1zhAgggAACCCCQAwFCUw4QeQoEEEAAAQQQKH0BQlPp1zFHiAACCCCAAAI5ECA05QCRp8itQHV1tSUSCdMtCwIIIIAAAqEIEJpCqQnKEQnU19e7+/42eoA7CCCAAAIIFFCA0FRAfF66dYGqqir3gL9tfSv+igACCCCAQH4FmKcpv968WhoCdXV1ppUFAQQQQACBkARoaQqpNigLAggggAACCAQrQGgKtmooGAIIIIAAAgiEJJBIJpPJkApEWRBAAAEEEEAAgRAFaGkKsVYoEwIIIIAAAggEJ0BoCq5KKBACCCCAAAIIhChAaAqxVigTAggggAACCAQnQGgKrkooEAIIIIAAAgiEKEBoCrFWKBMCCCCAAAIIBCdAaAquSigQAggggAACCIQoQGgKsVYoEwIIIIAAAggEJ0BoCq5KKBACCCCAAAIIhChAaAqxVigTAggggAACCAQnwAV7g6sSCpSJQE1NTSa7sQ8CbQrU1ta2+TgPIoBAvARoaYpXfXO0CCCAAAIIIJChAKEpQzh2QwABBBBAAIF4CRCa4lXfHC0CCCCAAAIIZChAaMoQjt0QQAABBBBAIF4ChKZ41XdRHG11dbUlEgnTLQsCCCCAAAKhCBCaQqkJyhEJ1NfXu/v+NnqAOwgggAACCBRQgNBUQHxeunWBqqoq94C/bX0r/ooAAggggEB+BZinKb/evFoaAnV1daaVBQEEEEAAgZAEaGkKqTYoCwIIIIAAAggEK0BoCrZqKBgCCCCAAAIIhCSQSCaTyZAKRFkQQAABBBBAAIEQBWhpCrFWKBMCCCCAAAIIBCdAaAquSigQAggggAACCIQoQGgKsVYoEwIIIIAAAggEJ0BoCq5KKBACCCCAAAIIhChAaAqxVigTAggggAACCAQnQGgKrkooEAIIIIAAAgiEKEBoCrFWKBMCCCCAAAIIBCdAaAquSigQAggggAACCIQoQGgKsVYoEwIIIIAAAggEJ8AFe4OrEgqUiUBNTU0mu7EPAh8qUFtb+6HbsAECCMRDgJameNQzR4kAAggggAACWQoQmrIEZHcEEEAAAQQQiIcAoSke9cxRIoAAAggggECWAoSmLAHZHQEEEEAAAQTiIUBoikc9F9VRVldXWyKRMN2yIIAAAgggEIoAoSmUmqAckUB9fb2772+jB7iDAAIIIIBAAQUITQXE56VbF6iqqnIP+NvWt+KvCCCAAAII5FeAeZry682rpSFQV1dnWlkQQAABBBAISYCWppBqg7IggAACCCCAQLAChKZgq4aCIYAAAggggEBIAolkMpkMqUCUBQEEEEAAAQQQCFGAlqYQa4UyIYAAAggggEBwAoSm4KqEAiGAAAIIIIBAiAKEphBrhTIhgAACCCCAQHAChKbgqoQCIYAAAggggECIAoSmEGuFMiGAAAIIIIBAcAKEpuCqhAIhgAACCCCAQIgChKYQa4UyIYAAAggggEBwAoSm4KqEAiGAAAIIIIBAiAKEphBrhTIhgAACCCCAQHACXLA3uCqhQJkI1NTUZLIb+yCAQJ4Eamtr8/RKvAwCHSdAS1PH2fLMCCCAAAIIIFBCAoSmEqpMDgUBBBBAAAEEOk6A0NRxtjwzAggggAACCJSQAKGphCqTQ0EAAQQQQACBjhMgNHWcLc+coUB1dbUlEgnTLQsCCCCAAAKhCBCaQqkJyhEJ1NfXu/v+NnqAOwgggAACCBRQgNBUQHxeunWBqqoq94C/bX0r/ooAAggggEB+BZinKb/evFoaAnV1daaVBQEEEEAAgZAEaGkKqTYoCwIIIIAAAggEK0BoCrZqKBgCCCCAAAIIhCSQSCaTyZAKRFkQQAABBBBAAIEQBWhpCrFWKBMCCCCAAAIIBCdAaAquSigQAggggAACCIQoQGgKsVYoEwIIIIAAAggEJ0BoCq5KKBACCCCAAAIIhChAaAqxVigTAggggAACCAQnQGgKrkooEAIIIIAAAgiEKEBoCrFWKBMCCCCAAAIIBCdAaAquSigQAggggAACCIQoQGgKsVYoEwIIIIAAAggEJ8AFe4OrEgqUiUBNTU0mu7EPAm0K1NbWtvk4DyKAQLwEaGmKV31ztAgggAACCCCQoQChKUM4dkMAAQQQQACBeAkQmuJV3xwtAggggAACCGQoQGjKEI7dEEAAAQQQQCBeAoSmeNV3URxtdXW1JRIJ0y0LAggggAACoQgQmkKpCcoRCdTX17v7/jZ6gDsIIIAAAggUUIDQVEB8Xrp1gaqqKveAv219K/6KAAIIIIBAfgWYpym/3rxaGgJ1dXWmlQUBBBBAAIGQBGhpCqk2KAsCCCCAAAIIBCtAaAq2aigYAggggAACCIQkkEgmk8mQCkRZEEAAAQQQQACBEAVoaQqxVigTAggggAACCAQnQGgKrkooEAIIIIAAAgiEKEBoCrFWKBMCCCCAAAIIBCdAaAquSigQAggggAACCIQoQGgKsVYoEwIIIIAAAggEJ0BoCq5KKBACCCCAAAIIhChAaAqxVigTAggggAACCAQnQGgKrkooEAIIIIAAAgiEKEBoCrFWKBMCCCCAAAIIBCfABXuDqxIKlIlATU1NJruxDwIfKlBbW/uh27ABAgjEQ4CWpnjUM0eJAAIIIIAAAlkKEJqyBGR3BBBAAAEEEIiHAKEpHvXMUSKAAAIIIIBAlgKEpiwB2R0BBBBAAAEE4iFAaIpHPRfVUVZXV1sikTDdsiCAAAIIIBCKAKEplJqgHJFAfX29u+9vowe4gwACCCCAQAEFCE0FxOelWxeoqqpyD/jb1rfirwgggAACCORXgHma8uvNq6UhUFdXZ1pZEEAAAQQQCEmAlqaQaoOyIIAAAggggECwAoSmYKuGgiGAAAIIIIBASAKJZDKZDKlAlAUBBBBAAAEEEAhRgJamEGuFMiGAAAIIIIBAcAKEpuCqhAIhgAACCCCAQIgChKYQa4UyIYAAAggggEBwAoSm4KqEAiGAAAIIIIBAiAKEphBrhTIhgAACCCCAQHAChKbgqoQCIYAAAggggECIAoSmEGuFMiGAAAIIIIBAcAKEpuCqhAIhgAACCCCAQIgChKYQa4UyIYAAAggggEBwAlywN7gqoUCZCNTU1GSyG/sggECRCNTW1hZJSSlmKQvQ0lTKtcuxIYAAAggggEDOBAhNOaPkiRBAAAEEEECglAUITaVcuxwbAggggAACCORMgNCUM0qeCAEEEEAAAQRKWYDQVMq1W6THVl1dbYlEwnTLggACCCCAQCgChKZQaoJyRAL19fXuvr+NHuAOAggggAACBRQgNBUQn5duXaCqqso94G9b34q/IoAAAgggkF8B5mnKrzevloZAXV2daWVBAAEEEEAgJAFamkKqDcqCAAIIIIAAAsEKEJqCrRoKhgACCCCAAAIhCSSSyWQypAJRFgQQQAABBBBAIEQBWppCrBXKhAACCCCAAALBCRCagqsSCoQAAggggAACIQoQmkKsFcqEAAIIIIAAAsEJEJqCqxIKhAACCCCAAAIhChCaQqwVyoQAAggggAACwQkQmoKrEgqEAAIIIIAAAiEKEJpCrBXKhAACCCCAAALBCRCagqsSCoQAAggggAACIQoQmkKsFcqEAAIIIIAAAsEJcMHe4KqEAmUiUFNTk8lu7INAmwK1tbVtPs6DCCAQLwFamuJV3xwtAggggAACCGQoQGjKEI7dEEAAAQQQQCBeAoSmeNU3R4sAAggggAACGQoQmjKEYzcEEEAAAQQQiJcAoSle9V0UR1tdXW2JRMJ0y4IAAggggEAoAoSmUGqCckQC9fX17r6/jR7gDgIIIIAAAgUUIDQVEJ+Xbl2gqqrKPeBvW9+KvyKAAAIIIJBfAeZpyq83r5aGQF1dnWllQQABBBBAICQBWppCqg3KggACCCCAAALBChCagq0aCoYAAggggAACIQkkkslkMqQCURYEEEAAAQQQQCBEAVqaQqwVyoQAAggggAACwQkQmoKrEgqEAAIIIIAAAiEKEJpCrBXKhAACCCCAAALBCRCagqsSCoQAAggggAACIQoQmkKsFcqEAAIIIIAAAsEJEJqCqxIKhAACCCCAAAIhChCaQqwVyoQAAggggAACwQkQmoKrEgqEAAIIIIAAAiEKEJpCrBXKhAACCCCAAALBCXDB3uCqhAJlIlBTU5PJbuwTkEBtbW1ApaEoCCCAwN4CtDTtbcJfEEAAAQQQQACBvQQITXuR8AcEEEAAAQQQQGBvAULT3ib8BQEEEEAAAQQQ2EuA0LQXCX9AAAEEEEAAAQT2FiA07W3CXwosUF1dbYlEwnTLggACCCCAQCgCiWQymQylMJSj+AVy8Xbq1Gl3lt+5c2daKF/+8pfT2o6NwhW47bbbwi0cJUMAAQTMbPe3ExwIpAgo/GSypjxFxnerqqrcvv424ydiRwQQQAABBHIowDxNOcQslafKRWtRNha/+c1vTCsLAggggAACIQn8f9bZIYnXpJiuAAAAAElFTkSuQmCC;" vertex="1" parent="1">
                    <mxGeometry x="250" y="-3203" width="409" height="543.71" as="geometry"/>
                </mxCell>
            </root>
        </mxGraphModel>
    </diagram>
</mxfile>